<?xml version="1.0" encoding="utf-8"?>
<!-- Generator: Adobe Illustrator 24.1.2, SVG Export Plug-In . SVG Version: 6.00 Build 0)  -->
<svg version="1.1" id="레이어_1" xmlns="http://www.w3.org/2000/svg" xmlns:xlink="http://www.w3.org/1999/xlink" x="0px"
	 y="0px" viewBox="0 0 356.9 79.5" style="enable-background:new 0 0 356.9 79.5;" xml:space="preserve">
<style type="text/css">
	.st0{fill:#FFFFFF;}
	.st1{fill:#BD4CD8;}
	.st2{fill:#509FFE;}
	.st3{fill:#FF396A;}
	.st4{fill:#00D3C3;}
	.st5{fill:#FFD954;}
	.st6{fill:none;}
	.st7{fill:#4D4D4D;}
	.st8{font-family:'NIXGONM-Vb-KSCpc-EUC-H';}
	.st9{font-size:13.9907px;}
	.st10{letter-spacing:2;}
	.st11{font-family:'NIXGONB-Vb-KSCpc-EUC-H';}
	.st12{font-size:31.4616px;}
</style>
<rect x="-2866.9" y="-667.2" class="st0" width="841.9" height="595.3"/>
<rect x="-1996.6" y="-667.2" class="st0" width="841.9" height="595.3"/>
<g>
	<g>
		<path class="st1" d="M-2421-406.8c0,0-1.6-1.3-2.2,1.1c-0.6,2.5-0.7,4-3.4,6.6c-2.7,2.5-3.5,2.6-3.8,2.8c-0.3,0.1-0.1,1.5-1.4,2.5
			c-1.3,1.1-3.4,1.3-3.7-0.5c-0.3-1.8,0.6-2.8,1.8-3.7c1.2-0.9,3.8-3.5,4.8-6.3c1-2.8,2.2-7.4,2.2-9.1c0-1.8-0.1-3-1.1-1.8
			c-0.9,1.2-1.1,2.1-2.4,2.7c-1.3,0.5-2.2,0.7-2.9,1.3c-0.7,0.7-1.8,1.6-1.9,1.6c-0.1,0-0.7,0.8-1.2,0.4c-0.6-0.4-0.2-0.8,0-1.4
			c0.2-0.5-0.8,0.8-1.2,1c-0.8,0.5-1.5-0.1-1.1-0.9c0.3-0.8,1-1,1.2-1.1c0.2-0.1-2.3,0.9-2.5,0.1c-0.2-0.8,0.8-1.3,1.6-1.4
			c0.8-0.1-1.8,0.3-1.8-0.7c0-1.1,1.3-1,2.1-0.7c0,0-1.1-0.6-0.4-1.2c0.4-0.4,1.5,0.5,2.4,0.4c0.9-0.1,3.8-0.4,4.5-3.4
			c0.7-3,4.1-4.4,4.9-4.6c0,0-1.8-5.8,0.8-6.9c2.6-1.1,3.2,0.4,3.4,2.3s0.2,4.4,2.3,3.6c2.1-0.8,3.4-1.5,4.1-1.9
			c0.7-0.4,0.9-1.6,0.4-2c0,0-0.6-0.4-0.8,0.5c-0.1,0.8-0.3,1-0.7,0.8c-0.5-0.1-0.5-0.9-0.4-1.1c0.1-0.2-1,1.9-1.8,1.1
			c-0.8-0.8,0.9-1.7,1-1.8c0.1,0-1.8,1.1-2.1,0.3c-0.3-0.8,1.5-1.1,1.6-1.2c0.1-0.1-2.2,0.6-2.1-0.2c0.1-0.7,1.7-0.9,1.8-0.9
			c0.1,0-2,0.3-1.8-0.6c0.2-0.9,3.3-1.2,4.2-1.1c1,0.2,2.9,1.4,3.6,2.3c0.7,1,2,3.3,1.2,5.1c0,0-0.4,1.2-2.5,2.8
			c-2.1,1.6-3,2.5-3.1,5.2c-0.1,2.7-0.1,3,0.3,5c0.5,1.9,1.6,2.5,2.1,3c0.5,0.5,2.4,2.3,1.8,4.9c-0.6,2.7-1.9,4.8-2,5
			c-0.1,0.2,2.6,0.7,3.2,1.5c0.7,0.9-0.2,1.9-2,2c-1.7,0-4.6,0-4.3-3C-2417.7-401.2-2416.8-404.8-2421-406.8z"/>
		<path class="st1" d="M-2408.6-317.9c0,0-1.6-1.3-2.2,1.1c-0.6,2.5-0.7,4-3.4,6.6c-2.7,2.6-3.5,2.6-3.8,2.8
			c-0.3,0.1-0.1,1.5-1.4,2.6c-1.3,1.1-3.4,1.3-3.7-0.5c-0.3-1.8,0.6-2.8,1.8-3.7c1.2-0.9,3.8-3.5,4.8-6.3c1-2.8,2.2-7.4,2.2-9.1
			c0-1.7-0.1-3-1.1-1.8c-0.9,1.2-1.1,2.1-2.4,2.7c-1.3,0.5-2.2,0.7-2.9,1.3c-0.7,0.7-1.8,1.6-1.9,1.6c-0.1,0-0.7,0.8-1.2,0.4
			c-0.6-0.4-0.2-0.8,0-1.4c0.2-0.5-0.8,0.8-1.2,1c-0.8,0.5-1.5-0.1-1.1-0.9c0.3-0.8,1-1,1.2-1.1c0.2-0.1-2.3,0.9-2.5,0.1
			c-0.2-0.8,0.8-1.3,1.6-1.4c0.8-0.1-1.8,0.3-1.8-0.7c0-1.1,1.3-1,2.1-0.7c0,0-1.1-0.6-0.4-1.2c0.4-0.4,1.5,0.5,2.4,0.4
			c0.9-0.1,3.8-0.4,4.5-3.4c0.7-3,4.1-4.4,4.9-4.6c0,0-1.8-5.8,0.8-6.9c2.5-1.1,3.2,0.4,3.4,2.3c0.3,1.9,0.2,4.4,2.3,3.6
			c2.1-0.8,3.4-1.5,4.1-1.9s0.9-1.6,0.4-2c0,0-0.6-0.4-0.8,0.5c-0.1,0.8-0.3,1-0.7,0.8c-0.5-0.1-0.5-0.9-0.4-1.1
			c0.1-0.2-1,1.9-1.8,1.1c-0.8-0.8,0.9-1.7,1-1.8c0.1,0-1.8,1.1-2.1,0.3c-0.3-0.8,1.5-1.1,1.6-1.2c0.1-0.1-2.2,0.6-2.1-0.2
			c0.1-0.7,1.7-0.9,1.8-0.9c0.1,0-2,0.3-1.8-0.6c0.2-0.9,3.3-1.2,4.2-1.1c1,0.2,2.9,1.4,3.6,2.3c0.7,1,2,3.3,1.2,5.1
			c0,0-0.4,1.2-2.5,2.8c-2.1,1.6-3,2.5-3.1,5.2c-0.1,2.7-0.1,3,0.3,5c0.5,1.9,1.6,2.5,2.1,3c0.5,0.5,2.4,2.3,1.8,4.9
			c-0.6,2.7-1.9,4.8-2,5c-0.1,0.2,2.6,0.7,3.2,1.5c0.7,0.9-0.2,1.9-2,2c-1.7,0-4.6,0-4.3-3C-2405.4-312.3-2404.4-315.9-2408.6-317.9
			z"/>
		<path class="st2" d="M-2469.7-417.6c0,0-3-0.6-3.8,2.4c-0.8,3-0.8,4.7-1.8,5.8c-1.1,1.1-2.5,3.6-1.3,7.2c1.1,3.5,0.5,4.3-0.5,7.2
			c-1.1,3.2-0.6,8.9,1.3,11c0,0-1.9,0.8-1.2,2c0.7,1.2,4.7-1,5-1.3c0.3-0.3,2.5-0.8-0.5-7c0,0-0.7-1.4-0.5-4.2
			c0.3-2.8,0.6-3.1,0.9-3.3c0.4-0.3,1-0.4,1.4,0.5c0.4,0.9,1.5,3.4,1.9,3.8c0.4,0.4,1.4,1.9,3.8,1.3c2.5-0.6,5.1-1.8,6-4.8
			c0,0,1.8,1,2.3,0c0.5-1-0.8-2.2-1.4-2.6c-0.6-0.4-3.1-3.3-5.6,1.2c-2.5,4.5-4.1,0.1-4.7-1c-0.5-0.9-2.6-5.6-0.8-5.4
			c1.7,0.2,3.6,1.3,9.5,0.6c0,0,2.7,0.6,3.1-0.2s-0.7-1.1-0.9-1.2c-0.2-0.1,2,0.5,2.2-0.4c0.2-0.9-1.8-1.1-2-1.1c-0.3,0,2.3,0,2.3-1
			c0-1.1-2-0.7-2.2-0.6c-0.3,0.1,1.9-0.5,1.6-1.3c-0.3-0.8-2.4,0.2-2.6,0.3c-0.2,0.1,1-0.9,0.5-1.6c-0.5-0.7-1.8,0.8-2.1,1.3
			c-0.3,0.5-2.5,1.4-4.1,1.7c-1.5,0.3-2.8,0-3.8-0.4c-0.8-0.3-1.6-0.7-0.9-2.4c0.7-1.6,1.5-2.7,1.1-4.8
			C-2467.7-416.9-2468.9-417.4-2469.7-417.6z"/>
		<path class="st2" d="M-2390.9-421.9c0,0-3-0.6-3.8,2.4c-0.8,3-0.8,4.7-1.8,5.8c-1.1,1.1-2.5,3.6-1.3,7.2c1.1,3.5,0.5,4.3-0.5,7.2
			c-1.1,3.2-0.6,8.9,1.3,11c0,0-1.9,0.8-1.2,2c0.7,1.2,4.7-1,5-1.3c0.3-0.3,2.5-0.8-0.5-7c0,0-0.7-1.4-0.5-4.2
			c0.3-2.8,0.6-3.1,0.9-3.3c0.4-0.3,1-0.4,1.4,0.5c0.4,0.9,1.5,3.4,1.9,3.8c0.4,0.4,1.4,1.9,3.8,1.3c2.5-0.6,5.1-1.8,6-4.8
			c0,0,1.8,1,2.3,0c0.5-1-0.8-2.2-1.4-2.6c-0.6-0.4-3.1-3.3-5.6,1.2c-2.5,4.5-4.1,0.1-4.7-1c-0.5-0.9-2.6-5.6-0.8-5.4
			c1.7,0.2,3.6,1.3,9.5,0.6c0,0,2.7,0.6,3.1-0.2c0.4-0.8-0.7-1.1-0.9-1.2c-0.1-0.1,2,0.5,2.2-0.4c0.2-0.9-1.8-1.1-2-1.1
			c-0.3,0,2.3,0,2.3-1c0-1.1-2-0.7-2.2-0.6c-0.3,0.1,1.9-0.5,1.6-1.3c-0.3-0.8-2.4,0.2-2.6,0.3c-0.2,0.1,1-0.9,0.5-1.6
			c-0.5-0.7-1.8,0.8-2.1,1.3c-0.3,0.5-2.5,1.4-4.1,1.7c-1.5,0.3-2.8,0-3.8-0.4c-0.8-0.3-1.6-0.7-0.9-2.4c0.7-1.6,1.5-2.7,1.1-4.8
			C-2388.8-421.2-2390-421.7-2390.9-421.9z"/>
		<path class="st2" d="M-2408.2-481.3c0,0-3-0.6-3.8,2.4c-0.8,3-0.8,4.6-1.8,5.8c-1.1,1.1-2.5,3.6-1.3,7.2c1.1,3.5,0.5,4.3-0.5,7.2
			c-1.1,3.2-0.6,8.9,1.3,11c0,0-1.9,0.8-1.2,2c0.7,1.2,4.7-1,5-1.3c0.3-0.3,2.5-0.8-0.5-7c0,0-0.7-1.4-0.5-4.2
			c0.3-2.8,0.6-3.1,0.9-3.3c0.4-0.3,1-0.4,1.4,0.5c0.4,0.9,1.5,3.4,1.9,3.8s1.4,1.9,3.8,1.3c2.5-0.6,5.1-1.8,6-4.8c0,0,1.8,1,2.3,0
			c0.5-1-0.8-2.2-1.4-2.6c-0.6-0.4-3.1-3.3-5.6,1.2c-2.5,4.4-4.1,0.1-4.7-1c-0.5-0.9-2.6-5.6-0.8-5.4c1.7,0.2,3.6,1.3,9.5,0.6
			c0,0,2.7,0.6,3.1-0.2c0.4-0.8-0.7-1.1-0.9-1.2c-0.2-0.1,2,0.5,2.2-0.4c0.2-0.9-1.8-1.1-2-1.1c-0.3,0,2.3,0,2.3-1
			c0-1.1-2-0.7-2.2-0.6c-0.3,0.1,1.9-0.5,1.6-1.3c-0.3-0.8-2.4,0.2-2.6,0.3c-0.2,0.1,1-0.9,0.5-1.6c-0.5-0.7-1.8,0.8-2.1,1.3
			c-0.3,0.5-2.5,1.4-4.1,1.7c-1.5,0.3-2.8,0-3.8-0.4c-0.8-0.3-1.6-0.7-0.9-2.4c0.7-1.6,1.5-2.7,1.1-4.8
			C-2406.1-480.6-2407.3-481.1-2408.2-481.3z"/>
		<path class="st3" d="M-2491.6-372.5c0,0-0.2,1,0.3,1c0.5,0,0.7-0.7,0.9-1.6c0.3-0.9,0.6-2.1,1.3-1.8c0.7,0.3,0.7,1.6,0.2,2.2
			c-0.5,0.6,1-2.1,1.8-1.4c0.8,0.7-0.5,1.8-0.8,2.2c-0.3,0.3,1.6-2,2.3-0.9c0.7,1.2-1.5,1.8-1.7,1.9c-0.2,0.1,1.6-0.5,1.8,0.6
			c0.2,1.1-2,1.4-2.4,1.4c0,0,0.2,2.5-0.1,4.5c-0.2,2-0.6,4.1-2.5,5.2c-1.9,1.1-3.8,2.3-1.1,4.5c2.7,2.1,3.4,2.5,3.8,2.8
			c0.4,0.3,1.6,1.2,1.4,3.7c-0.2,2.4-0.9,2.9-0.3,3.6c0.6,0.7,0.8,1.3,0.3,1.9c-0.4,0.6-1.6,0.8-2.5,0.4c-0.9-0.4-1.8-1.6-2-1.9
			c-0.2-0.2-0.5-0.9-0.1-1.9c0.5-1,0.3-1.8-0.7-2.9c-1-1.2-4.3-2.7-3.2,0.5c1.1,3.2,1.6,8.3,1.7,10.2c0.2,1.9,0.2,1.6,0.2,2.4
			c0.1,0.8,1.1,2.2-0.3,2.9c-1.4,0.7-3.6,0.8-4.7,0.6c-1.1-0.1-1.7-0.3-2.1-0.8c-0.4-0.5-0.2-1.2,0.2-1.6s1.4-1,1.6-1.1
			c0.2-0.2-0.8-10.4-1-11.9c-0.2-1.5-0.6-4-0.9-4.9c-0.4-0.9-0.9-2-2.2-1.1c-1.3,0.9-1.4,2-2,3.2c-0.6,1.2-1,1.9-1.5,2.4
			c-0.5,0.5-2.8,1.6-3.2,1.6c-0.3,0-2,0.4-3.3-0.5c-1.3-0.9-2-2.5-1.7-2.9c0.3-0.5,1.4,0.6,1.7,1c0.4,0.4-1.4-1.3-0.7-2.2
			c0.8-0.8,1.5,1.1,1.7,1.2c0.2,0.1-0.8-1.8-0.3-2.1c0.5-0.3,1.3,1,1.4,1.3c0.2,0.3-0.8-1.7,0.2-1.9c1-0.2,1,1.3,1,1.3
			s-0.6-3.5,0.2-4.8c0.9-1.3,1.5-2.8,4.3-3.8c2.8-1,2.5-0.9,2.5-1.1c0.1-0.2-0.5-0.3-0.8-1.8c-0.3-1.5-0.3-2.8-0.1-3.6
			c0.2-0.8,1.3-1.6,2.4-1.5c1.1,0.1,1.4,0.5,1.8,1.1c0.4,0.6,0.8,1.5,1.1,2.6c0.3,1.2,0.9,2.1,2.3,1.8c1.4-0.3,3.6-1.2,3.4-3.1
			c-0.1-1.9-0.4-2.8-0.8-3.2c-0.4-0.4-0.7-2.1-0.3-3.1c0.4-1,0.3-1.2,0.6-1.5C-2492.2-373.7-2491.7-373.4-2491.6-372.5z"/>
		<path class="st3" d="M-2438-465.7c0,0-0.2,1,0.3,1c0.5,0,0.7-0.7,0.9-1.6c0.3-0.9,0.6-2.1,1.3-1.8c0.7,0.3,0.7,1.6,0.2,2.2
			c-0.5,0.6,1-2.1,1.8-1.4c0.8,0.7-0.5,1.8-0.8,2.2c-0.3,0.3,1.6-2,2.3-0.9c0.7,1.2-1.5,1.8-1.7,1.9c-0.2,0.1,1.6-0.5,1.8,0.6
			c0.2,1.1-2,1.4-2.4,1.4c0,0,0.2,2.5-0.1,4.5c-0.2,2-0.6,4.1-2.5,5.2c-1.9,1.1-3.8,2.3-1.1,4.5c2.7,2.1,3.4,2.5,3.8,2.8
			c0.4,0.3,1.6,1.2,1.4,3.7c-0.2,2.4-0.9,2.9-0.3,3.6c0.6,0.7,0.8,1.3,0.3,1.9c-0.4,0.6-1.6,0.8-2.5,0.4c-0.9-0.4-1.8-1.6-2-1.9
			c-0.2-0.2-0.5-0.9-0.1-1.9c0.5-1,0.3-1.8-0.7-3c-1-1.2-4.3-2.7-3.2,0.5s1.6,8.3,1.7,10.2c0.2,1.9,0.2,1.6,0.2,2.4
			c0.1,0.8,1.1,2.2-0.3,2.9c-1.4,0.7-3.6,0.8-4.7,0.6c-1.1-0.1-1.7-0.3-2.1-0.8c-0.4-0.5-0.2-1.2,0.2-1.6s1.4-1,1.6-1.1
			c0.2-0.2-0.8-10.4-1-11.9c-0.2-1.5-0.6-4-0.9-4.9c-0.4-0.9-0.9-2-2.2-1.1c-1.3,0.9-1.4,2-2,3.2c-0.6,1.2-1,1.9-1.5,2.4
			c-0.5,0.5-2.8,1.6-3.2,1.6c-0.3,0-2,0.4-3.3-0.5s-2-2.5-1.7-2.9c0.3-0.5,1.4,0.6,1.7,1c0.4,0.4-1.4-1.3-0.7-2.2
			c0.8-0.8,1.5,1.1,1.7,1.2c0.2,0.1-0.8-1.8-0.3-2.1c0.5-0.3,1.3,1,1.4,1.3c0.2,0.3-0.8-1.7,0.2-1.9c1-0.2,1,1.3,1,1.3
			s-0.6-3.5,0.2-4.8s1.5-2.8,4.3-3.8c2.8-1,2.5-0.9,2.5-1.1c0.1-0.2-0.5-0.3-0.8-1.8c-0.3-1.5-0.3-2.8-0.1-3.6
			c0.2-0.8,1.3-1.6,2.4-1.5c1.1,0.1,1.4,0.5,1.8,1.1c0.4,0.6,0.8,1.5,1.1,2.7c0.3,1.2,0.9,2.1,2.3,1.8c1.4-0.3,3.6-1.2,3.4-3.1
			c-0.1-1.9-0.4-2.8-0.8-3.2c-0.4-0.4-0.7-2.1-0.3-3.1c0.4-1,0.3-1.2,0.6-1.5C-2438.5-466.9-2438-466.6-2438-465.7z"/>
		<path class="st4" d="M-2428.2-376.1c0,0,0.3,2.1,1,2.7c0.7,0.6,0.4,0.7,0,0.9c-0.4,0.2-1.7,0.7-3.4,0s-6.2-3.2-6.9-4
			c0,0,0-1.3-0.2-2.1c-0.3-0.8-0.5-1.4-1-1.2s-0.3,1.1,0,1.7c0.3,0.7-2.5-2.6-3-1.8c-0.6,0.8,0.7,1.5,1,1.6c0.3,0.1-3.1-1.4-3-0.1
			c0,1.3,1.7,1.1,2.1,1.2c0.3,0.1-2.3,0-2.1,0.9c0.3,1,1.6,0.5,2.1,0.5s-2,1.1-1.3,1.8c0.7,0.7,1.6-0.1,2-0.2
			c0.5-0.1,3.5,3.1,5.1,4.2c1.6,1.1,4.6,2.2,5.9,2.4c1.4,0.2,2.4,0.9,3.1,2.5c0.7,1.7,2,4-0.3,8.8c-2.3,4.9-2,5.1-2.5,6.1
			c-0.4,1-1.4,1.7-2.1,1.7c-0.7,0.1-2.8,0.5-0.9,2.3c1.9,1.8,6.3,2.8,6.7,1.3c0.5-1.4,0.1-1.4-0.2-1.6c-0.3-0.2-0.1-0.5,0.4-1
			c0.5-0.5,4.8-12.1,5.2-13.4c0.4-1.3,0.8-2,2-1.3c1.2,0.8,11.4,5.5,13.6,5.9c0,0-0.3,1.4,0.6,1.8c1,0.4,2.2-0.6,2.9-2.3
			c0.7-1.7,1-2.4,1-3c0.1-0.6-0.1-1.7-1.9-0.7c-1.7,1-1.8,1.3-3.3,0.4c-1.5-0.9-5.8-3.2-6.3-3.5c-0.6-0.3-4.2-2.9-4.5-4.6
			c-0.3-1.7,0.2-2.2,1-3.2c0.9-1.1,2.4-3.1,3.1-4.4c0.7-1.2,1.5-4,1.5-4.4c0.1-0.4,2-0.2,2.3-1.2c0.3-1-0.8-0.9-1.4-0.8
			c-0.7,0.2,1.6-0.7,1-1.4c-0.7-0.7-1.9,0.8-2.1,1c-0.2,0.2,1.8-1.8,1-2.3c-0.8-0.5-1.6,1.1-1.8,1.6c-0.3,0.5,0.9-1.9-0.5-2.1
			c-1.4-0.1-0.9,1.6-1,2.2c-0.1,0.6-0.5-1.7-1.4-1.1c-1,0.6,0,2.1,0.6,2.5c0.6,0.4-3.1,4.6-3.6,5.1c-0.5,0.5-1.5,2.2-2.8,2.8
			c-1.3,0.6-2.3,0-2.3-1c-0.1-1-0.5-5.1-3.3-4.9C-2429-379.4-2428.2-376.1-2428.2-376.1z"/>
		<path class="st4" d="M-2500-448.1c0,0,0.3,2.1,1,2.7c0.7,0.6,0.4,0.7,0,0.9c-0.4,0.2-1.7,0.7-3.4,0c-1.7-0.7-6.2-3.2-6.9-4
			c0,0,0-1.3-0.2-2.1s-0.5-1.4-1-1.2c-0.5,0.2-0.3,1.1,0,1.7c0.3,0.7-2.5-2.6-3-1.8c-0.6,0.8,0.7,1.5,1,1.6c0.3,0.1-3.1-1.4-3-0.1
			c0,1.3,1.7,1.1,2.1,1.2c0.3,0.1-2.3,0-2.1,0.9c0.3,1,1.6,0.5,2.1,0.5c0.4,0-2,1.1-1.3,1.8c0.7,0.7,1.6-0.1,2-0.2
			c0.5-0.1,3.5,3.1,5.1,4.2c1.6,1.1,4.6,2.2,5.9,2.4c1.4,0.2,2.4,0.9,3.1,2.5c0.7,1.7,2,4-0.3,8.8c-2.3,4.9-2,5.1-2.5,6.1
			c-0.4,1-1.4,1.7-2.1,1.7c-0.7,0.1-2.8,0.5-0.9,2.3c1.9,1.8,6.3,2.8,6.7,1.3c0.5-1.4,0.1-1.4-0.2-1.6c-0.3-0.2-0.1-0.5,0.4-1
			c0.5-0.5,4.8-12.1,5.2-13.4c0.4-1.3,0.8-2,2-1.3c1.2,0.8,11.4,5.5,13.6,5.9c0,0-0.3,1.4,0.6,1.8c1,0.4,2.2-0.6,2.9-2.3
			c0.7-1.7,1-2.4,1-3c0.1-0.6-0.1-1.7-1.9-0.7c-1.7,1-1.8,1.3-3.3,0.4c-1.5-0.9-5.8-3.2-6.3-3.5c-0.6-0.3-4.2-2.9-4.5-4.6
			c-0.3-1.7,0.2-2.2,1-3.2c0.9-1.1,2.4-3.1,3.1-4.4c0.7-1.2,1.5-4,1.5-4.4c0.1-0.4,2-0.2,2.3-1.2c0.3-1-0.8-0.9-1.4-0.8
			c-0.7,0.2,1.6-0.7,1-1.4c-0.7-0.7-1.9,0.8-2.1,1c-0.2,0.2,1.8-1.8,1-2.3c-0.8-0.5-1.6,1.1-1.8,1.6c-0.3,0.5,0.9-1.9-0.5-2.1
			c-1.4-0.1-0.9,1.6-1,2.2c-0.1,0.6-0.5-1.7-1.4-1.1c-1,0.6,0,2.1,0.6,2.5c0.6,0.4-3.1,4.6-3.6,5.1c-0.5,0.5-1.5,2.2-2.8,2.8
			c-1.3,0.6-2.3,0-2.3-1c-0.1-1-0.5-5.1-3.3-4.9C-2500.8-451.4-2500-448.1-2500-448.1z"/>
		<path class="st5" d="M-2453-370c0,0-2-0.2-1.9,0.5c0.1,0.7,1.3,0.6,1.5,0.6c0.2,0-1.8-0.2-1.9,0.6c0,0.8,1.3,0.5,1.7,0.5
			c0.4-0.1-1.8,0.1-1.7,0.7c0.1,0.6,1.3,0.4,1.8,0.3c0.5-0.1-1.9,0.1-1.7,0.7c0.2,0.7,1.5,0.5,2,0.5c0.4,0,1.5,1,0.3,1.2
			c-1.1,0.2-2.1,0-1.9,0.8c0.2,0.8,1.2,0.7,1.7,0.4c0.6-0.2,1.1,0.6,1.2,0.9c0.1,0.3,1.5,2.8-0.2,4.9c-1.8,2-3.4,1.4-3.9,0.2
			c-0.5-1.2,0.1-3.4,0.1-3.9c0-0.5,0.1-2.8-2-2.9c-2.1-0.1-3.1,1.8-3.3,3.5c-0.2,1.7-0.6,3.4-1,3.9c-0.4,0.5-1,1.6-2.3,0.9
			c-1.2-0.7-1.5-1.7-1.4-2.6c0.1-0.9,0.5-2.1,0.9-2.7c0.4-0.6,1.1-1.5,1.3-1.8c0.2-0.3,0.3-0.4,0.7-0.5c0.4-0.1,2.3-0.5,2.1-1.5
			c-0.2-1-1.1-0.2-1.3-0.2c-0.2,0-1.2,0.7-1.4-0.1s0.3-1.1,1.5-1c1.2,0.1,2.1,0.2,2-0.6c0-0.8-1.6-0.4-1.8-0.4
			c-0.2,0,2.3-0.1,2.4-1.1c0.1-0.9-2-0.1-2.4,0c-0.3,0.2,2.4-0.7,2.2-1.3c-0.2-0.6-2.2-0.1-2.4,0.3c-0.2,0.3,2.6-1,2.1-1.6
			c-0.5-0.6-2.5,0.3-3.2,0.8c-0.7,0.6-3.2,3.2-3.7,4.6c-0.6,1.5-1.7,2.6-2.4,3.7c-0.7,1-2.1,3.7-1.4,6c0.7,2.3,1.7,2.7,3.4,4
			c1.7,1.4,2.6,2.7,2.9,5.3c0.3,2.6,0.6,6.8,0.8,8.1c0.2,1.3,0.4,2.9,0.2,3.6c-0.2,0.7-0.9,3.5-1,4.1c0,0.6-0.3,1.6,0.3,1.7
			c0.6,0.1,1.1-0.2,2.8-2.4c1.7-2.2,1.4-3.8,1.3-5.2c-0.1-1.4-0.1-7.9,0-9.2c0.1-1.3,1.1-2.1,1.4,0c0.3,2.1,0.6,6.2,0.6,7.5
			s0.3,3.8,0.7,4.4c0.4,0.6,1,1.5,1.4,1.9c0.3,0.4,1.1,1,1.5,1.1c0.4,0.1,1,0.2,0.8-1.7c-0.2-1.9-1.2-4.7-1.3-5.4
			c-0.1-0.7-0.4-5.3-0.4-6.6c0-1.3,0.2-2.9,0.2-3.3c0-0.5-0.2-1.1,1.8-2.6c2-1.5,4.1-3.6,5.1-5.5c0.9-1.9,1.3-4.4,0.9-7
			c-0.3-2.7-2.2-4.6-3.1-5.5C-2451.2-369.3-2452.2-369.8-2453-370z"/>
		<path class="st5" d="M-2460.4-498.5c0,0-2-0.2-1.9,0.5c0.1,0.7,1.3,0.6,1.5,0.6c0.2,0-1.8-0.2-1.9,0.6c0,0.9,1.3,0.5,1.7,0.5
			c0.4-0.1-1.8,0.1-1.7,0.7c0.1,0.6,1.3,0.4,1.8,0.3c0.5-0.1-1.9,0.1-1.7,0.7c0.2,0.6,1.5,0.5,2,0.5c0.4,0,1.5,1,0.3,1.2
			c-1.1,0.2-2.1,0-1.9,0.8c0.2,0.8,1.2,0.7,1.7,0.4c0.6-0.2,1.1,0.6,1.2,0.9s1.5,2.8-0.2,4.9c-1.8,2-3.4,1.4-3.9,0.2
			c-0.5-1.2,0.1-3.4,0.1-3.9c0-0.5,0.1-2.8-2-2.9c-2.1-0.1-3.1,1.8-3.3,3.5c-0.2,1.7-0.6,3.4-1,3.9c-0.4,0.5-1,1.6-2.3,0.9
			c-1.2-0.7-1.5-1.7-1.4-2.6c0.1-0.9,0.5-2.1,0.9-2.7c0.4-0.6,1.1-1.5,1.3-1.8c0.2-0.3,0.3-0.4,0.7-0.5c0.4-0.1,2.3-0.5,2.1-1.5
			c-0.2-1-1.1-0.2-1.3-0.2c-0.2,0-1.2,0.7-1.4-0.1c-0.1-0.8,0.3-1.1,1.5-1c1.2,0.1,2.1,0.2,2-0.6c0-0.8-1.6-0.4-1.8-0.4
			c-0.2,0,2.3-0.1,2.4-1.1c0.1-0.9-2-0.1-2.4,0s2.4-0.7,2.2-1.3c-0.2-0.6-2.2-0.1-2.4,0.3c-0.2,0.3,2.6-1,2.1-1.6
			c-0.5-0.6-2.5,0.3-3.2,0.8c-0.7,0.6-3.2,3.2-3.7,4.6c-0.6,1.5-1.7,2.6-2.4,3.7c-0.7,1-2.1,3.7-1.4,6c0.7,2.3,1.7,2.7,3.4,4
			c1.7,1.4,2.6,2.7,2.9,5.3c0.3,2.6,0.6,6.8,0.8,8.1c0.2,1.3,0.4,2.9,0.2,3.6c-0.2,0.7-0.9,3.5-1,4.1c0,0.6-0.3,1.6,0.3,1.7
			c0.6,0.1,1.1-0.2,2.8-2.4c1.7-2.2,1.4-3.8,1.3-5.2c-0.1-1.4-0.1-7.9,0-9.2c0.1-1.3,1.1-2.1,1.4,0c0.3,2.1,0.6,6.2,0.6,7.5
			c0.1,1.2,0.3,3.8,0.7,4.4c0.4,0.6,1,1.5,1.4,1.9c0.3,0.4,1.1,1,1.5,1.1c0.4,0.1,1,0.2,0.8-1.7c-0.2-1.9-1.2-4.7-1.3-5.4
			c-0.1-0.7-0.4-5.3-0.4-6.6c0-1.3,0.2-2.9,0.2-3.3c0-0.4-0.2-1.1,1.8-2.6c2-1.5,4.1-3.6,5.1-5.5c0.9-1.9,1.3-4.4,0.9-7
			c-0.3-2.7-2.2-4.6-3.1-5.5C-2458.6-497.8-2459.6-498.4-2460.4-498.5z"/>
		<path class="st3" d="M-2482.4-326c0,0-4.5-0.2-4.4,2.1c0.2,2.3,2.9,5.7,4.7,3.7C-2480.3-322.1-2479.8-326.2-2482.4-326z"/>
		<path class="st3" d="M-2424.3-474.5c0,0-4.5-0.2-4.4,2.1c0.2,2.3,2.9,5.7,4.7,3.7C-2422.1-470.7-2421.7-474.8-2424.3-474.5z"/>
		<path class="st3" d="M-2495.5-475.7c0,0-4.5-0.2-4.4,2.1c0.2,2.3,2.9,5.7,4.7,3.7C-2493.4-471.8-2493-475.9-2495.5-475.7z"/>
		<path class="st3" d="M-2471-453.2c0,0-4.5-0.2-4.4,2.1c0.2,2.3,2.9,5.7,4.7,3.7C-2468.8-449.4-2468.4-453.5-2471-453.2z"/>
		<path class="st3" d="M-2400.5-372.9c0,0-4.5-0.2-4.4,2.1c0.2,2.3,2.9,5.7,4.7,3.7C-2398.4-369.1-2397.9-373.2-2400.5-372.9z"/>
		<path class="st3" d="M-2390.5-348.5c0,0-4.5-0.2-4.4,2.1c0.2,2.3,2.9,5.7,4.7,3.7C-2388.4-344.7-2387.9-348.8-2390.5-348.5z"/>
		<path class="st3" d="M-2439.6-343c0,0-4.5-0.2-4.4,2.1c0.2,2.3,2.9,5.7,4.7,3.7C-2437.4-339.2-2437-343.3-2439.6-343z"/>
		<path class="st3" d="M-2481.2-418.2c0,0-4.5-0.2-4.4,2.1c0.2,2.3,2.9,5.7,4.7,3.7C-2479.1-414.4-2478.6-418.5-2481.2-418.2z"/>
		<path class="st4" d="M-2482.6-415.5c0,0-5.1-0.9-5.1,3s0.8,3.3,2,4.2c1.2,0.9,3.3-0.6,3.8-2.8
			C-2481.3-413.2-2480.9-415.4-2482.6-415.5z"/>
		<path class="st4" d="M-2453.6-386.6c0,0-5.1-0.9-5.1,3c0,3.9,0.8,3.3,2,4.2c1.2,0.9,3.3-0.6,3.8-2.8
			C-2452.4-384.3-2451.9-386.5-2453.6-386.6z"/>
		<path class="st4" d="M-2389.3-440.5c0,0-2.4-2.9-4.3-0.8c-1.9,2.2-1.1,2.2-0.9,3.3c0.2,1.1,2.1,1.2,3.5,0.3
			C-2389.8-438.6-2388.4-439.6-2389.3-440.5z"/>
		<path class="st4" d="M-2474.5-341.3c0,0-3.7-0.6-3.7,2.2s0.6,2.4,1.4,3.1c0.8,0.7,2.4-0.5,2.8-2
			C-2473.6-339.6-2473.3-341.3-2474.5-341.3z"/>
		<path class="st4" d="M-2494.7-390.2c0,0-5.7-1-5.7,3.4c0,4.4,0.9,3.7,2.2,4.7c1.3,1,3.7-0.7,4.3-3.1
			C-2493.3-387.6-2492.8-390.1-2494.7-390.2z"/>
	</g>
	<rect x="-2536.4" y="-248.9" class="st6" width="181" height="15.2"/>
	<text transform="matrix(1 0 0 1 -2536.4355 -239.9794)" class="st3 st8" style="font-size:11.1173px; letter-spacing:1;">Creative Arts &amp; Education</text>
	<rect x="-2536.4" y="-276.8" class="st6" width="181" height="25.7"/>
	<text transform="matrix(1 0 0 1 -2536.4355 -256.6874)" class="st3 st8" style="font-size:25px; letter-spacing:10;">ANYONCE</text>
</g>
<g>
	<g>
		<path class="st1" d="M-1684.1-369.4c0,0-1.1-1-1.5,0.8c-0.4,1.7-0.5,2.9-2.4,4.7c-1.9,1.8-2.5,1.9-2.6,2c-0.2,0.1-0.1,1-1,1.8
			c-0.9,0.8-2.4,0.9-2.6-0.3c-0.2-1.3,0.4-2,1.3-2.6c0.8-0.6,2.7-2.5,3.4-4.5c0.7-2,1.6-5.2,1.6-6.5c0-1.2-0.1-2.1-0.7-1.3
			c-0.7,0.8-0.7,1.5-1.7,1.9c-0.9,0.4-1.5,0.5-2.1,1c-0.5,0.5-1.3,1.1-1.4,1.1c-0.1,0-0.5,0.6-0.9,0.3c-0.4-0.3-0.1-0.6,0-1
			c0.2-0.4-0.5,0.5-0.8,0.7c-0.6,0.3-1-0.1-0.8-0.6c0.2-0.5,0.7-0.7,0.9-0.8c0.2-0.1-1.6,0.6-1.7,0c-0.1-0.6,0.6-0.9,1.2-1
			c0.6-0.1-1.3,0.2-1.3-0.5c0-0.7,1-0.7,1.5-0.5c0,0-0.8-0.4-0.3-0.9c0.3-0.3,1.1,0.3,1.7,0.3c0.6-0.1,2.7-0.3,3.2-2.4
			c0.5-2.1,2.9-3.1,3.5-3.2c0,0-1.3-4.1,0.5-4.9c1.8-0.8,2.2,0.3,2.4,1.6c0.2,1.3,0.1,3.1,1.6,2.6c1.5-0.5,2.4-1,2.9-1.3
			c0.5-0.3,0.6-1.1,0.3-1.4c0,0-0.4-0.3-0.5,0.3c-0.1,0.6-0.2,0.7-0.5,0.6c-0.3-0.1-0.4-0.6-0.3-0.8c0.1-0.1-0.7,1.3-1.3,0.8
			c-0.6-0.5,0.6-1.2,0.7-1.3c0,0-1.3,0.8-1.5,0.2c-0.2-0.6,1.1-0.8,1.2-0.8c0.1,0-1.6,0.4-1.5-0.1c0.1-0.5,1.2-0.6,1.3-0.7
			c0.1,0-1.4,0.2-1.3-0.4c0.1-0.6,2.3-0.9,3-0.8c0.7,0.1,2,1,2.5,1.6c0.5,0.7,1.4,2.3,0.9,3.6c0,0-0.3,0.8-1.8,2
			c-1.5,1.2-2.1,1.8-2.2,3.7c-0.1,1.9-0.1,2.1,0.2,3.5c0.3,1.4,1.1,1.8,1.5,2.1c0.4,0.4,1.7,1.6,1.3,3.5c-0.4,1.9-1.3,3.4-1.4,3.5
			c-0.1,0.2,1.8,0.5,2.3,1c0.5,0.7-0.1,1.4-1.4,1.4c-1.2,0-3.3,0-3.1-2.1C-1681.8-365.5-1681.2-368-1684.1-369.4z"/>
		<path class="st1" d="M-1675.4-306.7c0,0-1.1-0.9-1.5,0.8c-0.4,1.8-0.5,2.9-2.4,4.7c-1.9,1.8-2.5,1.9-2.6,2c-0.2,0.1-0.1,1-1,1.8
			c-0.9,0.8-2.4,0.9-2.6-0.3c-0.2-1.3,0.4-2,1.3-2.6c0.8-0.6,2.7-2.5,3.4-4.5c0.7-2,1.6-5.2,1.6-6.5c0-1.2-0.1-2.1-0.7-1.3
			c-0.7,0.8-0.7,1.5-1.7,1.9c-0.9,0.4-1.5,0.5-2.1,1c-0.5,0.5-1.3,1.1-1.4,1.1c-0.1,0-0.5,0.6-0.9,0.3c-0.4-0.3-0.1-0.6,0-1
			c0.2-0.4-0.5,0.5-0.8,0.7c-0.6,0.3-1-0.1-0.8-0.6c0.2-0.5,0.7-0.7,0.9-0.8c0.2-0.1-1.6,0.6-1.7,0c-0.1-0.6,0.6-0.9,1.2-1
			c0.6-0.1-1.3,0.2-1.3-0.5c0-0.7,1-0.7,1.5-0.5c0,0-0.8-0.4-0.3-0.9c0.3-0.3,1.1,0.3,1.7,0.3c0.6,0,2.7-0.3,3.2-2.4
			c0.5-2.1,2.9-3.1,3.5-3.2c0,0-1.3-4.1,0.5-4.9c1.8-0.8,2.2,0.3,2.4,1.6c0.2,1.3,0.1,3.1,1.6,2.6c1.5-0.5,2.4-1,2.9-1.3
			c0.5-0.3,0.6-1.1,0.3-1.4c0,0-0.4-0.3-0.5,0.3c-0.1,0.6-0.2,0.7-0.5,0.6c-0.3-0.1-0.4-0.6-0.3-0.8c0.1-0.1-0.7,1.3-1.3,0.8
			c-0.6-0.5,0.6-1.2,0.7-1.3c0,0-1.3,0.8-1.5,0.2c-0.2-0.6,1.1-0.8,1.2-0.8c0.1,0-1.6,0.4-1.5-0.1c0.1-0.5,1.2-0.7,1.3-0.7
			c0.1,0-1.4,0.2-1.3-0.4c0.1-0.6,2.3-0.9,3-0.8c0.7,0.1,2,1,2.5,1.6c0.5,0.7,1.4,2.3,0.9,3.6c0,0-0.3,0.8-1.8,2
			c-1.5,1.2-2.1,1.8-2.2,3.7c-0.1,1.9-0.1,2.1,0.2,3.5c0.3,1.4,1.1,1.8,1.5,2.1c0.4,0.4,1.7,1.6,1.3,3.5c-0.4,1.9-1.3,3.4-1.4,3.5
			c-0.1,0.2,1.8,0.5,2.3,1c0.5,0.7-0.1,1.4-1.4,1.4c-1.2,0-3.3,0-3.1-2.1C-1673.1-302.7-1672.4-305.3-1675.4-306.7z"/>
		<path class="st2" d="M-1718.5-377.1c0,0-2.1-0.4-2.7,1.7c-0.6,2.1-0.5,3.3-1.3,4.1c-0.8,0.8-1.7,2.5-0.9,5.1
			c0.8,2.5,0.3,3-0.4,5.1c-0.8,2.3-0.4,6.3,0.9,7.8c0,0-1.4,0.6-0.8,1.4c0.5,0.8,3.3-0.7,3.5-0.9c0.2-0.2,1.8-0.6-0.4-5
			c0,0-0.5-1-0.3-2.9c0.2-2,0.5-2.2,0.6-2.3c0.3-0.2,0.7-0.3,1,0.4c0.3,0.6,1.1,2.4,1.4,2.7c0.3,0.3,1,1.4,2.7,0.9
			c1.8-0.5,3.6-1.2,4.2-3.4c0,0,1.3,0.7,1.6,0c0.4-0.7-0.5-1.5-1-1.8c-0.4-0.3-2.2-2.3-4,0.8c-1.8,3.1-2.9,0.1-3.3-0.7
			c-0.4-0.6-1.8-3.9-0.6-3.8c1.2,0.1,2.6,0.9,6.7,0.4c0,0,1.9,0.4,2.2-0.1c0.3-0.6-0.5-0.8-0.6-0.8c-0.1,0,1.4,0.3,1.5-0.3
			c0.1-0.6-1.2-0.8-1.4-0.8c-0.2,0,1.7,0,1.7-0.7c0-0.7-1.4-0.5-1.6-0.4c-0.2,0.1,1.3-0.4,1.2-0.9c-0.2-0.6-1.7,0.2-1.9,0.2
			c-0.1,0.1,0.7-0.7,0.3-1.1c-0.4-0.5-1.3,0.6-1.5,0.9c-0.2,0.3-1.7,1-2.9,1.2c-1.1,0.2-2,0-2.7-0.3c-0.6-0.2-1.1-0.5-0.6-1.7
			c0.5-1.1,1.1-1.9,0.8-3.4C-1717.1-376.6-1717.9-376.9-1718.5-377.1z"/>
		<path class="st2" d="M-1662.9-380.1c0,0-2.1-0.4-2.7,1.7c-0.6,2.1-0.5,3.3-1.3,4.1c-0.8,0.8-1.7,2.6-0.9,5.1
			c0.8,2.5,0.3,3-0.4,5.1c-0.8,2.3-0.4,6.3,0.9,7.8c0,0-1.4,0.6-0.8,1.4c0.5,0.8,3.3-0.7,3.5-0.9c0.2-0.2,1.8-0.6-0.4-5
			c0,0-0.5-1-0.3-3c0.2-2,0.4-2.2,0.6-2.3c0.3-0.2,0.7-0.3,1,0.4c0.3,0.6,1.1,2.4,1.4,2.7c0.3,0.3,1,1.4,2.7,0.9
			c1.8-0.5,3.6-1.2,4.2-3.4c0,0,1.3,0.7,1.6,0c0.4-0.7-0.5-1.5-1-1.8c-0.4-0.3-2.2-2.3-4,0.8c-1.8,3.1-2.9,0.1-3.3-0.7
			c-0.4-0.6-1.8-3.9-0.6-3.8c1.2,0.1,2.6,0.9,6.7,0.4c0,0,1.9,0.4,2.2-0.1c0.3-0.6-0.5-0.8-0.6-0.8c-0.1,0,1.4,0.3,1.5-0.3
			c0.1-0.6-1.2-0.8-1.4-0.8c-0.2,0,1.7,0,1.7-0.7c0-0.7-1.4-0.5-1.6-0.4c-0.2,0.1,1.3-0.4,1.2-0.9c-0.2-0.6-1.7,0.2-1.9,0.2
			c-0.1,0.1,0.7-0.7,0.3-1.1c-0.4-0.5-1.3,0.6-1.5,0.9c-0.2,0.3-1.7,1-2.9,1.2c-1.1,0.2-2,0-2.7-0.3c-0.6-0.2-1.1-0.5-0.6-1.7
			c0.5-1.1,1.1-1.9,0.8-3.4C-1661.4-379.6-1662.2-379.9-1662.9-380.1z"/>
		<path class="st2" d="M-1675.1-422c0,0-2.1-0.4-2.7,1.7c-0.6,2.1-0.5,3.3-1.3,4.1c-0.8,0.8-1.7,2.5-0.9,5.1c0.8,2.5,0.3,3-0.4,5.1
			c-0.8,2.3-0.4,6.3,0.9,7.8c0,0-1.4,0.6-0.8,1.4c0.5,0.8,3.3-0.7,3.5-0.9c0.2-0.2,1.8-0.6-0.4-5c0,0-0.5-1-0.3-3
			c0.2-2,0.5-2.2,0.6-2.3c0.3-0.2,0.7-0.3,1,0.4c0.3,0.6,1.1,2.4,1.4,2.7c0.3,0.3,1,1.4,2.7,0.9c1.8-0.5,3.6-1.2,4.2-3.4
			c0,0,1.3,0.7,1.6,0c0.4-0.7-0.5-1.5-1-1.8c-0.4-0.3-2.2-2.3-4,0.8c-1.8,3.1-2.9,0.1-3.3-0.7c-0.4-0.6-1.8-3.9-0.6-3.8
			c1.2,0.1,2.6,0.9,6.7,0.4c0,0,1.9,0.4,2.2-0.1c0.3-0.6-0.5-0.8-0.6-0.8c-0.1,0,1.4,0.3,1.5-0.3c0.1-0.6-1.2-0.8-1.4-0.8
			c-0.2,0,1.7,0,1.7-0.7c0-0.7-1.4-0.5-1.6-0.4c-0.2,0.1,1.3-0.4,1.2-0.9c-0.2-0.6-1.7,0.2-1.9,0.2c-0.1,0.1,0.7-0.7,0.3-1.1
			c-0.4-0.5-1.3,0.6-1.5,0.9c-0.2,0.3-1.7,1-2.9,1.2c-1.1,0.2-2,0-2.7-0.3c-0.6-0.2-1.1-0.5-0.6-1.7c0.5-1.1,1.1-1.9,0.8-3.4
			C-1673.6-421.5-1674.5-421.9-1675.1-422z"/>
		<path class="st3" d="M-1734-345.2c0,0-0.2,0.7,0.2,0.7c0.4,0,0.5-0.5,0.7-1.1c0.2-0.7,0.4-1.5,0.9-1.3c0.5,0.2,0.5,1.1,0.1,1.5
			c-0.3,0.4,0.7-1.5,1.3-1c0.6,0.5-0.3,1.3-0.6,1.5c-0.2,0.2,1.1-1.4,1.6-0.6c0.5,0.8-1,1.3-1.2,1.4c-0.2,0.1,1.2-0.3,1.3,0.4
			c0.1,0.8-1.4,1-1.7,1c0,0,0.1,1.8-0.1,3.2c-0.2,1.4-0.4,2.9-1.8,3.6c-1.3,0.8-2.7,1.6-0.8,3.1c1.9,1.5,2.4,1.8,2.7,2
			c0.3,0.2,1.1,0.9,1,2.6c-0.2,1.7-0.6,2-0.2,2.5c0.4,0.5,0.5,0.9,0.2,1.3c-0.3,0.4-1.2,0.6-1.8,0.3c-0.6-0.3-1.3-1.1-1.4-1.3
			c-0.1-0.2-0.4-0.6,0-1.3c0.3-0.7,0.2-1.3-0.5-2.1c-0.7-0.8-3-1.9-2.3,0.4c0.8,2.3,1.1,5.8,1.2,7.2c0.1,1.4,0.1,1.1,0.2,1.7
			c0,0.6,0.8,1.5-0.2,2.1c-1,0.5-2.6,0.5-3.3,0.4c-0.8-0.1-1.2-0.2-1.5-0.6c-0.3-0.3-0.1-0.8,0.1-1.1c0.2-0.3,1-0.7,1.1-0.8
			c0.2-0.1-0.6-7.4-0.7-8.4c-0.1-1-0.4-2.8-0.7-3.5c-0.3-0.6-0.6-1.4-1.5-0.8c-0.9,0.6-1,1.4-1.4,2.3c-0.4,0.8-0.7,1.3-1.1,1.7
			c-0.3,0.4-2,1.1-2.2,1.1c-0.2,0-1.4,0.3-2.3-0.4c-0.9-0.6-1.4-1.7-1.2-2.1c0.2-0.3,1,0.4,1.2,0.7c0.2,0.3-1-0.9-0.5-1.5
			c0.5-0.6,1.1,0.8,1.2,0.8c0.1,0.1-0.6-1.3-0.2-1.5c0.4-0.2,0.9,0.7,1,0.9c0.1,0.2-0.6-1.2,0.1-1.3c0.7-0.1,0.7,0.9,0.7,0.9
			s-0.4-2.4,0.2-3.4c0.6-0.9,1.1-2,3.1-2.7c2-0.7,1.8-0.6,1.8-0.8c0-0.1-0.3-0.2-0.6-1.3c-0.2-1.1-0.2-2-0.1-2.5
			c0.2-0.5,0.9-1.1,1.7-1.1c0.8,0.1,1,0.3,1.2,0.8c0.2,0.4,0.5,1,0.8,1.9c0.2,0.8,0.7,1.5,1.7,1.3c1-0.2,2.5-0.8,2.4-2.2
			c-0.1-1.4-0.3-2-0.6-2.3c-0.3-0.3-0.5-1.5-0.2-2.2c0.3-0.7,0.2-0.9,0.4-1.1C-1734.4-346.1-1734-345.9-1734-345.2z"/>
		<path class="st3" d="M-1696.1-411c0,0-0.2,0.7,0.2,0.7c0.4,0,0.5-0.5,0.7-1.1c0.2-0.7,0.4-1.5,0.9-1.3c0.5,0.2,0.5,1.1,0.1,1.5
			c-0.3,0.4,0.7-1.5,1.3-1c0.6,0.5-0.3,1.3-0.6,1.5c-0.2,0.2,1.1-1.4,1.6-0.6c0.5,0.8-1,1.3-1.2,1.4c-0.2,0.1,1.2-0.3,1.3,0.4
			c0.1,0.8-1.4,1-1.7,1c0,0,0.1,1.8-0.1,3.2c-0.2,1.4-0.4,2.9-1.8,3.6c-1.4,0.8-2.7,1.6-0.8,3.1c1.9,1.5,2.4,1.8,2.7,2
			c0.3,0.2,1.1,0.9,1,2.6c-0.2,1.7-0.6,2-0.2,2.5c0.4,0.5,0.5,0.9,0.2,1.3c-0.3,0.4-1.2,0.6-1.8,0.3c-0.6-0.3-1.3-1.1-1.4-1.3
			c-0.1-0.2-0.4-0.6,0-1.3c0.3-0.7,0.2-1.3-0.5-2.1c-0.7-0.8-3-1.9-2.3,0.4c0.8,2.3,1.1,5.8,1.2,7.2c0.1,1.3,0.1,1.1,0.2,1.7
			c0,0.6,0.8,1.5-0.2,2.1c-1,0.5-2.6,0.5-3.3,0.4c-0.8-0.1-1.2-0.2-1.5-0.6c-0.3-0.3-0.1-0.8,0.1-1.1c0.3-0.3,1-0.7,1.1-0.8
			c0.2-0.1-0.6-7.4-0.7-8.4c-0.1-1-0.4-2.8-0.7-3.5s-0.6-1.4-1.5-0.8c-0.9,0.6-1,1.4-1.4,2.3c-0.4,0.8-0.7,1.3-1.1,1.7
			c-0.3,0.4-2,1.1-2.2,1.1c-0.2,0-1.4,0.3-2.3-0.4c-0.9-0.6-1.4-1.7-1.2-2.1c0.2-0.3,1,0.4,1.2,0.7c0.3,0.3-1-0.9-0.5-1.5
			c0.5-0.6,1.1,0.8,1.2,0.8c0.1,0.1-0.6-1.3-0.2-1.5c0.4-0.2,0.9,0.7,1,0.9c0.1,0.2-0.6-1.2,0.1-1.3c0.7-0.1,0.7,0.9,0.7,0.9
			s-0.4-2.4,0.2-3.4c0.6-0.9,1.1-2,3.1-2.7c2-0.7,1.8-0.6,1.8-0.8c0-0.1-0.3-0.2-0.6-1.3c-0.2-1.1-0.2-2-0.1-2.5
			c0.2-0.5,0.9-1.1,1.7-1.1c0.8,0.1,1,0.3,1.2,0.8c0.2,0.4,0.5,1,0.8,1.9c0.2,0.8,0.7,1.5,1.7,1.3c1-0.2,2.5-0.8,2.4-2.2
			c-0.1-1.3-0.3-2-0.6-2.3c-0.3-0.3-0.5-1.5-0.2-2.2c0.3-0.7,0.2-0.9,0.4-1.1C-1696.5-411.8-1696.1-411.6-1696.1-411z"/>
		<path class="st4" d="M-1689.2-347.7c0,0,0.2,1.5,0.7,1.9c0.5,0.4,0.3,0.5,0,0.6c-0.3,0.2-1.2,0.5-2.4,0c-1.2-0.5-4.4-2.3-4.9-2.8
			c0,0,0-0.9-0.2-1.5c-0.2-0.6-0.4-1-0.7-0.9c-0.4,0.1-0.2,0.8,0,1.2c0.2,0.5-1.7-1.8-2.1-1.2c-0.4,0.6,0.5,1.1,0.7,1.1
			c0.2,0-2.2-1-2.1-0.1c0,0.9,1.2,0.8,1.5,0.8c0.2,0-1.7,0-1.5,0.7c0.2,0.7,1.1,0.4,1.5,0.4s-1.4,0.8-0.9,1.3c0.5,0.5,1.1,0,1.4-0.1
			c0.3-0.1,2.5,2.2,3.6,3c1.1,0.8,3.2,1.6,4.2,1.7c1,0.2,1.7,0.6,2.2,1.8c0.5,1.2,1.4,2.8-0.2,6.2c-1.6,3.4-1.4,3.6-1.7,4.3
			c-0.3,0.7-1,1.2-1.5,1.2c-0.5,0-2,0.4-0.6,1.6c1.4,1.3,4.4,1.9,4.8,0.9c0.3-1,0.1-1-0.1-1.1c-0.2-0.2-0.1-0.4,0.3-0.7
			c0.4-0.4,3.4-8.5,3.7-9.4c0.3-0.9,0.6-1.4,1.4-0.9c0.8,0.5,8,3.9,9.6,4.1c0,0-0.2,1,0.4,1.3c0.7,0.3,1.5-0.4,2-1.6
			c0.5-1.2,0.7-1.7,0.7-2.1c0.1-0.4-0.1-1.2-1.3-0.5c-1.2,0.7-1.3,0.9-2.3,0.3c-1.1-0.6-4.1-2.2-4.5-2.5c-0.4-0.2-3-2.1-3.2-3.2
			c-0.2-1.2,0.1-1.5,0.7-2.3c0.6-0.8,1.7-2.2,2.2-3.1c0.5-0.9,1-2.8,1.1-3.1c0-0.3,1.4-0.1,1.6-0.8c0.2-0.7-0.5-0.7-1-0.5
			c-0.5,0.1,1.1-0.5,0.7-1c-0.5-0.5-1.4,0.5-1.5,0.7c-0.1,0.2,1.3-1.3,0.7-1.6c-0.6-0.4-1.1,0.8-1.3,1.1c-0.2,0.3,0.6-1.4-0.3-1.5
			c-1-0.1-0.6,1.1-0.7,1.6c0,0.4-0.3-1.2-1-0.8c-0.7,0.4,0,1.5,0.4,1.8c0.4,0.3-2.2,3.2-2.5,3.6c-0.4,0.4-1.1,1.5-2,2
			c-0.9,0.4-1.6,0-1.7-0.7c0-0.7-0.4-3.6-2.3-3.5C-1689.8-350.1-1689.2-347.7-1689.2-347.7z"/>
		<path class="st4" d="M-1739.9-398.6c0,0,0.2,1.5,0.7,1.9c0.5,0.4,0.3,0.5,0,0.7c-0.3,0.2-1.2,0.5-2.4,0c-1.2-0.5-4.4-2.3-4.9-2.8
			c0,0,0-0.9-0.2-1.5c-0.2-0.6-0.4-1-0.7-0.9c-0.4,0.1-0.2,0.8,0,1.2c0.2,0.5-1.7-1.8-2.1-1.2c-0.4,0.6,0.5,1.1,0.7,1.1
			c0.2,0-2.2-1-2.2-0.1c0,0.9,1.2,0.8,1.5,0.9c0.2,0-1.7,0-1.5,0.6c0.2,0.7,1.1,0.4,1.5,0.4c0.3,0-1.4,0.8-0.9,1.3
			c0.5,0.5,1.1,0,1.4-0.1c0.3-0.1,2.5,2.2,3.6,3c1.1,0.8,3.2,1.6,4.2,1.7c1,0.2,1.7,0.6,2.2,1.8c0.5,1.2,1.4,2.8-0.2,6.2
			c-1.6,3.4-1.4,3.6-1.7,4.3c-0.3,0.7-1,1.2-1.5,1.2c-0.5,0-2,0.4-0.6,1.6c1.4,1.3,4.4,1.9,4.8,0.9c0.3-1,0.1-1-0.1-1.1
			c-0.2-0.2-0.1-0.4,0.3-0.7c0.4-0.4,3.4-8.5,3.7-9.4c0.3-0.9,0.6-1.4,1.4-0.9c0.8,0.5,8,3.9,9.6,4.1c0,0-0.2,1,0.4,1.3
			c0.7,0.3,1.5-0.4,2-1.6c0.5-1.2,0.7-1.7,0.7-2.1c0.1-0.4-0.1-1.2-1.3-0.5c-1.2,0.7-1.3,0.9-2.3,0.3c-1.1-0.6-4.1-2.2-4.5-2.5
			c-0.4-0.2-3-2.1-3.2-3.2c-0.2-1.2,0.1-1.5,0.7-2.3c0.6-0.8,1.7-2.2,2.2-3.1c0.5-0.9,1-2.8,1.1-3.1c0-0.3,1.4-0.1,1.6-0.8
			c0.2-0.7-0.5-0.7-1-0.5c-0.5,0.1,1.1-0.5,0.7-1c-0.5-0.5-1.4,0.5-1.5,0.7c-0.1,0.2,1.3-1.3,0.7-1.6c-0.6-0.4-1.1,0.8-1.3,1.1
			c-0.2,0.3,0.7-1.4-0.3-1.5c-1-0.1-0.7,1.1-0.7,1.6c0,0.4-0.3-1.2-1-0.8c-0.7,0.4,0,1.5,0.4,1.8c0.4,0.3-2.2,3.2-2.5,3.6
			c-0.4,0.4-1.1,1.5-2,2c-0.9,0.4-1.6,0-1.7-0.7c0-0.7-0.4-3.6-2.3-3.5C-1740.5-400.9-1739.9-398.6-1739.9-398.6z"/>
		<path class="st5" d="M-1706.7-343.4c0,0-1.4-0.1-1.3,0.4c0.1,0.5,0.9,0.4,1,0.4c0.1,0-1.3-0.2-1.3,0.4c0,0.6,0.9,0.4,1.2,0.3
			c0.3,0-1.3,0-1.2,0.5c0.1,0.4,0.9,0.3,1.3,0.2c0.4-0.1-1.3,0-1.2,0.5c0.1,0.5,1.1,0.3,1.4,0.4c0.3,0,1,0.7,0.2,0.8
			c-0.8,0.1-1.5,0-1.4,0.6c0.1,0.6,0.8,0.5,1.2,0.3c0.4-0.2,0.8,0.4,0.8,0.6c0.1,0.2,1.1,2-0.2,3.4c-1.3,1.4-2.4,1-2.7,0.1
			c-0.4-0.8,0-2.4,0-2.7c0-0.4,0.1-2-1.4-2.1c-1.5-0.1-2.2,1.3-2.4,2.5c-0.1,1.2-0.4,2.4-0.7,2.8c-0.2,0.3-0.7,1.1-1.6,0.6
			c-0.9-0.5-1.1-1.2-1-1.8c0.1-0.6,0.3-1.5,0.6-1.9c0.3-0.4,0.8-1.1,0.9-1.3c0.2-0.2,0.2-0.3,0.5-0.3c0.3,0,1.6-0.4,1.5-1.1
			c-0.1-0.7-0.8-0.2-0.9-0.1c-0.1,0-0.9,0.5-1,0c-0.1-0.5,0.2-0.8,1-0.7c0.8,0.1,1.5,0.2,1.4-0.4c0-0.6-1.1-0.3-1.3-0.3
			c-0.1,0,1.6-0.1,1.7-0.7c0.1-0.7-1.4-0.1-1.7,0c-0.2,0.1,1.7-0.5,1.5-1c-0.2-0.4-1.6-0.1-1.7,0.2c-0.1,0.2,1.8-0.7,1.5-1.2
			c-0.3-0.4-1.8,0.2-2.3,0.6c-0.5,0.4-2.2,2.3-2.6,3.3c-0.4,1-1.2,1.9-1.7,2.6c-0.5,0.7-1.5,2.6-1,4.2c0.5,1.6,1.2,1.9,2.4,2.9
			c1.2,1,1.8,1.9,2,3.7c0.2,1.9,0.4,4.8,0.6,5.7c0.1,0.9,0.3,2,0.2,2.6c-0.2,0.5-0.6,2.5-0.7,2.9c0,0.4-0.2,1.1,0.2,1.2
			c0.4,0.1,0.8-0.2,2-1.7c1.2-1.6,1-2.7,0.9-3.7c-0.1-1-0.1-5.5,0-6.5c0.1-0.9,0.8-1.5,1,0c0.2,1.5,0.4,4.4,0.4,5.3
			c0,0.8,0.2,2.7,0.5,3.1c0.3,0.4,0.7,1.1,1,1.3c0.2,0.2,0.8,0.7,1.1,0.8c0.3,0.1,0.7,0.1,0.5-1.2c-0.2-1.3-0.8-3.3-0.9-3.8
			c-0.1-0.5-0.3-3.8-0.3-4.7c0-0.9,0.1-2,0.1-2.3c0-0.3-0.2-0.8,1.3-1.8c1.4-1,2.9-2.6,3.6-3.9c0.6-1.3,0.9-3.1,0.7-5
			c-0.2-1.9-1.5-3.2-2.2-3.9C-1705.5-343-1706.2-343.4-1706.7-343.4z"/>
		<path class="st5" d="M-1712-434.1c0,0-1.4-0.1-1.3,0.4c0.1,0.5,0.9,0.4,1,0.4c0.1,0-1.3-0.2-1.3,0.4c0,0.6,0.9,0.4,1.2,0.3
			c0.3,0-1.3,0-1.2,0.5c0.1,0.4,0.9,0.3,1.3,0.2c0.4-0.1-1.3,0-1.2,0.5c0.1,0.5,1.1,0.3,1.4,0.4c0.3,0,1,0.7,0.2,0.8
			c-0.8,0.1-1.5,0-1.4,0.6c0.1,0.6,0.8,0.5,1.2,0.3c0.4-0.2,0.8,0.4,0.8,0.6c0.1,0.2,1.1,2-0.2,3.4c-1.3,1.4-2.4,1-2.7,0.1
			c-0.4-0.8,0-2.4,0.1-2.7c0-0.4,0.1-2-1.4-2.1c-1.5-0.1-2.2,1.3-2.4,2.5c-0.1,1.2-0.4,2.4-0.7,2.8c-0.2,0.3-0.7,1.1-1.6,0.7
			c-0.9-0.5-1.1-1.2-1-1.8c0.1-0.6,0.3-1.5,0.6-1.9c0.3-0.4,0.8-1.1,0.9-1.3c0.2-0.2,0.2-0.3,0.5-0.3c0.3,0,1.6-0.4,1.5-1.1
			c-0.1-0.7-0.8-0.2-0.9-0.1c-0.1,0-0.9,0.5-1,0c-0.1-0.5,0.2-0.8,1-0.7c0.8,0.1,1.5,0.2,1.4-0.4c0-0.6-1.1-0.3-1.3-0.3
			c-0.1,0,1.6-0.1,1.7-0.7c0.1-0.7-1.4-0.1-1.7,0c-0.2,0.1,1.7-0.5,1.5-1c-0.2-0.4-1.6-0.1-1.7,0.2c-0.1,0.2,1.8-0.7,1.5-1.2
			c-0.3-0.4-1.8,0.2-2.3,0.6c-0.5,0.4-2.2,2.3-2.6,3.3c-0.4,1-1.2,1.9-1.7,2.6c-0.5,0.7-1.5,2.6-1,4.2c0.5,1.6,1.2,1.9,2.4,2.9
			c1.2,1,1.8,1.9,2,3.7c0.2,1.9,0.4,4.8,0.6,5.7c0.1,0.9,0.3,2,0.2,2.6c-0.2,0.5-0.6,2.5-0.7,2.9c0,0.4-0.2,1.1,0.2,1.2
			c0.4,0.1,0.8-0.2,2-1.7c1.2-1.6,1-2.7,0.9-3.7c-0.1-1-0.1-5.5,0-6.5c0.1-0.9,0.8-1.5,1,0c0.2,1.5,0.4,4.4,0.4,5.3
			c0,0.8,0.2,2.7,0.5,3.1c0.3,0.4,0.7,1.1,1,1.3c0.2,0.2,0.8,0.7,1.1,0.8c0.3,0.1,0.7,0.1,0.5-1.2c-0.2-1.3-0.8-3.3-0.9-3.8
			c-0.1-0.5-0.3-3.8-0.3-4.7c0-0.9,0.1-2,0.1-2.3c0-0.3-0.2-0.8,1.3-1.8c1.4-1,2.9-2.6,3.6-3.9c0.6-1.3,0.9-3.1,0.7-5
			c-0.2-1.9-1.5-3.2-2.2-3.9C-1710.7-433.6-1711.4-434-1712-434.1z"/>
		<path class="st3" d="M-1727.5-312.4c0,0-3.2-0.1-3.1,1.5c0.1,1.6,2.1,4,3.3,2.6C-1726-309.7-1725.6-312.6-1727.5-312.4z"/>
		<path class="st3" d="M-1686.4-417.2c0,0-3.2-0.1-3.1,1.5c0.1,1.6,2.1,4,3.3,2.6C-1684.9-414.5-1684.6-417.4-1686.4-417.2z"/>
		<path class="st3" d="M-1736.7-418c0,0-3.2-0.1-3.1,1.5c0.1,1.6,2.1,4,3.3,2.6C-1735.2-415.3-1734.9-418.2-1736.7-418z"/>
		<path class="st3" d="M-1719.4-402.2c0,0-3.2-0.1-3.1,1.5c0.1,1.6,2.1,4,3.3,2.6C-1717.9-399.5-1717.6-402.4-1719.4-402.2z"/>
		<path class="st3" d="M-1669.7-345.5c0,0-3.2-0.1-3.1,1.5c0.1,1.6,2.1,4,3.3,2.6C-1668.1-342.8-1667.8-345.7-1669.7-345.5z"/>
		<path class="st3" d="M-1662.6-328.3c0,0-3.2-0.1-3.1,1.5c0.1,1.6,2.1,4,3.3,2.6C-1661.1-325.6-1660.8-328.5-1662.6-328.3z"/>
		<path class="st3" d="M-1697.2-324.4c0,0-3.2-0.1-3.1,1.5c0.1,1.6,2.1,4,3.3,2.6C-1695.7-321.7-1695.4-324.6-1697.2-324.4z"/>
		<path class="st3" d="M-1726.6-377.5c0,0-3.2-0.1-3.1,1.5c0.1,1.6,2.1,4,3.3,2.6C-1725.1-374.8-1724.8-377.7-1726.6-377.5z"/>
		<path class="st4" d="M-1727.6-375.5c0,0-3.6-0.6-3.6,2.1c0,2.8,0.6,2.3,1.4,2.9c0.8,0.6,2.3-0.4,2.7-1.9
			C-1726.7-373.9-1726.4-375.5-1727.6-375.5z"/>
		<path class="st4" d="M-1707.2-355.2c0,0-3.6-0.6-3.6,2.1c0,2.8,0.6,2.3,1.4,2.9c0.8,0.6,2.3-0.4,2.7-1.9
			C-1706.3-353.5-1706-355.1-1707.2-355.2z"/>
		<path class="st4" d="M-1661.8-393.2c0,0-1.7-2.1-3-0.5c-1.3,1.5-0.8,1.6-0.7,2.3c0.1,0.7,1.5,0.9,2.4,0.2
			C-1662.1-391.9-1661.1-392.6-1661.8-393.2z"/>
		<path class="st4" d="M-1721.9-323.2c0,0-2.6-0.5-2.6,1.6c0,2,0.4,1.7,1,2.2c0.6,0.5,1.7-0.3,2-1.4
			C-1721.3-322-1721-323.2-1721.9-323.2z"/>
		<path class="st4" d="M-1736.1-357.7c0,0-4-0.7-4,2.4c0,3.1,0.6,2.6,1.5,3.3c0.9,0.7,2.6-0.5,3-2.2
			C-1735.1-355.9-1734.8-357.7-1736.1-357.7z"/>
	</g>
</g>
<path class="st3" d="M1013.9-593.5c0,0-3.7,15.4,4.2,15c7.9-0.4,10-10.4,14.1-24.5c4.2-14.1,9.6-31.6,20-27.5
	c10.4,4.2,10,24.2,2.9,33.3c-7.1,9.1,14.6-32.5,27-21.2c12.5,11.2-7.5,27.9-12.5,32.9c-5,5,24.6-31.2,34.5-13.3
	c10,17.9-22.5,27.1-26.2,29.2c-3.8,2.1,25-7.5,28.1,9.5c3.1,17.1-30.6,21.2-36.9,21.2c0,0,2.5,38.3-1.2,69
	c-3.7,30.8-9.2,62.1-38.3,78.7c-29.1,16.6-57.5,35.4-16.7,67.8c40.8,32.5,52.1,38.7,58.3,43.3c6.2,4.6,24.5,18.7,20.8,55.8
	c-3.7,37-13.7,43.7-4.2,54.9c9.6,11.2,11.7,20,5,29.2c-6.6,9.1-25,12.5-38.7,5.8c-13.7-6.7-27.5-24.6-30-28.3
	c-2.5-3.7-8.3-13.7-0.8-28.7c7.5-15,5-27-10-44.9c-15-17.9-65.8-40.8-49.1,7.9c16.6,48.7,23.7,126.1,26.2,155.2
	c2.5,29.1,2.5,23.7,3.3,36.6c0.8,12.9,17.5,33.3-4.6,44.5c-22.1,11.2-55,11.7-71.6,9.6c-16.6-2.1-26.6-5-32-12
	c-5.4-7.1-2.9-17.9,2.5-23.7c5.4-5.8,20.8-14.5,24.1-17.5c3.3-2.9-12.5-159-15.4-181.5c-2.9-22.5-8.5-61.2-14.2-74.9
	c-5.7-13.7-13.2-30-33.2-16.2c-20,13.7-22.1,30.4-30.8,48.7c-8.7,18.3-15.8,28.7-23.3,36.6c-7.5,7.9-43.3,23.7-48.3,24.1
	c-5,0.4-30.8,5.8-50.4-7.9c-19.6-13.7-30.4-37.5-26.2-44.6c4.2-7.1,20.8,9.2,26.2,15.4c5.4,6.2-22-20.4-10.4-32.9
	c11.7-12.5,23.3,16.7,25.8,18.3c2.5,1.7-12.5-27.5-4.6-32c7.9-4.6,19.6,14.6,22.1,19.6c2.5,5-12.1-26.7,2.5-29.1
	c14.6-2.5,15,20.4,15,20.4s-9.6-52.9,3.7-72.4c13.3-19.6,23.3-42.9,66.2-57.8c42.9-15,37.9-13.3,38.7-16.2
	c0.8-2.9-7.5-4.6-12.5-27.5c-5-22.9-4.6-43.3-1.2-54.9c3.3-11.6,20-24.6,36.6-22.9c16.7,1.7,21.3,7.1,26.7,16.2
	c5.4,9.1,11.6,22.5,16.2,40.4c4.6,17.9,14.1,32,35.8,27c21.6-5,54.1-18.3,52.4-47.4c-1.7-29.2-5.8-42.5-12.5-49.1
	c-6.7-6.7-10.4-31.6-5-47.4c5.4-15.8,5-18.7,9.1-23.3C1005.5-611.8,1013.1-607.1,1013.9-593.5z"/>
<path class="st4" d="M1753.7-409.4c0,0,4.2,27.4,13.1,35.9c8.9,8.4,5.9,9.3,0,12.2c-5.9,3-22.8,9.3-45.6,0
	c-22.8-9.3-82.7-42.6-92.4-53.6c0,0,0.4-16.9-3-27.4c-3.4-10.6-6.7-18.6-13.5-16.5c-6.8,2.1-3.8,14.3,0,23.2
	c3.8,8.9-32.9-34.4-40.5-23.5c-7.6,10.9,9.7,20.2,13.1,21c3.4,0.8-40.9-18.6-40.5-1.7c0.4,16.9,23.2,15.2,27.9,16
	c4.6,0.8-31.2-0.4-27.9,12.2c3.4,12.7,21.5,6.7,27.4,6.7c5.9,0-27,14.4-17.7,24.1c9.3,9.7,20.7-0.8,27-2.1
	c6.3-1.3,46.8,41.8,68.4,56.6c21.5,14.8,60.8,29.6,78.9,32.5c18.1,2.9,32.5,11.4,41.3,33.8c8.9,22.4,26.6,52.8-3.8,117.4
	c-30.4,64.6-27,67.5-32.9,80.6c-5.9,13.1-18.6,22.4-28.3,23.2c-9.7,0.9-37.1,6.8-11.4,30.4c25.7,23.6,83.5,36.7,89.6,17.7
	c6.2-19,1.1-18.6-2.3-21.5c-3.4-3-1.9-6.8,5.2-13.9c7.1-7.2,63.6-160.8,69.1-178.1c5.5-17.3,11-27.2,26.6-17
	c15.6,10.2,151.1,73.6,181.5,78.2c0,0-4.7,19,8,24.5c12.7,5.5,29.1-8,38-30.4c8.9-22.4,12.7-32.1,13.9-40.1c1.3-8-1.7-23.2-24.9-9.3
	c-23.2,13.9-24.1,17.3-43.9,5.9c-19.8-11.4-76.8-42.2-84.4-46.9c-7.6-4.7-56.1-38.9-59.5-61.2c-3.4-22.4,2.5-28.7,13.9-43
	c11.4-14.3,32.1-41.8,41.3-58.3c9.3-16.5,19.4-53.2,20.3-59.1c0.8-5.9,26.6-2.5,30-15.6c3.4-13.1-10.1-12.2-19-10.1
	c-8.9,2.1,21.5-9.3,12.7-19c-8.9-9.7-25.7,10.1-28.3,13.1c-2.5,3,23.6-23.6,12.7-30.8c-11-7.2-21.1,14.8-24.5,21.1
	c-3.4,6.3,12.2-25.7-6.3-27.4c-18.6-1.7-12.2,21.1-13.1,29.6c-0.9,8.4-6.3-23.2-19-15.2c-12.7,8,0.4,27.8,8,33.1
	c7.6,5.3-40.9,61-47.7,67.8c-6.8,6.7-20.3,29.1-37.2,37.1c-16.9,8-30.4,0.4-31.2-13.1c-0.8-13.5-6.8-68-43.5-65.9
	C1742.8-454.2,1753.7-409.4,1753.7-409.4z"/>
<path class="st5" d="M2717.1-550.9c0,0-29.5-2.4-28,7.6c1.5,10,18.9,8.3,21.8,8.4c2.9,0.1-27.4-3.6-27.8,9
	c-0.4,12.6,19.7,7.6,25,6.8c5.3-0.8-26.4,0.9-25.3,10.1c1.1,9.3,19.4,5.4,27.2,4.2c7.8-1.2-27.9,0.9-25,10.6
	c2.9,9.6,22.5,7.2,29.1,7.6c6.6,0.4,21.6,14.5,4.9,17.3c-16.7,2.8-30.9,0.1-28.4,12.6c2.5,12.5,17.2,10,25.9,6.6
	c8.6-3.3,15.8,8.5,17.7,13.1c1.8,4.6,22.6,42-3.7,72.2c-26.3,30.2-50,20.4-57.5,3c-7.5-17.4,0.8-49.8,1-57.5
	c0.3-7.7,1.7-42-29.7-43.2c-31.3-1.3-46.5,26.7-49.5,52.3c-3,25.6-8.9,50.7-14.1,57.8c-5.2,7.1-15.2,24-33.6,13.6
	c-18.4-10.4-22.3-24.9-20.3-38.3c2-13.4,7.1-30.8,12.8-40.2c5.7-9.4,16-22.4,19.7-26.4c3.7-4,4.3-5.8,10.7-6.8
	c6.4-1,34.2-8,31.2-22.4c-3-14.4-16.8-3.5-19-3.1c-2.2,0.3-18.2,10.2-20.1-1c-2-11.1,4-16.9,21.7-15c17.7,1.9,30.5,3.7,30.3-8.9
	c-0.2-12.5-24-6.1-27.2-5.9c-3.1,0.2,33.7-1.7,35.3-15.6c1.6-13.9-30.2-1.7-35,0.7c-4.8,2.4,36-10.9,32.4-20
	c-3.7-9.2-32.7-1.1-35.4,3.9c-2.7,5,37.9-15.4,30.9-24.4c-7.1-8.9-37.7,4-48.1,12.4c-10.4,8.4-47.1,47.4-55.3,68.9
	c-8.2,21.5-25.8,39-36,54.5c-10.2,15.5-31.4,55.3-20.3,88.7c11.1,33.5,25.7,39.6,51,60c25.4,20.4,37.9,39.4,42.4,78.7
	c4.5,39.3,9.2,100.6,11.9,120.4c2.7,19.9,6.5,43,3.3,54c-3.2,11.1-13.6,51.8-14.3,60.2c-0.7,8.4-4.4,23.8,4.2,25.9
	c8.6,2.1,16-3.6,41.9-36.3c25.9-32.8,20.3-56.8,18.9-77.4c-1.4-20.6-2.1-116.5-0.6-136.4c1.6-19.9,15.9-31,20.1,0.4
	c4.1,31.3,8.4,92.7,9.3,110.5c0.9,17.9,3.9,55.9,9.9,65.3c5.9,9.4,15.3,22.2,20.3,27.5c5.1,5.2,16.5,14.9,22.5,16.9
	c6,2,15,2.9,11.4-24.6c-3.6-27.5-17.1-69.7-18.7-80.6c-1.7-10.9-6.2-79-5.6-97.9c0.6-18.9,2.4-42.7,3.1-49.4
	c0.7-6.7-3.3-16.3,26.5-38.3c29.8-21.9,61.5-54.1,75-82.1c13.5-28,19-65,13.9-104.5c-5.1-39.5-32.6-68.2-45.5-82
	C2743.4-540.7,2729-549.2,2717.1-550.9z"/>
<path class="st2" d="M3449-572.4c0,0-51-10.5-65.3,40.5c-14.3,51-12.9,78.9-31.3,97.9c-18.4,19-41.7,61.3-21.8,122.4
	c19.4,59.5,7.7,72.4-9.2,121.7c-18.9,55.1-9.6,151.5,22.1,186.3c0,0-32.7,14.3-20.4,34c12.2,19.7,78.9-17,84.3-21.8
	c5.4-4.7,42.2-13.5-8.5-119.5c0,0-12.7-23.5-7.8-70.9c4.8-46.9,10.9-52.5,15-55.6c6.9-5.1,17-6.3,24.5,8.7
	c7.5,15,25.8,58.5,32.6,65.3c6.8,6.8,23.1,32.6,65.3,21.7c42.2-10.9,86.4-29.9,101.3-80.9c0,0,30.6,16.3,39.5-0.7
	c8.8-17-12.9-36.7-23.1-44.2c-10.2-7.5-53.1-55.8-95.2,19.7c-42.2,75.5-69.2,1.4-79.6-16.3c-8.8-15-43.5-94.5-14.3-91.8
	c29.3,2.7,61.9,22.4,161.9,10.2c0,0,45.5,10.6,52.3-2.6c6.9-13.3-12-18.9-14.5-19.9c-2.6-1,34.2,7.9,37-6.4
	c2.9-15-29.8-18.4-34.7-18.4c-4.9,0,39.8-0.7,39.8-16.8c0-17.9-33.1-11.5-38-9.7c-4.9,1.8,32.1-8.7,27.8-22.2
	c-4.3-13.5-41.3,3.8-44.9,5.9c-3.6,2,17.1-15.8,7.9-27c-9.2-11.2-30.8,14.3-35.9,21.9c-5.1,7.7-41.9,23.4-69.6,28.8
	c-25.3,5-48-0.6-64.3-6.9c-14-5.4-26.6-12.3-14.5-40.8c11.5-27,26-46.4,19.4-82.1C3483.3-560.1,3464-568.5,3449-572.4z"/>
<path class="st1" d="M4465.4-191.1c0,0-25.2-21.2-34.4,17.7c-9.2,39-10.9,63.6-53.3,103.8c-42.4,40.1-55,41.3-59,43.6
	c-4,2.3-1.1,22.9-21.8,40.1c-20.6,17.2-53.3,20.7-57.9-7.4c-4.6-28.1,9.2-44.2,28.1-57.9c18.9-13.7,59.6-55,75.1-99.7
	c15.5-44.7,35-116.3,35-143.9c0-27.5-1.7-47-16.6-28.6c-14.9,18.4-16.6,33.8-37.3,41.8c-20.6,8-34.4,10.9-45.8,21.2
	c-11.5,10.3-28.7,24.9-30.4,25.5c-1.7,0.6-10.3,12.3-19.5,6.6c-9.2-5.7-2.9-13.3,0.6-21.3c3.4-8-12.2,11.9-18.9,15.6
	c-12.9,7.2-22.9-1.7-17.8-13.8c5.2-12,16.1-15.8,19.5-17.5c3.4-1.8-35.5,13.9-38.8,0.8c-3.2-12.8,12.7-19.8,25.9-21.5
	c13.2-1.7-28.1,4.5-28.3-11.7c-0.2-16.6,21.2-15.5,33.2-10.9c0,0-17.1-9.9-6-19.2c6.9-5.7,23.8,7.8,37.6,6.6
	c13.7-1.1,59.9-6.3,70.2-53.3c10.3-47,64.5-68.8,77.6-71.6c0,0-28.1-91.1,12-108.9c40.1-17.8,49.9,5.7,53.9,35.5
	c4,29.8,2.9,69.4,36.7,57.3c33.8-12,53.3-22.9,64.2-29.2c10.9-6.3,14.3-25.2,6.3-30.9c0,0-9.7-5.6-11.9,7.6
	c-2.1,13.2-4.3,15.5-11.5,13.2c-7.2-2.3-7.9-14-5.7-17.3c2.2-3.3-16.2,29.6-28.9,17.8c-12.8-11.9,14.3-27.2,15.3-27.9
	c1-0.7-28,18.1-33.4,4.9c-5.4-13.2,24.2-17.8,25.9-18.6c1.7-0.9-34.7,8.9-33.2-2.9c1.4-11.8,27.1-14.5,28.4-14.8
	c1.3-0.3-31.1,4.9-28.1-9c3-13.9,51.1-19.5,66.2-17c15.1,2.4,45.6,21.5,55.9,36.7c10.3,15.2,31.9,52,19.5,79.9
	c0,0-6.9,18.7-39.5,44.5c-32.7,25.8-46.4,39.8-48.2,81.6c-1.7,41.9-2,47.8,5.2,77.9c7.2,30.1,25.1,39.1,33.1,47.4
	c8,8.3,37.9,36.7,28.7,77.2c-9.5,42.1-29.5,75.3-31.5,78.8c-2,3.4,41.1,11.3,50.7,23.2c11.8,14.5-3.1,30.5-31.8,30.9
	c-26.2,0.3-72.5,0.6-68.2-47C4516.7-103,4531.3-160.1,4465.4-191.1z"/>
<g>
	<path class="st1" d="M5571.9-392.6c0,0-7.3-6.1-9.9,5.1c-2.6,11.2-3.1,18.3-15.3,29.9c-12.2,11.6-15.8,11.9-17,12.5
		c-1.2,0.7-0.3,6.6-6.3,11.6c-5.9,5-15.3,5.9-16.7-2.1c-1.3-8.1,2.6-12.7,8.1-16.7c5.4-4,17.2-15.8,21.6-28.7
		c4.5-12.9,10.1-33.5,10.1-41.4c0-7.9-0.5-13.5-4.8-8.2c-4.3,5.3-4.8,9.7-10.7,12c-5.9,2.3-9.9,3.1-13.2,6.1c-3.3,3-8.2,7.2-8.7,7.3
		c-0.5,0.2-3,3.5-5.6,1.9c-2.6-1.7-0.8-3.8,0.2-6.1c1-2.3-3.5,3.4-5.4,4.5c-3.7,2.1-6.6-0.5-5.1-4c1.5-3.5,4.6-4.5,5.6-5
		c1-0.5-10.2,4-11.2,0.2c-0.9-3.7,3.7-5.7,7.4-6.2c3.8-0.5-8.1,1.3-8.1-3.4c0-4.8,6.1-4.4,9.6-3.1c0,0-4.9-2.9-1.7-5.5
		c2-1.7,6.8,2.2,10.8,1.9c4-0.3,17.2-1.8,20.2-15.3c3-13.5,18.6-19.8,22.4-20.6c0,0-8.1-26.2,3.5-31.4c11.6-5.1,14.4,1.7,15.5,10.2
		c1.2,8.6,0.8,20,10.6,16.5c9.7-3.5,15.3-6.6,18.5-8.4c3.1-1.8,4.1-7.3,1.8-8.9c0,0-2.8-1.6-3.4,2.2c-0.6,3.8-1.2,4.5-3.3,3.8
		c-2.1-0.7-2.3-4-1.7-5c0.6-1-4.7,8.5-8.3,5.1c-3.7-3.4,4.1-7.8,4.4-8c0.3-0.2-8,5.2-9.6,1.4c-1.6-3.8,7-5.1,7.5-5.4
		c0.5-0.2-10,2.6-9.6-0.8c0.4-3.4,7.8-4.2,8.2-4.3c0.4-0.1-9,1.4-8.1-2.6c0.9-4,14.7-5.6,19.1-4.9c4.3,0.7,13.1,6.2,16.1,10.6
		c3,4.4,9.2,15,5.6,23c0,0-2,5.4-11.4,12.8c-9.4,7.4-13.4,11.5-13.9,23.5c-0.5,12-0.6,13.8,1.5,22.4c2.1,8.7,7.2,11.2,9.5,13.6
		c2.3,2.4,10.9,10.6,8.3,22.2c-2.7,12.1-8.5,21.7-9.1,22.7c-0.6,1,11.8,3.3,14.6,6.7c3.4,4.2-0.9,8.8-9.2,8.9
		c-7.5,0.1-20.9,0.2-19.6-13.5C5586.6-367.3,5590.8-383.7,5571.9-392.6z"/>
	<path class="st1" d="M5627.9,10.2c0,0-7.3-6.1-9.9,5.1c-2.6,11.2-3.1,18.3-15.3,29.9c-12.2,11.6-15.8,11.9-17,12.5
		c-1.2,0.7-0.3,6.6-6.3,11.6c-5.9,5-15.3,5.9-16.7-2.1c-1.3-8.1,2.6-12.7,8.1-16.7c5.4-4,17.2-15.8,21.6-28.7
		c4.5-12.9,10.1-33.5,10.1-41.4c0-7.9-0.5-13.5-4.8-8.2c-4.3,5.3-4.8,9.7-10.7,12c-5.9,2.3-9.9,3.1-13.2,6.1c-3.3,3-8.3,7.2-8.7,7.3
		c-0.5,0.2-3,3.5-5.6,1.9c-2.6-1.7-0.8-3.8,0.2-6.1c1-2.3-3.5,3.4-5.4,4.5c-3.7,2.1-6.6-0.5-5.1-4c1.5-3.5,4.6-4.5,5.6-5
		c1-0.5-10.2,4-11.2,0.2c-0.9-3.7,3.7-5.7,7.4-6.2c3.8-0.5-8.1,1.3-8.1-3.4c0-4.8,6.1-4.5,9.6-3.1c0,0-4.9-2.9-1.7-5.5
		c2-1.6,6.8,2.2,10.8,1.9c4-0.3,17.2-1.8,20.2-15.4c3-13.5,18.6-19.8,22.4-20.6c0,0-8.1-26.2,3.5-31.3c11.5-5.1,14.4,1.6,15.5,10.2
		c1.2,8.6,0.8,20,10.6,16.5c9.7-3.5,15.3-6.6,18.5-8.4c3.1-1.8,4.1-7.3,1.8-8.9c0,0-2.8-1.6-3.4,2.2c-0.6,3.8-1.2,4.4-3.3,3.8
		c-2.1-0.7-2.3-4-1.6-5c0.6-1-4.7,8.5-8.3,5.1c-3.7-3.4,4.1-7.8,4.4-8c0.3-0.2-8,5.2-9.6,1.4c-1.6-3.8,7-5.1,7.5-5.4
		c0.5-0.3-10,2.6-9.6-0.8c0.4-3.4,7.8-4.2,8.2-4.3c0.4-0.1-8.9,1.4-8.1-2.6c0.9-4,14.7-5.6,19.1-4.9c4.3,0.7,13.1,6.2,16.1,10.6
		c3,4.4,9.2,15,5.6,23c0,0-2,5.4-11.4,12.8c-9.4,7.4-13.4,11.5-13.9,23.5c-0.5,12.1-0.6,13.8,1.5,22.4c2.1,8.7,7.2,11.2,9.5,13.6
		c2.3,2.4,10.9,10.6,8.3,22.2c-2.7,12.1-8.5,21.7-9.1,22.7c-0.6,1,11.8,3.2,14.6,6.7c3.4,4.2-0.9,8.8-9.2,8.9
		c-7.5,0.1-20.9,0.2-19.6-13.5C5642.6,35.5,5646.8,19.1,5627.9,10.2z"/>
	<path class="st2" d="M5351-441.7c0,0-13.6-2.8-17.4,10.8c-3.8,13.6-3.4,21.1-8.4,26.2c-4.9,5.1-11.1,16.4-5.8,32.7
		c5.2,15.9,2.1,19.3-2.5,32.5c-5,14.7-2.6,40.4,5.9,49.7c0,0-8.7,3.8-5.4,9.1c3.3,5.3,21.1-4.5,22.5-5.8c1.5-1.3,11.3-3.6-2.3-31.9
		c0,0-3.4-6.3-2.1-18.9c1.3-12.5,2.9-14,4-14.8c1.8-1.3,4.5-1.7,6.5,2.3c2,4,6.9,15.6,8.7,17.4c1.8,1.8,6.2,8.7,17.4,5.8
		c11.3-2.9,23.1-8,27.1-21.6c0,0,8.2,4.4,10.5-0.2c2.4-4.5-3.5-9.8-6.2-11.8c-2.7-2-14.2-14.9-25.4,5.3
		c-11.3,20.2-18.5,0.4-21.2-4.4c-2.4-4-11.6-25.2-3.8-24.5c7.8,0.7,16.5,6,43.2,2.7c0,0,12.1,2.8,14-0.7c1.8-3.5-3.2-5-3.9-5.3
		c-0.7-0.3,9.1,2.1,9.9-1.7c0.8-4-8-4.9-9.3-4.9s10.6-0.2,10.6-4.5c0-4.8-8.9-3.1-10.1-2.6c-1.3,0.5,8.6-2.3,7.4-5.9
		c-1.2-3.6-11,1-12,1.6c-1,0.5,4.6-4.2,2.1-7.2c-2.5-3-8.2,3.8-9.6,5.9c-1.4,2-11.2,6.2-18.6,7.7c-6.8,1.3-12.8-0.2-17.2-1.8
		c-3.7-1.4-7.1-3.3-3.9-10.9c3.1-7.2,6.9-12.4,5.2-21.9C5360.2-438.5,5355-440.7,5351-441.7z"/>
	<path class="st2" d="M5708.3-461.1c0,0-13.6-2.8-17.4,10.8c-3.8,13.6-3.5,21.1-8.4,26.1c-4.9,5.1-11.1,16.4-5.8,32.7
		c5.2,15.9,2.1,19.3-2.5,32.5c-5,14.7-2.6,40.4,5.9,49.7c0,0-8.7,3.8-5.4,9.1c3.3,5.3,21.1-4.5,22.5-5.8c1.5-1.3,11.3-3.6-2.3-31.9
		c0,0-3.4-6.3-2.1-18.9c1.3-12.5,2.9-14,4-14.8c1.8-1.3,4.5-1.7,6.5,2.3c2,4,6.9,15.6,8.7,17.4c1.8,1.8,6.2,8.7,17.4,5.8
		c11.3-2.9,23.1-8,27.1-21.6c0,0,8.2,4.4,10.5-0.2c2.4-4.5-3.4-9.8-6.2-11.8c-2.7-2-14.2-14.9-25.4,5.3
		c-11.3,20.2-18.5,0.4-21.2-4.4c-2.4-4-11.6-25.2-3.8-24.5c7.8,0.7,16.5,6,43.2,2.7c0,0,12.1,2.8,14-0.7c1.8-3.5-3.2-5-3.9-5.3
		c-0.7-0.3,9.1,2.1,9.9-1.7c0.8-4-8-4.9-9.3-4.9c-1.3,0,10.6-0.2,10.6-4.5c0-4.8-8.8-3.1-10.1-2.6c-1.3,0.5,8.6-2.3,7.4-5.9
		c-1.2-3.6-11,1-12,1.6c-1,0.5,4.6-4.2,2.1-7.2c-2.5-3-8.2,3.8-9.6,5.9c-1.4,2-11.2,6.2-18.6,7.7c-6.8,1.3-12.8-0.2-17.2-1.8
		c-3.7-1.4-7.1-3.3-3.9-10.9c3.1-7.2,6.9-12.4,5.2-21.9C5717.5-457.8,5712.3-460.1,5708.3-461.1z"/>
	<path class="st2" d="M5629.9-730.2c0,0-13.6-2.8-17.4,10.8c-3.8,13.6-3.4,21.1-8.4,26.2c-4.9,5.1-11.1,16.4-5.8,32.7
		c5.2,15.9,2.1,19.3-2.5,32.5c-5,14.7-2.6,40.4,5.9,49.8c0,0-8.7,3.8-5.5,9.1c3.3,5.3,21.1-4.5,22.5-5.8c1.5-1.3,11.3-3.6-2.3-31.9
		c0,0-3.4-6.3-2.1-18.9c1.3-12.5,2.9-14,4-14.8c1.8-1.4,4.5-1.7,6.5,2.3c2,4,6.9,15.6,8.7,17.4c1.8,1.8,6.2,8.7,17.4,5.8
		c11.3-2.9,23.1-8,27.1-21.6c0,0,8.2,4.4,10.5-0.2c2.4-4.5-3.5-9.8-6.2-11.8c-2.7-2-14.2-14.9-25.4,5.3
		c-11.3,20.2-18.5,0.4-21.2-4.4c-2.4-4-11.6-25.2-3.8-24.5c7.8,0.7,16.5,6,43.2,2.7c0,0,12.1,2.8,14-0.7c1.8-3.5-3.2-5-3.9-5.3
		c-0.7-0.3,9.1,2.1,9.9-1.7c0.8-4-8-4.9-9.3-4.9c-1.3,0,10.6-0.2,10.6-4.5c0-4.8-8.8-3.1-10.1-2.6c-1.3,0.5,8.6-2.3,7.4-5.9
		c-1.2-3.6-11,1-12,1.6c-1,0.5,4.6-4.2,2.1-7.2c-2.5-3-8.2,3.8-9.6,5.9c-1.4,2-11.2,6.2-18.6,7.7c-6.8,1.3-12.8-0.2-17.2-1.8
		c-3.7-1.4-7.1-3.3-3.9-10.9c3.1-7.2,6.9-12.4,5.2-21.9C5639.1-726.9,5633.9-729.1,5629.9-730.2z"/>
	<path class="st3" d="M5251.8-237.4c0,0-1.1,4.6,1.2,4.5c2.4-0.1,3-3.1,4.2-7.3c1.2-4.2,2.8-9.4,5.9-8.2c3.1,1.2,3,7.2,0.9,9.9
		c-2.1,2.7,4.3-9.7,8-6.3c3.7,3.3-2.2,8.3-3.7,9.8c-1.5,1.5,7.3-9.3,10.3-4c3,5.3-6.7,8.1-7.8,8.7c-1.1,0.6,7.4-2.2,8.4,2.8
		c0.9,5.1-9.1,6.3-11,6.3c0,0,0.7,11.4-0.4,20.5c-1.1,9.2-2.7,18.4-11.4,23.4c-8.7,4.9-17.1,10.5-5,20.2
		c12.1,9.7,15.5,11.5,17.3,12.9c1.9,1.4,7.3,5.6,6.2,16.6c-1.1,11-4.1,13-1.2,16.3c2.8,3.3,3.5,5.9,1.5,8.7c-2,2.7-7.4,3.7-11.5,1.7
		c-4.1-2-8.2-7.3-8.9-8.4c-0.7-1.1-2.5-4.1-0.2-8.5c2.2-4.5,1.5-8-3-13.4c-4.5-5.3-19.6-12.1-14.6,2.3c4.9,14.5,7.1,37.5,7.8,46.2
		c0.7,8.7,0.7,7.1,1,10.9c0.3,3.8,5.2,9.9-1.4,13.2c-6.6,3.3-16.4,3.5-21.3,2.8c-4.9-0.6-7.9-1.5-9.5-3.6c-1.6-2.1-0.9-5.3,0.7-7.1
		c1.6-1.7,6.2-4.3,7.2-5.2c1-0.9-3.7-47.3-4.6-54c-0.9-6.7-2.5-18.2-4.2-22.3c-1.7-4.1-3.9-8.9-9.9-4.8c-5.9,4.1-6.6,9-9.2,14.5
		c-2.6,5.5-4.7,8.5-6.9,10.9c-2.2,2.3-12.9,7.1-14.4,7.2c-1.5,0.1-9.2,1.7-15-2.3c-5.8-4.1-9-11.1-7.8-13.3c1.2-2.1,6.2,2.7,7.8,4.6
		c1.6,1.9-6.6-6.1-3.1-9.8c3.5-3.7,6.9,5,7.7,5.4c0.7,0.5-3.7-8.2-1.4-9.5c2.4-1.4,5.8,4.3,6.6,5.8c0.7,1.5-3.6-7.9,0.7-8.7
		c4.3-0.7,4.5,6.1,4.5,6.1s-2.8-15.7,1.1-21.5c4-5.8,6.9-12.7,19.7-17.2c12.7-4.5,11.3-4,11.5-4.8c0.2-0.9-2.2-1.4-3.7-8.2
		c-1.5-6.8-1.4-12.9-0.4-16.3c1-3.5,5.9-7.3,10.9-6.8c5,0.5,6.3,2.1,7.9,4.8c1.6,2.7,3.4,6.7,4.8,12c1.4,5.3,4.2,9.5,10.6,8
		c6.4-1.5,16.1-5.4,15.6-14.1c-0.5-8.7-1.7-12.6-3.7-14.6c-2-2-3.1-9.4-1.5-14.1c1.6-4.7,1.5-5.6,2.7-6.9
		C5249.4-242.8,5251.6-241.4,5251.8-237.4z"/>
	<path class="st3" d="M5494.9-659.3c0,0-1.1,4.6,1.2,4.5c2.3-0.1,3-3.1,4.2-7.3c1.2-4.2,2.9-9.4,5.9-8.2c3.1,1.2,3,7.2,0.9,9.9
		c-2.1,2.7,4.3-9.7,8-6.3c3.7,3.3-2.2,8.3-3.7,9.8c-1.5,1.5,7.3-9.3,10.3-4c3,5.3-6.7,8-7.8,8.7c-1.1,0.6,7.4-2.2,8.4,2.8
		c0.9,5.1-9.1,6.3-11,6.3c0,0,0.7,11.4-0.4,20.5c-1.1,9.2-2.7,18.4-11.4,23.4c-8.7,4.9-17.1,10.5-5,20.2
		c12.1,9.7,15.5,11.5,17.3,12.9c1.9,1.4,7.3,5.6,6.2,16.6c-1.1,11-4.1,13-1.2,16.3c2.8,3.3,3.5,5.9,1.5,8.7c-2,2.7-7.4,3.7-11.5,1.7
		c-4.1-2-8.2-7.3-8.9-8.4c-0.7-1.1-2.5-4.1-0.3-8.5c2.2-4.5,1.5-8-3-13.4c-4.5-5.3-19.6-12.1-14.6,2.4c4.9,14.5,7.1,37.5,7.8,46.2
		c0.7,8.7,0.7,7.1,1,10.9c0.2,3.8,5.2,9.9-1.4,13.2c-6.6,3.3-16.4,3.5-21.3,2.8c-4.9-0.6-7.9-1.5-9.5-3.6c-1.6-2.1-0.9-5.3,0.7-7.1
		c1.6-1.7,6.2-4.3,7.2-5.2c1-0.9-3.7-47.3-4.6-54c-0.9-6.7-2.5-18.2-4.2-22.3c-1.7-4.1-3.9-8.9-9.9-4.8c-5.9,4.1-6.6,9-9.2,14.5
		c-2.6,5.4-4.7,8.5-6.9,10.9c-2.2,2.4-12.9,7.1-14.4,7.2c-1.5,0.1-9.2,1.7-15-2.4c-5.8-4.1-9-11.1-7.8-13.2c1.2-2.1,6.2,2.7,7.8,4.6
		c1.6,1.9-6.6-6.1-3.1-9.8c3.5-3.7,6.9,5,7.7,5.4c0.7,0.5-3.7-8.2-1.4-9.5c2.4-1.4,5.8,4.3,6.6,5.8c0.7,1.5-3.6-7.9,0.7-8.7
		c4.3-0.7,4.5,6.1,4.5,6.1s-2.8-15.7,1.1-21.5c4-5.8,6.9-12.7,19.7-17.2c12.7-4.5,11.3-4,11.5-4.8c0.2-0.9-2.2-1.4-3.7-8.2
		c-1.5-6.8-1.4-12.9-0.4-16.3c1-3.5,5.9-7.3,10.9-6.8c4.9,0.5,6.3,2.1,7.9,4.8c1.6,2.7,3.5,6.7,4.8,12c1.4,5.3,4.2,9.5,10.6,8
		c6.4-1.5,16.1-5.4,15.6-14.1c-0.5-8.7-1.7-12.6-3.7-14.6c-2-2-3.1-9.4-1.5-14.1c1.6-4.7,1.5-5.6,2.7-6.9
		C5492.4-664.7,5494.7-663.3,5494.9-659.3z"/>
	<path class="st4" d="M5539.3-253.5c0,0,1.4,9.3,4.5,12.2c3,2.9,2,3.2,0,4.2c-2,1-7.8,3.2-15.5,0c-7.8-3.2-28.2-14.5-31.5-18.2
		c0,0,0.1-5.7-1-9.3c-1.2-3.6-2.3-6.3-4.6-5.6c-2.3,0.7-1.3,4.9,0,7.9c1.3,3-11.2-11.7-13.8-8c-2.6,3.7,3.3,6.9,4.5,7.2
		c1.1,0.3-13.9-6.3-13.8-0.6c0.1,5.8,7.9,5.2,9.5,5.5c1.6,0.3-10.6-0.1-9.5,4.2c1.2,4.3,7.3,2.3,9.3,2.3c2,0-9.2,4.9-6,8.2
		c3.2,3.3,7-0.3,9.2-0.7c2.2-0.4,16,14.2,23.3,19.3c7.3,5,20.7,10.1,26.9,11.1c6.2,1,11.1,3.9,14.1,11.5c3,7.6,9.1,18-1.3,39.9
		c-10.3,22-9.2,23-11.2,27.4c-2,4.5-6.3,7.6-9.6,7.9c-3.3,0.3-12.6,2.3-3.9,10.3c8.8,8,28.4,12.5,30.5,6c2.1-6.5,0.4-6.3-0.8-7.3
		c-1.2-1-0.6-2.3,1.8-4.7c2.4-2.4,21.7-54.7,23.5-60.6c1.9-5.9,3.7-9.3,9.1-5.8c5.3,3.5,51.4,25,61.8,26.6c0,0-1.6,6.5,2.7,8.3
		c4.3,1.9,9.9-2.7,12.9-10.3c3-7.6,4.3-10.9,4.7-13.7c0.4-2.7-0.6-7.9-8.5-3.2c-7.9,4.7-8.2,5.9-14.9,2
		c-6.8-3.9-26.2-14.4-28.7-15.9c-2.6-1.6-19.1-13.2-20.3-20.8c-1.2-7.6,0.9-9.8,4.7-14.7c3.9-4.9,10.9-14.2,14.1-19.8
		c3.2-5.6,6.6-18.1,6.9-20.1c0.3-2,9-0.9,10.2-5.3c1.2-4.5-3.4-4.2-6.5-3.5c-3,0.7,7.3-3.2,4.3-6.5c-3-3.3-8.8,3.4-9.6,4.5
		c-0.9,1,8-8,4.3-10.5c-3.7-2.4-7.2,5-8.3,7.2c-1.1,2.2,4.2-8.8-2.2-9.3c-6.3-0.6-4.2,7.2-4.5,10.1c-0.3,2.9-2.2-7.9-6.5-5.2
		c-4.3,2.7,0.1,9.5,2.7,11.3c2.6,1.8-13.9,20.8-16.2,23.1c-2.3,2.3-6.9,9.9-12.6,12.6c-5.7,2.7-10.3,0.1-10.6-4.4
		c-0.3-4.6-2.3-23.1-14.8-22.4C5535.5-268.7,5539.3-253.5,5539.3-253.5z"/>
	<path class="st4" d="M5214-579.7c0,0,1.4,9.3,4.4,12.2c3,2.9,2,3.2,0,4.2c-2,1-7.8,3.2-15.5,0c-7.8-3.2-28.2-14.5-31.5-18.2
		c0,0,0.1-5.8-1-9.3c-1.1-3.6-2.3-6.3-4.6-5.6c-2.3,0.7-1.3,4.9,0,7.9c1.3,3-11.2-11.7-13.8-8c-2.6,3.7,3.3,6.9,4.5,7.2
		c1.1,0.3-13.9-6.3-13.8-0.6c0.1,5.7,7.9,5.2,9.5,5.5c1.6,0.3-10.6-0.1-9.5,4.2c1.1,4.3,7.3,2.3,9.3,2.3c2,0-9.2,4.9-6,8.2
		c3.2,3.3,7-0.3,9.2-0.7c2.2-0.4,15.9,14.2,23.3,19.3c7.3,5,20.7,10.1,26.9,11.1c6.2,1,11.1,3.9,14.1,11.5c3,7.6,9.1,18-1.3,40
		c-10.3,22-9.2,23-11.2,27.4c-2,4.4-6.3,7.6-9.6,7.9c-3.3,0.3-12.6,2.3-3.9,10.3c8.8,8,28.4,12.5,30.5,6c2.1-6.5,0.4-6.3-0.8-7.3
		c-1.2-1-0.6-2.3,1.8-4.7c2.4-2.4,21.7-54.7,23.5-60.6c1.9-5.9,3.7-9.3,9.1-5.8c5.3,3.5,51.4,25,61.8,26.6c0,0-1.6,6.5,2.7,8.3
		c4.3,1.9,9.9-2.7,12.9-10.3c3-7.6,4.3-10.9,4.7-13.7c0.4-2.7-0.6-7.9-8.5-3.2c-7.9,4.7-8.2,5.9-14.9,2c-6.7-3.9-26.1-14.4-28.7-16
		c-2.6-1.6-19.1-13.2-20.3-20.8c-1.2-7.6,0.9-9.8,4.7-14.6c3.9-4.9,10.9-14.2,14.1-19.8c3.2-5.6,6.6-18.1,6.9-20.1
		c0.3-2,9-0.9,10.2-5.3c1.2-4.5-3.5-4.2-6.5-3.5c-3,0.7,7.3-3.2,4.3-6.5c-3-3.3-8.8,3.5-9.6,4.5c-0.9,1,8.1-8,4.3-10.5
		c-3.7-2.4-7.2,5-8.3,7.2c-1.2,2.2,4.2-8.8-2.2-9.3c-6.3-0.6-4.2,7.2-4.5,10.1c-0.3,2.9-2.2-7.9-6.5-5.2c-4.3,2.7,0.1,9.5,2.7,11.3
		c2.6,1.8-13.9,20.8-16.2,23.1c-2.3,2.3-6.9,9.9-12.6,12.7c-5.8,2.7-10.3,0.1-10.6-4.5c-0.3-4.6-2.3-23.1-14.8-22.4
		C5210.2-594.9,5214-579.7,5214-579.7z"/>
	<path class="st5" d="M5426.8-225.8c0,0-9-0.7-8.5,2.3c0.5,3.1,5.8,2.5,6.7,2.6c0.9,0-8.4-1.1-8.5,2.8c-0.1,3.8,6,2.3,7.6,2.1
		c1.6-0.2-8.1,0.3-7.7,3.1c0.3,2.8,5.9,1.6,8.3,1.3c2.4-0.4-8.5,0.3-7.6,3.2c0.9,2.9,6.9,2.2,8.9,2.3c2,0.1,6.6,4.4,1.5,5.3
		c-5.1,0.9-9.4,0-8.7,3.8c0.8,3.8,5.3,3,7.9,2c2.6-1,4.8,2.6,5.4,4c0.6,1.4,6.9,12.8-1.1,22.1c-8,9.2-15.3,6.2-17.6,0.9
		c-2.3-5.3,0.2-15.2,0.3-17.6c0.1-2.4,0.5-12.8-9.1-13.2c-9.6-0.4-14.2,8.2-15.1,16c-0.9,7.8-2.7,15.5-4.3,17.7
		c-1.6,2.2-4.7,7.3-10.3,4.2c-5.6-3.2-6.8-7.6-6.2-11.7c0.6-4.1,2.2-9.4,3.9-12.3c1.7-2.9,4.9-6.8,6-8.1c1.1-1.2,1.3-1.8,3.3-2.1
		c2-0.3,10.4-2.4,9.5-6.8c-0.9-4.4-5.1-1.1-5.8-1c-0.7,0.1-5.5,3.1-6.1-0.3c-0.6-3.4,1.2-5.2,6.6-4.6c5.4,0.6,9.3,1.1,9.3-2.7
		c-0.1-3.8-7.3-1.9-8.3-1.8c-1,0.1,10.3-0.5,10.8-4.8c0.5-4.3-9.2-0.5-10.7,0.2c-1.5,0.7,11-3.3,9.9-6.1c-1.1-2.8-10-0.3-10.8,1.2
		c-0.8,1.5,11.6-4.7,9.4-7.4c-2.2-2.7-11.5,1.2-14.7,3.8c-3.2,2.6-14.4,14.5-16.9,21c-2.5,6.6-7.9,11.9-11,16.7
		c-3.1,4.7-9.6,16.9-6.2,27.1c3.4,10.2,7.8,12.1,15.6,18.3c7.7,6.2,11.6,12,13,24c1.4,12,2.8,30.7,3.6,36.8c0.8,6.1,2,13.1,1,16.5
		c-1,3.4-4.2,15.8-4.4,18.4c-0.2,2.6-1.3,7.3,1.3,7.9c2.6,0.7,4.9-1.1,12.8-11.1c7.9-10,6.2-17.3,5.8-23.6
		c-0.4-6.3-0.7-35.6-0.2-41.7c0.5-6.1,4.9-9.5,6.1,0.1c1.3,9.6,2.6,28.3,2.8,33.8c0.3,5.4,1.2,17.1,3,20c1.8,2.9,4.7,6.8,6.2,8.4
		c1.5,1.6,5,4.6,6.9,5.2c1.8,0.6,4.6,0.9,3.5-7.5c-1.1-8.4-5.2-21.3-5.7-24.6c-0.5-3.3-1.9-24.1-1.7-29.9c0.2-5.8,0.7-13,1-15.1
		c0.2-2-1-5,8.1-11.7c9.1-6.7,18.8-16.5,22.9-25.1c4.1-8.6,5.8-19.8,4.3-31.9c-1.6-12.1-9.9-20.8-13.9-25
		C5434.9-222.7,5430.5-225.3,5426.8-225.8z"/>
	<path class="st5" d="M5393.2-807.9c0,0-9-0.7-8.5,2.3c0.5,3.1,5.8,2.5,6.7,2.6c0.9,0-8.4-1.1-8.5,2.8c-0.1,3.9,6,2.3,7.6,2.1
		c1.6-0.2-8.1,0.3-7.7,3.1c0.3,2.8,5.9,1.6,8.3,1.3c2.4-0.4-8.5,0.3-7.6,3.2c0.9,2.9,6.9,2.2,8.9,2.3c2,0.1,6.6,4.4,1.5,5.3
		c-5.1,0.9-9.4,0-8.7,3.8c0.8,3.8,5.3,3,7.9,2c2.6-1,4.8,2.6,5.4,4c0.6,1.4,6.9,12.8-1.1,22.1c-8,9.2-15.3,6.2-17.6,0.9
		c-2.3-5.3,0.2-15.2,0.3-17.6c0.1-2.4,0.5-12.8-9.1-13.2c-9.6-0.4-14.2,8.2-15.1,16c-0.9,7.8-2.7,15.5-4.3,17.7
		c-1.6,2.2-4.7,7.3-10.3,4.2c-5.6-3.2-6.8-7.6-6.2-11.7c0.6-4.1,2.2-9.4,3.9-12.3c1.7-2.9,4.9-6.8,6-8.1c1.1-1.2,1.3-1.8,3.3-2.1
		c2-0.3,10.4-2.4,9.5-6.8c-0.9-4.4-5.1-1.1-5.8-1c-0.7,0.1-5.5,3.1-6.1-0.3c-0.6-3.4,1.2-5.2,6.6-4.6c5.4,0.6,9.3,1.1,9.3-2.7
		c-0.1-3.8-7.3-1.9-8.3-1.8c-1,0.1,10.3-0.5,10.8-4.8c0.5-4.3-9.2-0.5-10.7,0.2c-1.5,0.7,11-3.3,9.9-6.1c-1.1-2.8-10-0.3-10.8,1.2
		c-0.8,1.5,11.6-4.7,9.4-7.4c-2.2-2.7-11.5,1.2-14.7,3.8c-3.2,2.6-14.4,14.5-16.9,21c-2.5,6.6-7.9,11.9-11,16.7
		c-3.1,4.7-9.6,16.9-6.2,27.1c3.4,10.2,7.8,12.1,15.6,18.3c7.7,6.2,11.6,12,13,24c1.4,12,2.8,30.7,3.6,36.8c0.8,6.1,2,13.1,1,16.5
		c-1,3.4-4.2,15.8-4.4,18.4c-0.2,2.6-1.3,7.3,1.3,7.9c2.6,0.6,4.9-1.1,12.8-11.1c7.9-10,6.2-17.3,5.8-23.6
		c-0.4-6.3-0.7-35.6-0.2-41.7c0.5-6.1,4.9-9.5,6.1,0.1c1.3,9.6,2.6,28.3,2.8,33.8c0.3,5.5,1.2,17.1,3,20c1.8,2.9,4.7,6.8,6.2,8.4
		c1.5,1.6,5,4.6,6.9,5.2c1.8,0.6,4.6,0.9,3.5-7.5c-1.1-8.4-5.2-21.3-5.7-24.6c-0.5-3.3-1.9-24.1-1.7-29.9c0.2-5.8,0.7-13,1-15.1
		c0.2-2-1-5,8.1-11.7c9.1-6.7,18.8-16.5,22.9-25.1c4.1-8.6,5.8-19.8,4.3-31.9c-1.6-12.1-9.9-20.8-13.9-25
		C5401.3-804.8,5396.9-807.4,5393.2-807.9z"/>
	<path class="st3" d="M5293.7-26.5c0,0-20.5-0.8-19.7,9.7c0.8,10.5,13.3,25.6,21.3,16.6C5303.4-9.2,5305.4-27.8,5293.7-26.5z"/>
	<path class="st3" d="M5557-699.5c0,0-20.5-0.8-19.7,9.7c0.8,10.5,13.3,25.6,21.3,16.6C5566.7-682.2,5568.6-700.8,5557-699.5z"/>
	<path class="st3" d="M5234.2-704.6c0,0-20.5-0.8-19.7,9.7c0.8,10.5,13.3,25.6,21.3,16.6C5243.8-687.2,5245.8-705.8,5234.2-704.6z"
		/>
	<path class="st3" d="M5345.6-602.9c0,0-20.5-0.8-19.7,9.7c0.8,10.5,13.3,25.6,21.3,16.6C5355.2-585.6,5357.2-604.2,5345.6-602.9z"
		/>
	<path class="st3" d="M5664.7-239c0,0-20.5-0.8-19.7,9.7c0.8,10.5,13.3,25.6,21.3,16.6C5674.4-221.7,5676.4-240.3,5664.7-239z"/>
	<path class="st3" d="M5710-128.7c0,0-20.5-0.8-19.7,9.7c0.8,10.5,13.3,25.6,21.3,16.7C5719.6-111.4,5721.6-130,5710-128.7z"/>
	<path class="st3" d="M5487.7-103.8c0,0-20.5-0.8-19.7,9.7c0.8,10.5,13.3,25.6,21.3,16.6C5497.4-86.5,5499.4-105.1,5487.7-103.8z"/>
	<path class="st3" d="M5299.1-444.3c0,0-20.5-0.8-19.7,9.7c0.8,10.5,13.3,25.6,21.3,16.6C5308.7-427,5310.7-445.6,5299.1-444.3z"/>
	<path class="st4" d="M5292.8-431.9c0,0-23-4-23,13.7c0,17.7,3.6,14.9,8.9,18.9c5.2,4,14.9-2.8,17.3-12.5
		C5298.5-421.5,5300.5-431.6,5292.8-431.9z"/>
	<path class="st4" d="M5424-301.1c0,0-23-4-23,13.7c0,17.7,3.6,14.9,8.9,18.9c5.2,4,14.9-2.8,17.3-12.5
		C5429.6-290.6,5431.7-300.8,5424-301.1z"/>
	<path class="st4" d="M5715.3-545.3c0,0-10.8-13.3-19.4-3.5c-8.5,9.8-5.2,10-4.2,14.8c1,4.8,9.6,5.6,15.6,1.4
		C5713.3-536.7,5719.4-541.4,5715.3-545.3z"/>
	<path class="st4" d="M5329.3-96c0,0-16.9-2.9-16.9,10.1c0,13,2.7,10.9,6.5,13.9c3.9,3,11-2.1,12.7-9.2
		C5333.4-88.3,5334.9-95.8,5329.3-96z"/>
	<path class="st4" d="M5238.2-317.5c0,0-25.6-4.4-25.6,15.3c0,19.7,4,16.6,9.9,21.1c5.8,4.5,16.6-3.1,19.3-13.9
		C5244.5-305.9,5246.7-317.2,5238.2-317.5z"/>
</g>
<rect x="-1628.2" y="-352.9" class="st6" width="227.8" height="19.1"/>
<text transform="matrix(1 0 0 1 -1628.1743 -341.6103)" class="st3 st8 st9 st10">Creative Arts &amp; Education</text>
<rect x="-1628.2" y="-388" class="st6" width="227.8" height="32.3"/>
<text transform="matrix(1 0 0 1 -1628.1743 -362.6396)" class="st3 st11 st12" style="letter-spacing:11;">ANYONCE</text>
<g>
	<g>
		<path class="st1" d="M-680.5-406.8c0,0-1.6-1.3-2.2,1.1c-0.6,2.5-0.7,4-3.4,6.6c-2.7,2.5-3.5,2.6-3.8,2.8
			c-0.3,0.1-0.1,1.5-1.4,2.5c-1.3,1.1-3.4,1.3-3.7-0.5c-0.3-1.8,0.6-2.8,1.8-3.7c1.2-0.9,3.8-3.5,4.8-6.3c1-2.8,2.2-7.4,2.2-9.1
			c0-1.8-0.1-3-1.1-1.8c-0.9,1.2-1.1,2.1-2.4,2.7c-1.3,0.5-2.2,0.7-2.9,1.3c-0.7,0.7-1.8,1.6-1.9,1.6c-0.1,0-0.7,0.8-1.2,0.4
			c-0.6-0.4-0.2-0.8,0-1.4c0.2-0.5-0.8,0.8-1.2,1c-0.8,0.5-1.5-0.1-1.1-0.9c0.3-0.8,1-1,1.2-1.1c0.2-0.1-2.3,0.9-2.5,0.1
			c-0.2-0.8,0.8-1.3,1.6-1.4c0.8-0.1-1.8,0.3-1.8-0.7c0-1.1,1.3-1,2.1-0.7c0,0-1.1-0.6-0.4-1.2c0.4-0.4,1.5,0.5,2.4,0.4
			c0.9-0.1,3.8-0.4,4.5-3.4c0.7-3,4.1-4.4,4.9-4.6c0,0-1.8-5.8,0.8-6.9c2.6-1.1,3.2,0.4,3.4,2.3c0.3,1.9,0.2,4.4,2.3,3.6
			c2.1-0.8,3.4-1.5,4.1-1.9c0.7-0.4,0.9-1.6,0.4-2c0,0-0.6-0.4-0.8,0.5c-0.1,0.8-0.3,1-0.7,0.8c-0.5-0.1-0.5-0.9-0.4-1.1
			c0.1-0.2-1,1.9-1.8,1.1c-0.8-0.8,0.9-1.7,1-1.8c0.1,0-1.8,1.1-2.1,0.3c-0.3-0.8,1.5-1.1,1.6-1.2c0.1-0.1-2.2,0.6-2.1-0.2
			c0.1-0.7,1.7-0.9,1.8-0.9c0.1,0-2,0.3-1.8-0.6c0.2-0.9,3.3-1.2,4.2-1.1c1,0.2,2.9,1.4,3.6,2.3c0.7,1,2,3.3,1.2,5.1
			c0,0-0.4,1.2-2.5,2.8c-2.1,1.6-3,2.5-3.1,5.2c-0.1,2.7-0.1,3,0.3,5c0.5,1.9,1.6,2.5,2.1,3c0.5,0.5,2.4,2.3,1.8,4.9
			c-0.6,2.7-1.9,4.8-2,5c-0.1,0.2,2.6,0.7,3.2,1.5c0.7,0.9-0.2,1.9-2,2c-1.7,0-4.6,0-4.3-3C-677.2-401.2-676.3-404.8-680.5-406.8z"
			/>
		<path class="st1" d="M-668.1-317.9c0,0-1.6-1.3-2.2,1.1c-0.6,2.5-0.7,4-3.4,6.6c-2.7,2.6-3.5,2.6-3.8,2.8
			c-0.3,0.1-0.1,1.5-1.4,2.6c-1.3,1.1-3.4,1.3-3.7-0.5c-0.3-1.8,0.6-2.8,1.8-3.7c1.2-0.9,3.8-3.5,4.8-6.3c1-2.8,2.2-7.4,2.2-9.1
			c0-1.7-0.1-3-1.1-1.8c-0.9,1.2-1.1,2.1-2.4,2.7c-1.3,0.5-2.2,0.7-2.9,1.3c-0.7,0.7-1.8,1.6-1.9,1.6c-0.1,0-0.7,0.8-1.2,0.4
			c-0.6-0.4-0.2-0.8,0-1.4c0.2-0.5-0.8,0.8-1.2,1c-0.8,0.5-1.5-0.1-1.1-0.9c0.3-0.8,1-1,1.2-1.1c0.2-0.1-2.3,0.9-2.5,0.1
			c-0.2-0.8,0.8-1.3,1.6-1.4c0.8-0.1-1.8,0.3-1.8-0.7c0-1.1,1.3-1,2.1-0.7c0,0-1.1-0.6-0.4-1.2c0.4-0.4,1.5,0.5,2.4,0.4
			c0.9-0.1,3.8-0.4,4.5-3.4c0.7-3,4.1-4.4,4.9-4.6c0,0-1.8-5.8,0.8-6.9c2.5-1.1,3.2,0.4,3.4,2.3c0.3,1.9,0.2,4.4,2.3,3.6
			c2.1-0.8,3.4-1.5,4.1-1.9c0.7-0.4,0.9-1.6,0.4-2c0,0-0.6-0.4-0.8,0.5c-0.1,0.8-0.3,1-0.7,0.8c-0.5-0.1-0.5-0.9-0.4-1.1
			c0.1-0.2-1,1.9-1.8,1.1c-0.8-0.8,0.9-1.7,1-1.8c0.1,0-1.8,1.1-2.1,0.3c-0.3-0.8,1.5-1.1,1.6-1.2c0.1-0.1-2.2,0.6-2.1-0.2
			c0.1-0.7,1.7-0.9,1.8-0.9c0.1,0-2,0.3-1.8-0.6c0.2-0.9,3.3-1.2,4.2-1.1c1,0.2,2.9,1.4,3.6,2.3c0.7,1,2,3.3,1.2,5.1
			c0,0-0.4,1.2-2.5,2.8c-2.1,1.6-3,2.5-3.1,5.2c-0.1,2.7-0.1,3,0.3,5c0.5,1.9,1.6,2.5,2.1,3c0.5,0.5,2.4,2.3,1.8,4.9
			c-0.6,2.7-1.9,4.8-2,5c-0.1,0.2,2.6,0.7,3.2,1.5c0.7,0.9-0.2,1.9-2,2c-1.7,0-4.6,0-4.3-3C-664.9-312.3-664-315.9-668.1-317.9z"/>
		<path class="st2" d="M-729.3-417.6c0,0-3-0.6-3.8,2.4c-0.8,3-0.8,4.7-1.8,5.8c-1.1,1.1-2.5,3.6-1.3,7.2c1.1,3.5,0.5,4.3-0.5,7.2
			c-1.1,3.2-0.6,8.9,1.3,11c0,0-1.9,0.8-1.2,2c0.7,1.2,4.7-1,5-1.3c0.3-0.3,2.5-0.8-0.5-7c0,0-0.7-1.4-0.5-4.2
			c0.3-2.8,0.6-3.1,0.9-3.3c0.4-0.3,1-0.4,1.4,0.5c0.4,0.9,1.5,3.4,1.9,3.8c0.4,0.4,1.4,1.9,3.8,1.3c2.5-0.6,5.1-1.8,6-4.8
			c0,0,1.8,1,2.3,0c0.5-1-0.8-2.2-1.4-2.6c-0.6-0.4-3.1-3.3-5.6,1.2c-2.5,4.5-4.1,0.1-4.7-1c-0.5-0.9-2.6-5.6-0.8-5.4
			c1.7,0.2,3.6,1.3,9.5,0.6c0,0,2.7,0.6,3.1-0.2c0.4-0.8-0.7-1.1-0.9-1.2c-0.2-0.1,2,0.5,2.2-0.4c0.2-0.9-1.8-1.1-2-1.1
			c-0.3,0,2.3,0,2.3-1c0-1.1-2-0.7-2.2-0.6c-0.3,0.1,1.9-0.5,1.6-1.3c-0.3-0.8-2.4,0.2-2.6,0.3c-0.2,0.1,1-0.9,0.5-1.6
			c-0.5-0.7-1.8,0.8-2.1,1.3c-0.3,0.5-2.5,1.4-4.1,1.7c-1.5,0.3-2.8,0-3.8-0.4c-0.8-0.3-1.6-0.7-0.9-2.4c0.7-1.6,1.5-2.7,1.1-4.8
			C-727.2-416.9-728.4-417.4-729.3-417.6z"/>
		<path class="st2" d="M-650.4-421.9c0,0-3-0.6-3.8,2.4c-0.8,3-0.8,4.7-1.8,5.8c-1.1,1.1-2.5,3.6-1.3,7.2c1.1,3.5,0.5,4.3-0.5,7.2
			c-1.1,3.2-0.6,8.9,1.3,11c0,0-1.9,0.8-1.2,2c0.7,1.2,4.7-1,5-1.3c0.3-0.3,2.5-0.8-0.5-7c0,0-0.7-1.4-0.5-4.2
			c0.3-2.8,0.6-3.1,0.9-3.3c0.4-0.3,1-0.4,1.4,0.5c0.4,0.9,1.5,3.4,1.9,3.8c0.4,0.4,1.4,1.9,3.8,1.3c2.5-0.6,5.1-1.8,6-4.8
			c0,0,1.8,1,2.3,0c0.5-1-0.8-2.2-1.4-2.6c-0.6-0.4-3.1-3.3-5.6,1.2c-2.5,4.5-4.1,0.1-4.7-1c-0.5-0.9-2.6-5.6-0.8-5.4
			c1.7,0.2,3.6,1.3,9.5,0.6c0,0,2.7,0.6,3.1-0.2c0.4-0.8-0.7-1.1-0.9-1.2c-0.1-0.1,2,0.5,2.2-0.4c0.2-0.9-1.8-1.1-2-1.1
			c-0.3,0,2.3,0,2.3-1c0-1.1-2-0.7-2.2-0.6c-0.3,0.1,1.9-0.5,1.6-1.3c-0.3-0.8-2.4,0.2-2.6,0.3c-0.2,0.1,1-0.9,0.5-1.6
			c-0.5-0.7-1.8,0.8-2.1,1.3c-0.3,0.5-2.5,1.4-4.1,1.7c-1.5,0.3-2.8,0-3.8-0.4c-0.8-0.3-1.6-0.7-0.9-2.4c0.7-1.6,1.5-2.7,1.1-4.8
			C-648.4-421.2-649.5-421.7-650.4-421.9z"/>
		<path class="st2" d="M-667.7-481.3c0,0-3-0.6-3.8,2.4c-0.8,3-0.8,4.6-1.8,5.8c-1.1,1.1-2.5,3.6-1.3,7.2c1.1,3.5,0.5,4.3-0.5,7.2
			c-1.1,3.2-0.6,8.9,1.3,11c0,0-1.9,0.8-1.2,2c0.7,1.2,4.7-1,5-1.3c0.3-0.3,2.5-0.8-0.5-7c0,0-0.7-1.4-0.5-4.2
			c0.3-2.8,0.6-3.1,0.9-3.3c0.4-0.3,1-0.4,1.4,0.5c0.4,0.9,1.5,3.4,1.9,3.8s1.4,1.9,3.8,1.3c2.5-0.6,5.1-1.8,6-4.8c0,0,1.8,1,2.3,0
			c0.5-1-0.8-2.2-1.4-2.6c-0.6-0.4-3.1-3.3-5.6,1.2c-2.5,4.4-4.1,0.1-4.7-1c-0.5-0.9-2.6-5.6-0.8-5.4c1.7,0.2,3.6,1.3,9.5,0.6
			c0,0,2.7,0.6,3.1-0.2c0.4-0.8-0.7-1.1-0.9-1.2c-0.2-0.1,2,0.5,2.2-0.4c0.2-0.9-1.8-1.1-2-1.1c-0.3,0,2.3,0,2.3-1
			c0-1.1-2-0.7-2.2-0.6c-0.3,0.1,1.9-0.5,1.6-1.3c-0.3-0.8-2.4,0.2-2.6,0.3c-0.2,0.1,1-0.9,0.5-1.6c-0.5-0.7-1.8,0.8-2.1,1.3
			c-0.3,0.5-2.5,1.4-4.1,1.7c-1.5,0.3-2.8,0-3.8-0.4c-0.8-0.3-1.6-0.7-0.9-2.4c0.7-1.6,1.5-2.7,1.1-4.8
			C-665.7-480.6-666.8-481.1-667.7-481.3z"/>
		<path class="st3" d="M-751.2-372.5c0,0-0.2,1,0.3,1c0.5,0,0.7-0.7,0.9-1.6c0.3-0.9,0.6-2.1,1.3-1.8c0.7,0.3,0.7,1.6,0.2,2.2
			c-0.5,0.6,1-2.1,1.8-1.4c0.8,0.7-0.5,1.8-0.8,2.2c-0.3,0.3,1.6-2,2.3-0.9c0.7,1.2-1.5,1.8-1.7,1.9c-0.2,0.1,1.6-0.5,1.8,0.6
			c0.2,1.1-2,1.4-2.4,1.4c0,0,0.2,2.5-0.1,4.5c-0.2,2-0.6,4.1-2.5,5.2c-1.9,1.1-3.8,2.3-1.1,4.5c2.7,2.1,3.4,2.5,3.8,2.8
			c0.4,0.3,1.6,1.2,1.4,3.7c-0.2,2.4-0.9,2.9-0.3,3.6c0.6,0.7,0.8,1.3,0.3,1.9c-0.4,0.6-1.6,0.8-2.5,0.4c-0.9-0.4-1.8-1.6-2-1.9
			c-0.2-0.2-0.5-0.9-0.1-1.9c0.5-1,0.3-1.8-0.7-2.9c-1-1.2-4.3-2.7-3.2,0.5c1.1,3.2,1.6,8.3,1.7,10.2c0.2,1.9,0.2,1.6,0.2,2.4
			c0.1,0.8,1.1,2.2-0.3,2.9c-1.4,0.7-3.6,0.8-4.7,0.6c-1.1-0.1-1.7-0.3-2.1-0.8c-0.4-0.5-0.2-1.2,0.2-1.6c0.4-0.4,1.4-1,1.6-1.1
			c0.2-0.2-0.8-10.4-1-11.9c-0.2-1.5-0.6-4-0.9-4.9c-0.4-0.9-0.9-2-2.2-1.1c-1.3,0.9-1.4,2-2,3.2c-0.6,1.2-1,1.9-1.5,2.4
			c-0.5,0.5-2.8,1.6-3.2,1.6c-0.3,0-2,0.4-3.3-0.5c-1.3-0.9-2-2.5-1.7-2.9c0.3-0.5,1.4,0.6,1.7,1c0.4,0.4-1.4-1.3-0.7-2.2
			c0.8-0.8,1.5,1.1,1.7,1.2c0.2,0.1-0.8-1.8-0.3-2.1c0.5-0.3,1.3,1,1.4,1.3c0.2,0.3-0.8-1.7,0.2-1.9c1-0.2,1,1.3,1,1.3
			s-0.6-3.5,0.2-4.8c0.9-1.3,1.5-2.8,4.3-3.8c2.8-1,2.5-0.9,2.5-1.1c0.1-0.2-0.5-0.3-0.8-1.8c-0.3-1.5-0.3-2.8-0.1-3.6
			c0.2-0.8,1.3-1.6,2.4-1.5c1.1,0.1,1.4,0.5,1.8,1.1c0.4,0.6,0.8,1.5,1.1,2.6c0.3,1.2,0.9,2.1,2.3,1.8c1.4-0.3,3.6-1.2,3.4-3.1
			c-0.1-1.9-0.4-2.8-0.8-3.2c-0.4-0.4-0.7-2.1-0.3-3.1c0.4-1,0.3-1.2,0.6-1.5C-751.7-373.7-751.2-373.4-751.2-372.5z"/>
		<path class="st3" d="M-697.5-465.7c0,0-0.2,1,0.3,1c0.5,0,0.7-0.7,0.9-1.6c0.3-0.9,0.6-2.1,1.3-1.8c0.7,0.3,0.7,1.6,0.2,2.2
			c-0.5,0.6,1-2.1,1.8-1.4c0.8,0.7-0.5,1.8-0.8,2.2c-0.3,0.3,1.6-2,2.3-0.9c0.7,1.2-1.5,1.8-1.7,1.9c-0.2,0.1,1.6-0.5,1.8,0.6
			c0.2,1.1-2,1.4-2.4,1.4c0,0,0.2,2.5-0.1,4.5c-0.2,2-0.6,4.1-2.5,5.2c-1.9,1.1-3.8,2.3-1.1,4.5c2.7,2.1,3.4,2.5,3.8,2.8
			c0.4,0.3,1.6,1.2,1.4,3.7c-0.2,2.4-0.9,2.9-0.3,3.6c0.6,0.7,0.8,1.3,0.3,1.9c-0.4,0.6-1.6,0.8-2.5,0.4c-0.9-0.4-1.8-1.6-2-1.9
			c-0.2-0.2-0.5-0.9-0.1-1.9c0.5-1,0.3-1.8-0.7-3c-1-1.2-4.3-2.7-3.2,0.5c1.1,3.2,1.6,8.3,1.7,10.2c0.2,1.9,0.2,1.6,0.2,2.4
			c0.1,0.8,1.1,2.2-0.3,2.9c-1.4,0.7-3.6,0.8-4.7,0.6c-1.1-0.1-1.7-0.3-2.1-0.8c-0.4-0.5-0.2-1.2,0.2-1.6c0.4-0.4,1.4-1,1.6-1.1
			c0.2-0.2-0.8-10.4-1-11.9c-0.2-1.5-0.6-4-0.9-4.9c-0.4-0.9-0.9-2-2.2-1.1c-1.3,0.9-1.4,2-2,3.2c-0.6,1.2-1,1.9-1.5,2.4
			c-0.5,0.5-2.8,1.6-3.2,1.6c-0.3,0-2,0.4-3.3-0.5c-1.3-0.9-2-2.5-1.7-2.9c0.3-0.5,1.4,0.6,1.7,1c0.4,0.4-1.4-1.3-0.7-2.2
			c0.8-0.8,1.5,1.1,1.7,1.2c0.2,0.1-0.8-1.8-0.3-2.1c0.5-0.3,1.3,1,1.4,1.3c0.2,0.3-0.8-1.7,0.2-1.9c1-0.2,1,1.3,1,1.3
			s-0.6-3.5,0.2-4.8c0.9-1.3,1.5-2.8,4.3-3.8c2.8-1,2.5-0.9,2.5-1.1c0.1-0.2-0.5-0.3-0.8-1.8c-0.3-1.5-0.3-2.8-0.1-3.6
			c0.2-0.8,1.3-1.6,2.4-1.5c1.1,0.1,1.4,0.5,1.8,1.1c0.4,0.6,0.8,1.5,1.1,2.7c0.3,1.2,0.9,2.1,2.3,1.8c1.4-0.3,3.6-1.2,3.4-3.1
			c-0.1-1.9-0.4-2.8-0.8-3.2c-0.4-0.4-0.7-2.1-0.3-3.1c0.4-1,0.3-1.2,0.6-1.5C-698-466.9-697.5-466.6-697.5-465.7z"/>
		<path class="st4" d="M-687.7-376.1c0,0,0.3,2.1,1,2.7c0.7,0.6,0.4,0.7,0,0.9c-0.4,0.2-1.7,0.7-3.4,0s-6.2-3.2-6.9-4
			c0,0,0-1.3-0.2-2.1c-0.3-0.8-0.5-1.4-1-1.2c-0.5,0.2-0.3,1.1,0,1.7c0.3,0.7-2.5-2.6-3-1.8c-0.6,0.8,0.7,1.5,1,1.6
			c0.3,0.1-3.1-1.4-3-0.1c0,1.3,1.7,1.1,2.1,1.2c0.3,0.1-2.3,0-2.1,0.9c0.3,1,1.6,0.5,2.1,0.5s-2,1.1-1.3,1.8c0.7,0.7,1.6-0.1,2-0.2
			c0.5-0.1,3.5,3.1,5.1,4.2c1.6,1.1,4.6,2.2,5.9,2.4c1.4,0.2,2.4,0.9,3.1,2.5c0.7,1.7,2,4-0.3,8.8c-2.3,4.9-2,5.1-2.5,6.1
			c-0.4,1-1.4,1.7-2.1,1.7c-0.7,0.1-2.8,0.5-0.9,2.3c1.9,1.8,6.3,2.8,6.7,1.3c0.5-1.4,0.1-1.4-0.2-1.6c-0.3-0.2-0.1-0.5,0.4-1
			c0.5-0.5,4.8-12.1,5.2-13.4c0.4-1.3,0.8-2,2-1.3c1.2,0.8,11.4,5.5,13.6,5.9c0,0-0.3,1.4,0.6,1.8c1,0.4,2.2-0.6,2.9-2.3
			c0.7-1.7,1-2.4,1-3c0.1-0.6-0.1-1.7-1.9-0.7c-1.7,1-1.8,1.3-3.3,0.4c-1.5-0.9-5.8-3.2-6.3-3.5c-0.6-0.3-4.2-2.9-4.5-4.6
			c-0.3-1.7,0.2-2.2,1-3.2c0.9-1.1,2.4-3.1,3.1-4.4c0.7-1.2,1.5-4,1.5-4.4c0.1-0.4,2-0.2,2.3-1.2c0.3-1-0.8-0.9-1.4-0.8
			c-0.7,0.2,1.6-0.7,1-1.4c-0.7-0.7-1.9,0.8-2.1,1c-0.2,0.2,1.8-1.8,1-2.3c-0.8-0.5-1.6,1.1-1.8,1.6c-0.3,0.5,0.9-1.9-0.5-2.1
			c-1.4-0.1-0.9,1.6-1,2.2c-0.1,0.6-0.5-1.7-1.4-1.1c-1,0.6,0,2.1,0.6,2.5c0.6,0.4-3.1,4.6-3.6,5.1c-0.5,0.5-1.5,2.2-2.8,2.8
			c-1.3,0.6-2.3,0-2.3-1c-0.1-1-0.5-5.1-3.3-4.9C-688.5-379.4-687.7-376.1-687.7-376.1z"/>
		<path class="st4" d="M-759.5-448.1c0,0,0.3,2.1,1,2.7c0.7,0.6,0.4,0.7,0,0.9c-0.4,0.2-1.7,0.7-3.4,0c-1.7-0.7-6.2-3.2-6.9-4
			c0,0,0-1.3-0.2-2.1s-0.5-1.4-1-1.2c-0.5,0.2-0.3,1.1,0,1.7c0.3,0.7-2.5-2.6-3-1.8c-0.6,0.8,0.7,1.5,1,1.6c0.3,0.1-3.1-1.4-3-0.1
			c0,1.3,1.7,1.1,2.1,1.2c0.3,0.1-2.3,0-2.1,0.9c0.3,1,1.6,0.5,2.1,0.5c0.4,0-2,1.1-1.3,1.8c0.7,0.7,1.6-0.1,2-0.2
			c0.5-0.1,3.5,3.1,5.1,4.2c1.6,1.1,4.6,2.2,5.9,2.4c1.4,0.2,2.4,0.9,3.1,2.5c0.7,1.7,2,4-0.3,8.8c-2.3,4.9-2,5.1-2.5,6.1
			c-0.4,1-1.4,1.7-2.1,1.7c-0.7,0.1-2.8,0.5-0.9,2.3c1.9,1.8,6.3,2.8,6.7,1.3c0.5-1.4,0.1-1.4-0.2-1.6c-0.3-0.2-0.1-0.5,0.4-1
			c0.5-0.5,4.8-12.1,5.2-13.4c0.4-1.3,0.8-2,2-1.3c1.2,0.8,11.4,5.5,13.6,5.9c0,0-0.3,1.4,0.6,1.8c1,0.4,2.2-0.6,2.9-2.3
			c0.7-1.7,1-2.4,1-3c0.1-0.6-0.1-1.7-1.9-0.7c-1.7,1-1.8,1.3-3.3,0.4c-1.5-0.9-5.8-3.2-6.3-3.5c-0.6-0.3-4.2-2.9-4.5-4.6
			c-0.3-1.7,0.2-2.2,1-3.2c0.9-1.1,2.4-3.1,3.1-4.4c0.7-1.2,1.5-4,1.5-4.4c0.1-0.4,2-0.2,2.3-1.2c0.3-1-0.8-0.9-1.4-0.8
			c-0.7,0.2,1.6-0.7,1-1.4c-0.7-0.7-1.9,0.8-2.1,1c-0.2,0.2,1.8-1.8,1-2.3c-0.8-0.5-1.6,1.1-1.8,1.6c-0.3,0.5,0.9-1.9-0.5-2.1
			c-1.4-0.1-0.9,1.6-1,2.2c-0.1,0.6-0.5-1.7-1.4-1.1c-1,0.6,0,2.1,0.6,2.5c0.6,0.4-3.1,4.6-3.6,5.1c-0.5,0.5-1.5,2.2-2.8,2.8
			c-1.3,0.6-2.3,0-2.3-1c-0.1-1-0.5-5.1-3.3-4.9C-760.3-451.4-759.5-448.1-759.5-448.1z"/>
		<path class="st5" d="M-712.5-370c0,0-2-0.2-1.9,0.5c0.1,0.7,1.3,0.6,1.5,0.6c0.2,0-1.8-0.2-1.9,0.6c0,0.8,1.3,0.5,1.7,0.5
			c0.4-0.1-1.8,0.1-1.7,0.7c0.1,0.6,1.3,0.4,1.8,0.3c0.5-0.1-1.9,0.1-1.7,0.7c0.2,0.7,1.5,0.5,2,0.5c0.4,0,1.5,1,0.3,1.2
			c-1.1,0.2-2.1,0-1.9,0.8c0.2,0.8,1.2,0.7,1.7,0.4c0.6-0.2,1.1,0.6,1.2,0.9c0.1,0.3,1.5,2.8-0.2,4.9c-1.8,2-3.4,1.4-3.9,0.2
			c-0.5-1.2,0.1-3.4,0.1-3.9c0-0.5,0.1-2.8-2-2.9c-2.1-0.1-3.1,1.8-3.3,3.5c-0.2,1.7-0.6,3.4-1,3.9c-0.4,0.5-1,1.6-2.3,0.9
			c-1.2-0.7-1.5-1.7-1.4-2.6c0.1-0.9,0.5-2.1,0.9-2.7c0.4-0.6,1.1-1.5,1.3-1.8c0.2-0.3,0.3-0.4,0.7-0.5c0.4-0.1,2.3-0.5,2.1-1.5
			c-0.2-1-1.1-0.2-1.3-0.2c-0.2,0-1.2,0.7-1.4-0.1c-0.1-0.8,0.3-1.1,1.5-1c1.2,0.1,2.1,0.2,2-0.6c0-0.8-1.6-0.4-1.8-0.4
			c-0.2,0,2.3-0.1,2.4-1.1c0.1-0.9-2-0.1-2.4,0c-0.3,0.2,2.4-0.7,2.2-1.3c-0.2-0.6-2.2-0.1-2.4,0.3c-0.2,0.3,2.6-1,2.1-1.6
			c-0.5-0.6-2.5,0.3-3.2,0.8c-0.7,0.6-3.2,3.2-3.7,4.6c-0.6,1.5-1.7,2.6-2.4,3.7c-0.7,1-2.1,3.7-1.4,6c0.7,2.3,1.7,2.7,3.4,4
			c1.7,1.4,2.6,2.7,2.9,5.3c0.3,2.6,0.6,6.8,0.8,8.1c0.2,1.3,0.4,2.9,0.2,3.6c-0.2,0.7-0.9,3.5-1,4.1c0,0.6-0.3,1.6,0.3,1.7
			c0.6,0.1,1.1-0.2,2.8-2.4c1.7-2.2,1.4-3.8,1.3-5.2c-0.1-1.4-0.1-7.9,0-9.2c0.1-1.3,1.1-2.1,1.4,0c0.3,2.1,0.6,6.2,0.6,7.5
			c0.1,1.2,0.3,3.8,0.7,4.4c0.4,0.6,1,1.5,1.4,1.9c0.3,0.4,1.1,1,1.5,1.1c0.4,0.1,1,0.2,0.8-1.7c-0.2-1.9-1.2-4.7-1.3-5.4
			c-0.1-0.7-0.4-5.3-0.4-6.6c0-1.3,0.2-2.9,0.2-3.3c0-0.5-0.2-1.1,1.8-2.6c2-1.5,4.1-3.6,5.1-5.5c0.9-1.9,1.3-4.4,0.9-7
			c-0.3-2.7-2.2-4.6-3.1-5.5C-710.7-369.3-711.7-369.8-712.5-370z"/>
		<path class="st5" d="M-719.9-498.5c0,0-2-0.2-1.9,0.5c0.1,0.7,1.3,0.6,1.5,0.6c0.2,0-1.8-0.2-1.9,0.6c0,0.9,1.3,0.5,1.7,0.5
			c0.4-0.1-1.8,0.1-1.7,0.7c0.1,0.6,1.3,0.4,1.8,0.3c0.5-0.1-1.9,0.1-1.7,0.7c0.2,0.6,1.5,0.5,2,0.5c0.4,0,1.5,1,0.3,1.2
			c-1.1,0.2-2.1,0-1.9,0.8c0.2,0.8,1.2,0.7,1.7,0.4c0.6-0.2,1.1,0.6,1.2,0.9c0.1,0.3,1.5,2.8-0.2,4.9c-1.8,2-3.4,1.4-3.9,0.2
			c-0.5-1.2,0.1-3.4,0.1-3.9c0-0.5,0.1-2.8-2-2.9c-2.1-0.1-3.1,1.8-3.3,3.5c-0.2,1.7-0.6,3.4-1,3.9c-0.4,0.5-1,1.6-2.3,0.9
			c-1.2-0.7-1.5-1.7-1.4-2.6c0.1-0.9,0.5-2.1,0.9-2.7c0.4-0.6,1.1-1.5,1.3-1.8c0.2-0.3,0.3-0.4,0.7-0.5c0.4-0.1,2.3-0.5,2.1-1.5
			c-0.2-1-1.1-0.2-1.3-0.2c-0.2,0-1.2,0.7-1.4-0.1c-0.1-0.8,0.3-1.1,1.5-1c1.2,0.1,2.1,0.2,2-0.6c0-0.8-1.6-0.4-1.8-0.4
			c-0.2,0,2.3-0.1,2.4-1.1c0.1-0.9-2-0.1-2.4,0c-0.3,0.2,2.4-0.7,2.2-1.3c-0.2-0.6-2.2-0.1-2.4,0.3c-0.2,0.3,2.6-1,2.1-1.6
			c-0.5-0.6-2.5,0.3-3.2,0.8c-0.7,0.6-3.2,3.2-3.7,4.6c-0.6,1.5-1.7,2.6-2.4,3.7c-0.7,1-2.1,3.7-1.4,6c0.7,2.3,1.7,2.7,3.4,4
			c1.7,1.4,2.6,2.7,2.9,5.3c0.3,2.6,0.6,6.8,0.8,8.1c0.2,1.3,0.4,2.9,0.2,3.6c-0.2,0.7-0.9,3.5-1,4.1c0,0.6-0.3,1.6,0.3,1.7
			c0.6,0.1,1.1-0.2,2.8-2.4c1.7-2.2,1.4-3.8,1.3-5.2c-0.1-1.4-0.1-7.9,0-9.2c0.1-1.3,1.1-2.1,1.4,0c0.3,2.1,0.6,6.2,0.6,7.5
			c0.1,1.2,0.3,3.8,0.7,4.4c0.4,0.6,1,1.5,1.4,1.9c0.3,0.4,1.1,1,1.5,1.1c0.4,0.1,1,0.2,0.8-1.7c-0.2-1.9-1.2-4.7-1.3-5.4
			c-0.1-0.7-0.4-5.3-0.4-6.6c0-1.3,0.2-2.9,0.2-3.3c0-0.4-0.2-1.1,1.8-2.6c2-1.5,4.1-3.6,5.1-5.5c0.9-1.9,1.3-4.4,0.9-7
			c-0.3-2.7-2.2-4.6-3.1-5.5C-718.2-497.8-719.1-498.4-719.9-498.5z"/>
		<path class="st3" d="M-741.9-326c0,0-4.5-0.2-4.4,2.1c0.2,2.3,2.9,5.7,4.7,3.7C-739.8-322.1-739.3-326.2-741.9-326z"/>
		<path class="st3" d="M-683.8-474.5c0,0-4.5-0.2-4.4,2.1c0.2,2.3,2.9,5.7,4.7,3.7C-681.7-470.7-681.2-474.8-683.8-474.5z"/>
		<path class="st3" d="M-755.1-475.7c0,0-4.5-0.2-4.4,2.1c0.2,2.3,2.9,5.7,4.7,3.7C-752.9-471.8-752.5-475.9-755.1-475.7z"/>
		<path class="st3" d="M-730.5-453.2c0,0-4.5-0.2-4.4,2.1c0.2,2.3,2.9,5.7,4.7,3.7C-728.3-449.4-727.9-453.5-730.5-453.2z"/>
		<path class="st3" d="M-660-372.9c0,0-4.5-0.2-4.4,2.1c0.2,2.3,2.9,5.7,4.7,3.7C-657.9-369.1-657.4-373.2-660-372.9z"/>
		<path class="st3" d="M-650-348.5c0,0-4.5-0.2-4.4,2.1c0.2,2.3,2.9,5.7,4.7,3.7C-647.9-344.7-647.4-348.8-650-348.5z"/>
		<path class="st3" d="M-699.1-343c0,0-4.5-0.2-4.4,2.1c0.2,2.3,2.9,5.7,4.7,3.7C-697-339.2-696.5-343.3-699.1-343z"/>
		<path class="st3" d="M-740.7-418.2c0,0-4.5-0.2-4.4,2.1c0.2,2.3,2.9,5.7,4.7,3.7C-738.6-414.4-738.2-418.5-740.7-418.2z"/>
		<path class="st4" d="M-742.1-415.5c0,0-5.1-0.9-5.1,3s0.8,3.3,2,4.2c1.2,0.9,3.3-0.6,3.8-2.8
			C-740.9-413.2-740.4-415.4-742.1-415.5z"/>
		<path class="st4" d="M-713.2-386.6c0,0-5.1-0.9-5.1,3c0,3.9,0.8,3.3,2,4.2c1.2,0.9,3.3-0.6,3.8-2.8
			C-711.9-384.3-711.5-386.5-713.2-386.6z"/>
		<path class="st4" d="M-648.8-440.5c0,0-2.4-2.9-4.3-0.8c-1.9,2.2-1.1,2.2-0.9,3.3c0.2,1.1,2.1,1.2,3.5,0.3
			C-649.3-438.6-647.9-439.6-648.8-440.5z"/>
		<path class="st4" d="M-734.1-341.3c0,0-3.7-0.6-3.7,2.2s0.6,2.4,1.4,3.1c0.8,0.7,2.4-0.5,2.8-2
			C-733.2-339.6-732.8-341.3-734.1-341.3z"/>
		<path class="st4" d="M-754.2-390.2c0,0-5.7-1-5.7,3.4c0,4.4,0.9,3.7,2.2,4.7c1.3,1,3.7-0.7,4.3-3.1
			C-752.8-387.6-752.3-390.1-754.2-390.2z"/>
	</g>
	<rect x="-796" y="-248.9" class="st6" width="181" height="15.2"/>
	<text transform="matrix(1 0 0 1 -795.9551 -239.9794)" class="st7 st8" style="font-size:11.1173px; letter-spacing:1;">Creative Arts &amp; Education</text>
	<rect x="-796" y="-276.8" class="st6" width="181" height="25.7"/>
	<text transform="matrix(1 0 0 1 -795.9551 -256.6874)" class="st7 st11" style="font-size:25px; letter-spacing:9;">ANYONCE</text>
</g>
<g>
	<g>
		<path class="st1" d="M56.4-369.4c0,0-1.1-1-1.5,0.8c-0.4,1.7-0.5,2.9-2.4,4.7c-1.9,1.8-2.5,1.9-2.6,2c-0.2,0.1-0.1,1-1,1.8
			c-0.9,0.8-2.4,0.9-2.6-0.3c-0.2-1.3,0.4-2,1.3-2.6c0.8-0.6,2.7-2.5,3.4-4.5c0.7-2,1.6-5.2,1.6-6.5c0-1.2-0.1-2.1-0.7-1.3
			c-0.7,0.8-0.7,1.5-1.7,1.9c-0.9,0.4-1.5,0.5-2.1,1c-0.5,0.5-1.3,1.1-1.4,1.1c-0.1,0-0.5,0.6-0.9,0.3c-0.4-0.3-0.1-0.6,0-1
			c0.2-0.4-0.5,0.5-0.8,0.7c-0.6,0.3-1-0.1-0.8-0.6c0.2-0.5,0.7-0.7,0.9-0.8c0.2-0.1-1.6,0.6-1.7,0c-0.1-0.6,0.6-0.9,1.2-1
			c0.6-0.1-1.3,0.2-1.3-0.5c0-0.7,1-0.7,1.5-0.5c0,0-0.8-0.4-0.3-0.9c0.3-0.3,1.1,0.3,1.7,0.3c0.6-0.1,2.7-0.3,3.2-2.4
			c0.5-2.1,2.9-3.1,3.5-3.2c0,0-1.3-4.1,0.5-4.9c1.8-0.8,2.2,0.3,2.4,1.6c0.2,1.3,0.1,3.1,1.6,2.6c1.5-0.5,2.4-1,2.9-1.3
			c0.5-0.3,0.6-1.1,0.3-1.4c0,0-0.4-0.3-0.5,0.3c-0.1,0.6-0.2,0.7-0.5,0.6c-0.3-0.1-0.4-0.6-0.3-0.8c0.1-0.1-0.7,1.3-1.3,0.8
			c-0.6-0.5,0.6-1.2,0.7-1.3c0,0-1.3,0.8-1.5,0.2c-0.2-0.6,1.1-0.8,1.2-0.8c0.1,0-1.6,0.4-1.5-0.1c0.1-0.5,1.2-0.6,1.3-0.7
			c0.1,0-1.4,0.2-1.3-0.4c0.1-0.6,2.3-0.9,3-0.8c0.7,0.1,2,1,2.5,1.6c0.5,0.7,1.4,2.3,0.9,3.6c0,0-0.3,0.8-1.8,2
			c-1.5,1.2-2.1,1.8-2.2,3.7c-0.1,1.9-0.1,2.1,0.2,3.5c0.3,1.4,1.1,1.8,1.5,2.1c0.4,0.4,1.7,1.6,1.3,3.5c-0.4,1.9-1.3,3.4-1.4,3.5
			c-0.1,0.2,1.8,0.5,2.3,1c0.5,0.7-0.1,1.4-1.4,1.4c-1.2,0-3.3,0-3.1-2.1C58.7-365.5,59.3-368,56.4-369.4z"/>
		<path class="st1" d="M65.1-306.7c0,0-1.1-0.9-1.5,0.8c-0.4,1.8-0.5,2.9-2.4,4.7c-1.9,1.8-2.5,1.9-2.6,2c-0.2,0.1-0.1,1-1,1.8
			c-0.9,0.8-2.4,0.9-2.6-0.3c-0.2-1.3,0.4-2,1.3-2.6c0.8-0.6,2.7-2.5,3.4-4.5c0.7-2,1.6-5.2,1.6-6.5c0-1.2-0.1-2.1-0.7-1.3
			c-0.7,0.8-0.7,1.5-1.7,1.9c-0.9,0.4-1.5,0.5-2.1,1c-0.5,0.5-1.3,1.1-1.4,1.1c-0.1,0-0.5,0.6-0.9,0.3c-0.4-0.3-0.1-0.6,0-1
			c0.2-0.4-0.5,0.5-0.8,0.7c-0.6,0.3-1-0.1-0.8-0.6c0.2-0.5,0.7-0.7,0.9-0.8c0.2-0.1-1.6,0.6-1.7,0c-0.1-0.6,0.6-0.9,1.2-1
			c0.6-0.1-1.3,0.2-1.3-0.5c0-0.7,1-0.7,1.5-0.5c0,0-0.8-0.4-0.3-0.9c0.3-0.3,1.1,0.3,1.7,0.3c0.6,0,2.7-0.3,3.2-2.4
			c0.5-2.1,2.9-3.1,3.5-3.2c0,0-1.3-4.1,0.5-4.9c1.8-0.8,2.2,0.3,2.4,1.6c0.2,1.3,0.1,3.1,1.6,2.6c1.5-0.5,2.4-1,2.9-1.3
			c0.5-0.3,0.6-1.1,0.3-1.4c0,0-0.4-0.3-0.5,0.3c-0.1,0.6-0.2,0.7-0.5,0.6c-0.3-0.1-0.4-0.6-0.3-0.8c0.1-0.1-0.7,1.3-1.3,0.8
			c-0.6-0.5,0.6-1.2,0.7-1.3c0,0-1.3,0.8-1.5,0.2c-0.2-0.6,1.1-0.8,1.2-0.8c0.1,0-1.6,0.4-1.5-0.1c0.1-0.5,1.2-0.7,1.3-0.7
			c0.1,0-1.4,0.2-1.3-0.4c0.1-0.6,2.3-0.9,3-0.8c0.7,0.1,2,1,2.5,1.6c0.5,0.7,1.4,2.3,0.9,3.6c0,0-0.3,0.8-1.8,2
			c-1.5,1.2-2.1,1.8-2.2,3.7c-0.1,1.9-0.1,2.1,0.2,3.5c0.3,1.4,1.1,1.8,1.5,2.1c0.4,0.4,1.7,1.6,1.3,3.5c-0.4,1.9-1.3,3.4-1.4,3.5
			c-0.1,0.2,1.8,0.5,2.3,1c0.5,0.7-0.1,1.4-1.4,1.4c-1.2,0-3.3,0-3.1-2.1C67.4-302.7,68-305.3,65.1-306.7z"/>
		<path class="st2" d="M21.9-377.1c0,0-2.1-0.4-2.7,1.7c-0.6,2.1-0.5,3.3-1.3,4.1c-0.8,0.8-1.7,2.5-0.9,5.1c0.8,2.5,0.3,3-0.4,5.1
			c-0.8,2.3-0.4,6.3,0.9,7.8c0,0-1.4,0.6-0.8,1.4c0.5,0.8,3.3-0.7,3.5-0.9c0.2-0.2,1.8-0.6-0.4-5c0,0-0.5-1-0.3-2.9
			c0.2-2,0.5-2.2,0.6-2.3c0.3-0.2,0.7-0.3,1,0.4c0.3,0.6,1.1,2.4,1.4,2.7c0.3,0.3,1,1.4,2.7,0.9c1.8-0.5,3.6-1.2,4.2-3.4
			c0,0,1.3,0.7,1.6,0c0.4-0.7-0.5-1.5-1-1.8c-0.4-0.3-2.2-2.3-4,0.8c-1.8,3.1-2.9,0.1-3.3-0.7c-0.4-0.6-1.8-3.9-0.6-3.8
			c1.2,0.1,2.6,0.9,6.7,0.4c0,0,1.9,0.4,2.2-0.1c0.3-0.6-0.5-0.8-0.6-0.8c-0.1,0,1.4,0.3,1.5-0.3c0.1-0.6-1.2-0.8-1.4-0.8
			c-0.2,0,1.7,0,1.7-0.7c0-0.7-1.4-0.5-1.6-0.4c-0.2,0.1,1.3-0.4,1.2-0.9c-0.2-0.6-1.7,0.2-1.9,0.2c-0.1,0.1,0.7-0.7,0.3-1.1
			c-0.4-0.5-1.3,0.6-1.5,0.9c-0.2,0.3-1.7,1-2.9,1.2c-1.1,0.2-2,0-2.7-0.3c-0.6-0.2-1.1-0.5-0.6-1.7c0.5-1.1,1.1-1.9,0.8-3.4
			C23.4-376.6,22.6-376.9,21.9-377.1z"/>
		<path class="st2" d="M77.6-380.1c0,0-2.1-0.4-2.7,1.7c-0.6,2.1-0.5,3.3-1.3,4.1c-0.8,0.8-1.7,2.6-0.9,5.1c0.8,2.5,0.3,3-0.4,5.1
			c-0.8,2.3-0.4,6.3,0.9,7.8c0,0-1.4,0.6-0.8,1.4c0.5,0.8,3.3-0.7,3.5-0.9c0.2-0.2,1.8-0.6-0.4-5c0,0-0.5-1-0.3-3
			c0.2-2,0.4-2.2,0.6-2.3c0.3-0.2,0.7-0.3,1,0.4c0.3,0.6,1.1,2.4,1.4,2.7c0.3,0.3,1,1.4,2.7,0.9c1.8-0.5,3.6-1.2,4.2-3.4
			c0,0,1.3,0.7,1.6,0c0.4-0.7-0.5-1.5-1-1.8c-0.4-0.3-2.2-2.3-4,0.8c-1.8,3.1-2.9,0.1-3.3-0.7c-0.4-0.6-1.8-3.9-0.6-3.8
			c1.2,0.1,2.6,0.9,6.7,0.4c0,0,1.9,0.4,2.2-0.1c0.3-0.6-0.5-0.8-0.6-0.8c-0.1,0,1.4,0.3,1.5-0.3c0.1-0.6-1.2-0.8-1.4-0.8
			c-0.2,0,1.7,0,1.7-0.7c0-0.7-1.4-0.5-1.6-0.4c-0.2,0.1,1.3-0.4,1.2-0.9c-0.2-0.6-1.7,0.2-1.9,0.2c-0.1,0.1,0.7-0.7,0.3-1.1
			c-0.4-0.5-1.3,0.6-1.5,0.9c-0.2,0.3-1.7,1-2.9,1.2c-1.1,0.2-2,0-2.7-0.3c-0.6-0.2-1.1-0.5-0.6-1.7c0.5-1.1,1.1-1.9,0.8-3.4
			C79-379.6,78.2-379.9,77.6-380.1z"/>
		<path class="st2" d="M65.4-422c0,0-2.1-0.4-2.7,1.7c-0.6,2.1-0.5,3.3-1.3,4.1c-0.8,0.8-1.7,2.5-0.9,5.1c0.8,2.5,0.3,3-0.4,5.1
			c-0.8,2.3-0.4,6.3,0.9,7.8c0,0-1.4,0.6-0.8,1.4c0.5,0.8,3.3-0.7,3.5-0.9c0.2-0.2,1.8-0.6-0.4-5c0,0-0.5-1-0.3-3
			c0.2-2,0.5-2.2,0.6-2.3c0.3-0.2,0.7-0.3,1,0.4c0.3,0.6,1.1,2.4,1.4,2.7c0.3,0.3,1,1.4,2.7,0.9c1.8-0.5,3.6-1.2,4.2-3.4
			c0,0,1.3,0.7,1.6,0c0.4-0.7-0.5-1.5-1-1.8c-0.4-0.3-2.2-2.3-4,0.8c-1.8,3.1-2.9,0.1-3.3-0.7c-0.4-0.6-1.8-3.9-0.6-3.8
			c1.2,0.1,2.6,0.9,6.7,0.4c0,0,1.9,0.4,2.2-0.1c0.3-0.6-0.5-0.8-0.6-0.8c-0.1,0,1.4,0.3,1.5-0.3c0.1-0.6-1.2-0.8-1.4-0.8
			c-0.2,0,1.7,0,1.7-0.7c0-0.7-1.4-0.5-1.6-0.4c-0.2,0.1,1.3-0.4,1.2-0.9c-0.2-0.6-1.7,0.2-1.9,0.2c-0.1,0.1,0.7-0.7,0.3-1.1
			c-0.4-0.5-1.3,0.6-1.5,0.9c-0.2,0.3-1.7,1-2.9,1.2c-1.1,0.2-2,0-2.7-0.3c-0.6-0.2-1.1-0.5-0.6-1.7c0.5-1.1,1.1-1.9,0.8-3.4
			C66.8-421.5,66-421.9,65.4-422z"/>
		<path class="st3" d="M6.5-345.2c0,0-0.2,0.7,0.2,0.7c0.4,0,0.5-0.5,0.7-1.1c0.2-0.7,0.4-1.5,0.9-1.3c0.5,0.2,0.5,1.1,0.1,1.5
			c-0.3,0.4,0.7-1.5,1.3-1c0.6,0.5-0.3,1.3-0.6,1.5c-0.2,0.2,1.1-1.4,1.6-0.6c0.5,0.8-1,1.3-1.2,1.4c-0.2,0.1,1.2-0.3,1.3,0.4
			c0.1,0.8-1.4,1-1.7,1c0,0,0.1,1.8-0.1,3.2c-0.2,1.4-0.4,2.9-1.8,3.6c-1.3,0.8-2.7,1.6-0.8,3.1c1.9,1.5,2.4,1.8,2.7,2
			c0.3,0.2,1.1,0.9,1,2.6c-0.2,1.7-0.6,2-0.2,2.5c0.4,0.5,0.5,0.9,0.2,1.3c-0.3,0.4-1.2,0.6-1.8,0.3c-0.6-0.3-1.3-1.1-1.4-1.3
			c-0.1-0.2-0.4-0.6,0-1.3c0.3-0.7,0.2-1.3-0.5-2.1c-0.7-0.8-3-1.9-2.3,0.4c0.8,2.3,1.1,5.8,1.2,7.2c0.1,1.4,0.1,1.1,0.2,1.7
			c0,0.6,0.8,1.5-0.2,2.1c-1,0.5-2.6,0.5-3.3,0.4c-0.8-0.1-1.2-0.2-1.5-0.6c-0.3-0.3-0.1-0.8,0.1-1.1c0.2-0.3,1-0.7,1.1-0.8
			c0.2-0.1-0.6-7.4-0.7-8.4c-0.1-1-0.4-2.8-0.7-3.5c-0.3-0.6-0.6-1.4-1.5-0.8c-0.9,0.6-1,1.4-1.4,2.3c-0.4,0.8-0.7,1.3-1.1,1.7
			c-0.3,0.4-2,1.1-2.2,1.1c-0.2,0-1.4,0.3-2.3-0.4c-0.9-0.6-1.4-1.7-1.2-2.1c0.2-0.3,1,0.4,1.2,0.7c0.2,0.3-1-0.9-0.5-1.5
			c0.5-0.6,1.1,0.8,1.2,0.8c0.1,0.1-0.6-1.3-0.2-1.5c0.4-0.2,0.9,0.7,1,0.9c0.1,0.2-0.6-1.2,0.1-1.3c0.7-0.1,0.7,0.9,0.7,0.9
			s-0.4-2.4,0.2-3.4c0.6-0.9,1.1-2,3.1-2.7c2-0.7,1.8-0.6,1.8-0.8c0-0.1-0.3-0.2-0.6-1.3c-0.2-1.1-0.2-2-0.1-2.5
			c0.2-0.5,0.9-1.1,1.7-1.1c0.8,0.1,1,0.3,1.2,0.8c0.2,0.4,0.5,1,0.8,1.9c0.2,0.8,0.7,1.5,1.7,1.3c1-0.2,2.5-0.8,2.4-2.2
			c-0.1-1.4-0.3-2-0.6-2.3c-0.3-0.3-0.5-1.5-0.2-2.2c0.3-0.7,0.2-0.9,0.4-1.1C6.1-346.1,6.5-345.9,6.5-345.2z"/>
		<path class="st3" d="M44.4-411c0,0-0.2,0.7,0.2,0.7c0.4,0,0.5-0.5,0.7-1.1c0.2-0.7,0.4-1.5,0.9-1.3c0.5,0.2,0.5,1.1,0.1,1.5
			c-0.3,0.4,0.7-1.5,1.3-1c0.6,0.5-0.3,1.3-0.6,1.5c-0.2,0.2,1.1-1.4,1.6-0.6c0.5,0.8-1,1.3-1.2,1.4c-0.2,0.1,1.2-0.3,1.3,0.4
			c0.1,0.8-1.4,1-1.7,1c0,0,0.1,1.8-0.1,3.2c-0.2,1.4-0.4,2.9-1.8,3.6c-1.4,0.8-2.7,1.6-0.8,3.1c1.9,1.5,2.4,1.8,2.7,2
			c0.3,0.2,1.1,0.9,1,2.6c-0.2,1.7-0.6,2-0.2,2.5c0.4,0.5,0.5,0.9,0.2,1.3c-0.3,0.4-1.2,0.6-1.8,0.3c-0.6-0.3-1.3-1.1-1.4-1.3
			c-0.1-0.2-0.4-0.6,0-1.3c0.3-0.7,0.2-1.3-0.5-2.1c-0.7-0.8-3-1.9-2.3,0.4c0.8,2.3,1.1,5.8,1.2,7.2c0.1,1.3,0.1,1.1,0.2,1.7
			c0,0.6,0.8,1.5-0.2,2.1c-1,0.5-2.6,0.5-3.3,0.4c-0.8-0.1-1.2-0.2-1.5-0.6c-0.3-0.3-0.1-0.8,0.1-1.1c0.3-0.3,1-0.7,1.1-0.8
			c0.2-0.1-0.6-7.4-0.7-8.4c-0.1-1-0.4-2.8-0.7-3.5c-0.3-0.6-0.6-1.4-1.5-0.8c-0.9,0.6-1,1.4-1.4,2.3c-0.4,0.8-0.7,1.3-1.1,1.7
			c-0.3,0.4-2,1.1-2.2,1.1c-0.2,0-1.4,0.3-2.3-0.4c-0.9-0.6-1.4-1.7-1.2-2.1c0.2-0.3,1,0.4,1.2,0.7c0.3,0.3-1-0.9-0.5-1.5
			c0.5-0.6,1.1,0.8,1.2,0.8c0.1,0.1-0.6-1.3-0.2-1.5c0.4-0.2,0.9,0.7,1,0.9c0.1,0.2-0.6-1.2,0.1-1.3c0.7-0.1,0.7,0.9,0.7,0.9
			s-0.4-2.4,0.2-3.4c0.6-0.9,1.1-2,3.1-2.7c2-0.7,1.8-0.6,1.8-0.8s-0.3-0.2-0.6-1.3c-0.2-1.1-0.2-2-0.1-2.5c0.2-0.5,0.9-1.1,1.7-1.1
			c0.8,0.1,1,0.3,1.2,0.8c0.2,0.4,0.5,1,0.8,1.9c0.2,0.8,0.7,1.5,1.7,1.3c1-0.2,2.5-0.8,2.4-2.2c-0.1-1.3-0.3-2-0.6-2.3
			c-0.3-0.3-0.5-1.5-0.2-2.2c0.3-0.7,0.2-0.9,0.4-1.1C44-411.8,44.3-411.6,44.4-411z"/>
		<path class="st4" d="M51.3-347.7c0,0,0.2,1.5,0.7,1.9c0.5,0.4,0.3,0.5,0,0.6c-0.3,0.2-1.2,0.5-2.4,0c-1.2-0.5-4.4-2.3-4.9-2.8
			c0,0,0-0.9-0.2-1.5c-0.2-0.6-0.4-1-0.7-0.9c-0.4,0.1-0.2,0.8,0,1.2c0.2,0.5-1.7-1.8-2.1-1.2c-0.4,0.6,0.5,1.1,0.7,1.1
			c0.2,0-2.2-1-2.1-0.1c0,0.9,1.2,0.8,1.5,0.8c0.2,0-1.7,0-1.5,0.7c0.2,0.7,1.1,0.4,1.5,0.4s-1.4,0.8-0.9,1.3c0.5,0.5,1.1,0,1.4-0.1
			c0.3-0.1,2.5,2.2,3.6,3c1.1,0.8,3.2,1.6,4.2,1.7c1,0.2,1.7,0.6,2.2,1.8c0.5,1.2,1.4,2.8-0.2,6.2c-1.6,3.4-1.4,3.6-1.7,4.3
			c-0.3,0.7-1,1.2-1.5,1.2c-0.5,0-2,0.4-0.6,1.6c1.4,1.3,4.4,1.9,4.8,0.9c0.3-1,0.1-1-0.1-1.1c-0.2-0.2-0.1-0.4,0.3-0.7
			c0.4-0.4,3.4-8.5,3.7-9.4c0.3-0.9,0.6-1.4,1.4-0.9c0.8,0.5,8,3.9,9.6,4.1c0,0-0.2,1,0.4,1.3c0.7,0.3,1.5-0.4,2-1.6
			c0.5-1.2,0.7-1.7,0.7-2.1c0.1-0.4-0.1-1.2-1.3-0.5c-1.2,0.7-1.3,0.9-2.3,0.3c-1.1-0.6-4.1-2.2-4.5-2.5c-0.4-0.2-3-2.1-3.2-3.2
			c-0.2-1.2,0.1-1.5,0.7-2.3c0.6-0.8,1.7-2.2,2.2-3.1c0.5-0.9,1-2.8,1.1-3.1c0-0.3,1.4-0.1,1.6-0.8c0.2-0.7-0.5-0.7-1-0.5
			c-0.5,0.1,1.1-0.5,0.7-1c-0.5-0.5-1.4,0.5-1.5,0.7c-0.1,0.2,1.3-1.3,0.7-1.6c-0.6-0.4-1.1,0.8-1.3,1.1c-0.2,0.3,0.6-1.4-0.3-1.5
			c-1-0.1-0.6,1.1-0.7,1.6c0,0.4-0.3-1.2-1-0.8c-0.7,0.4,0,1.5,0.4,1.8c0.4,0.3-2.2,3.2-2.5,3.6c-0.4,0.4-1.1,1.5-2,2
			c-0.9,0.4-1.6,0-1.7-0.7c0-0.7-0.4-3.6-2.3-3.5C50.7-350.1,51.3-347.7,51.3-347.7z"/>
		<path class="st4" d="M0.6-398.6c0,0,0.2,1.5,0.7,1.9c0.5,0.4,0.3,0.5,0,0.7c-0.3,0.2-1.2,0.5-2.4,0c-1.2-0.5-4.4-2.3-4.9-2.8
			c0,0,0-0.9-0.2-1.5c-0.2-0.6-0.4-1-0.7-0.9c-0.4,0.1-0.2,0.8,0,1.2c0.2,0.5-1.7-1.8-2.1-1.2c-0.4,0.6,0.5,1.1,0.7,1.1
			c0.2,0-2.2-1-2.2-0.1c0,0.9,1.2,0.8,1.5,0.9c0.2,0-1.7,0-1.5,0.6c0.2,0.7,1.1,0.4,1.5,0.4c0.3,0-1.4,0.8-0.9,1.3
			c0.5,0.5,1.1,0,1.4-0.1c0.3-0.1,2.5,2.2,3.6,3c1.1,0.8,3.2,1.6,4.2,1.7c1,0.2,1.7,0.6,2.2,1.8c0.5,1.2,1.4,2.8-0.2,6.2
			c-1.6,3.4-1.4,3.6-1.7,4.3c-0.3,0.7-1,1.2-1.5,1.2c-0.5,0-2,0.4-0.6,1.6c1.4,1.3,4.4,1.9,4.8,0.9c0.3-1,0.1-1-0.1-1.1
			c-0.2-0.2-0.1-0.4,0.3-0.7c0.4-0.4,3.4-8.5,3.7-9.4c0.3-0.9,0.6-1.4,1.4-0.9c0.8,0.5,8,3.9,9.6,4.1c0,0-0.2,1,0.4,1.3
			c0.7,0.3,1.5-0.4,2-1.6c0.5-1.2,0.7-1.7,0.7-2.1c0.1-0.4-0.1-1.2-1.3-0.5c-1.2,0.7-1.3,0.9-2.3,0.3c-1.1-0.6-4.1-2.2-4.5-2.5
			c-0.4-0.2-3-2.1-3.2-3.2c-0.2-1.2,0.1-1.5,0.7-2.3c0.6-0.8,1.7-2.2,2.2-3.1c0.5-0.9,1-2.8,1.1-3.1c0-0.3,1.4-0.1,1.6-0.8
			c0.2-0.7-0.5-0.7-1-0.5c-0.5,0.1,1.1-0.5,0.7-1c-0.5-0.5-1.4,0.5-1.5,0.7c-0.1,0.2,1.3-1.3,0.7-1.6c-0.6-0.4-1.1,0.8-1.3,1.1
			c-0.2,0.3,0.7-1.4-0.3-1.5c-1-0.1-0.7,1.1-0.7,1.6c0,0.4-0.3-1.2-1-0.8c-0.7,0.4,0,1.5,0.4,1.8c0.4,0.3-2.2,3.2-2.5,3.6
			c-0.4,0.4-1.1,1.5-2,2c-0.9,0.4-1.6,0-1.7-0.7c0-0.7-0.4-3.6-2.3-3.5C0-400.9,0.6-398.6,0.6-398.6z"/>
		<path class="st5" d="M33.8-343.4c0,0-1.4-0.1-1.3,0.4c0.1,0.5,0.9,0.4,1,0.4c0.1,0-1.3-0.2-1.3,0.4c0,0.6,0.9,0.4,1.2,0.3
			c0.3,0-1.3,0-1.2,0.5c0.1,0.4,0.9,0.3,1.3,0.2c0.4-0.1-1.3,0-1.2,0.5c0.1,0.5,1.1,0.3,1.4,0.4c0.3,0,1,0.7,0.2,0.8
			c-0.8,0.1-1.5,0-1.4,0.6c0.1,0.6,0.8,0.5,1.2,0.3c0.4-0.2,0.8,0.4,0.8,0.6c0.1,0.2,1.1,2-0.2,3.4c-1.3,1.4-2.4,1-2.7,0.1
			c-0.4-0.8,0-2.4,0-2.7c0-0.4,0.1-2-1.4-2.1c-1.5-0.1-2.2,1.3-2.4,2.5c-0.1,1.2-0.4,2.4-0.7,2.8c-0.2,0.3-0.7,1.1-1.6,0.6
			c-0.9-0.5-1.1-1.2-1-1.8c0.1-0.6,0.3-1.5,0.6-1.9c0.3-0.4,0.8-1.1,0.9-1.3c0.2-0.2,0.2-0.3,0.5-0.3c0.3,0,1.6-0.4,1.5-1.1
			c-0.1-0.7-0.8-0.2-0.9-0.1c-0.1,0-0.9,0.5-1,0c-0.1-0.5,0.2-0.8,1-0.7c0.8,0.1,1.5,0.2,1.4-0.4c0-0.6-1.1-0.3-1.3-0.3
			c-0.1,0,1.6-0.1,1.7-0.7c0.1-0.7-1.4-0.1-1.7,0c-0.2,0.1,1.7-0.5,1.5-1c-0.2-0.4-1.6-0.1-1.7,0.2c-0.1,0.2,1.8-0.7,1.5-1.2
			c-0.3-0.4-1.8,0.2-2.3,0.6c-0.5,0.4-2.2,2.3-2.6,3.3c-0.4,1-1.2,1.9-1.7,2.6c-0.5,0.7-1.5,2.6-1,4.2c0.5,1.6,1.2,1.9,2.4,2.9
			c1.2,1,1.8,1.9,2,3.7c0.2,1.9,0.4,4.8,0.6,5.7c0.1,0.9,0.3,2,0.2,2.6c-0.2,0.5-0.6,2.5-0.7,2.9c0,0.4-0.2,1.1,0.2,1.2
			c0.4,0.1,0.8-0.2,2-1.7c1.2-1.6,1-2.7,0.9-3.7c-0.1-1-0.1-5.5,0-6.5c0.1-0.9,0.8-1.5,1,0c0.2,1.5,0.4,4.4,0.4,5.3
			c0,0.8,0.2,2.7,0.5,3.1c0.3,0.4,0.7,1.1,1,1.3c0.2,0.2,0.8,0.7,1.1,0.8c0.3,0.1,0.7,0.1,0.5-1.2c-0.2-1.3-0.8-3.3-0.9-3.8
			c-0.1-0.5-0.3-3.8-0.3-4.7c0-0.9,0.1-2,0.1-2.3c0-0.3-0.2-0.8,1.3-1.8c1.4-1,2.9-2.6,3.6-3.9c0.6-1.3,0.9-3.1,0.7-5
			c-0.2-1.9-1.5-3.2-2.2-3.9C35-343,34.3-343.4,33.8-343.4z"/>
		<path class="st5" d="M28.5-434.1c0,0-1.4-0.1-1.3,0.4c0.1,0.5,0.9,0.4,1,0.4c0.1,0-1.3-0.2-1.3,0.4c0,0.6,0.9,0.4,1.2,0.3
			c0.3,0-1.3,0-1.2,0.5c0.1,0.4,0.9,0.3,1.3,0.2c0.4-0.1-1.3,0-1.2,0.5c0.1,0.5,1.1,0.3,1.4,0.4c0.3,0,1,0.7,0.2,0.8
			c-0.8,0.1-1.5,0-1.4,0.6c0.1,0.6,0.8,0.5,1.2,0.3c0.4-0.2,0.8,0.4,0.8,0.6c0.1,0.2,1.1,2-0.2,3.4c-1.3,1.4-2.4,1-2.7,0.1
			c-0.4-0.8,0-2.4,0.1-2.7c0-0.4,0.1-2-1.4-2.1c-1.5-0.1-2.2,1.3-2.4,2.5c-0.1,1.2-0.4,2.4-0.7,2.8c-0.2,0.3-0.7,1.1-1.6,0.7
			c-0.9-0.5-1.1-1.2-1-1.8c0.1-0.6,0.3-1.5,0.6-1.9c0.3-0.4,0.8-1.1,0.9-1.3c0.2-0.2,0.2-0.3,0.5-0.3c0.3,0,1.6-0.4,1.5-1.1
			c-0.1-0.7-0.8-0.2-0.9-0.1c-0.1,0-0.9,0.5-1,0c-0.1-0.5,0.2-0.8,1-0.7c0.8,0.1,1.5,0.2,1.4-0.4c0-0.6-1.1-0.3-1.3-0.3
			c-0.1,0,1.6-0.1,1.7-0.7c0.1-0.7-1.4-0.1-1.7,0c-0.2,0.1,1.7-0.5,1.5-1c-0.2-0.4-1.6-0.1-1.7,0.2c-0.1,0.2,1.8-0.7,1.5-1.2
			c-0.3-0.4-1.8,0.2-2.3,0.6c-0.5,0.4-2.2,2.3-2.6,3.3c-0.4,1-1.2,1.9-1.7,2.6c-0.5,0.7-1.5,2.6-1,4.2c0.5,1.6,1.2,1.9,2.4,2.9
			c1.2,1,1.8,1.9,2,3.7c0.2,1.9,0.4,4.8,0.6,5.7c0.1,0.9,0.3,2,0.2,2.6c-0.2,0.5-0.6,2.5-0.7,2.9c0,0.4-0.2,1.1,0.2,1.2
			c0.4,0.1,0.8-0.2,2-1.7s1-2.7,0.9-3.7c-0.1-1-0.1-5.5,0-6.5c0.1-0.9,0.8-1.5,1,0c0.2,1.5,0.4,4.4,0.4,5.3c0,0.8,0.2,2.7,0.5,3.1
			c0.3,0.4,0.7,1.1,1,1.3c0.2,0.2,0.8,0.7,1.1,0.8c0.3,0.1,0.7,0.1,0.5-1.2c-0.2-1.3-0.8-3.3-0.9-3.8c-0.1-0.5-0.3-3.8-0.3-4.7
			c0-0.9,0.1-2,0.1-2.3c0-0.3-0.2-0.8,1.3-1.8c1.4-1,2.9-2.6,3.6-3.9c0.6-1.3,0.9-3.1,0.7-5c-0.2-1.9-1.5-3.2-2.2-3.9
			C29.8-433.6,29.1-434,28.5-434.1z"/>
		<path class="st3" d="M13-312.4c0,0-3.2-0.1-3.1,1.5c0.1,1.6,2.1,4,3.3,2.6C14.5-309.7,14.8-312.6,13-312.4z"/>
		<path class="st3" d="M54-417.2c0,0-3.2-0.1-3.1,1.5c0.1,1.6,2.1,4,3.3,2.6C55.5-414.5,55.9-417.4,54-417.2z"/>
		<path class="st3" d="M3.7-418c0,0-3.2-0.1-3.1,1.5c0.1,1.6,2.1,4,3.3,2.6C5.2-415.3,5.6-418.2,3.7-418z"/>
		<path class="st3" d="M21.1-402.2c0,0-3.2-0.1-3.1,1.5c0.1,1.6,2.1,4,3.3,2.6C22.6-399.5,22.9-402.4,21.1-402.2z"/>
		<path class="st3" d="M70.8-345.5c0,0-3.2-0.1-3.1,1.5c0.1,1.6,2.1,4,3.3,2.6C72.3-342.8,72.6-345.7,70.8-345.5z"/>
		<path class="st3" d="M77.9-328.3c0,0-3.2-0.1-3.1,1.5c0.1,1.6,2.1,4,3.3,2.6C79.4-325.6,79.7-328.5,77.9-328.3z"/>
		<path class="st3" d="M43.2-324.4c0,0-3.2-0.1-3.1,1.5c0.1,1.6,2.1,4,3.3,2.6C44.8-321.7,45.1-324.6,43.2-324.4z"/>
		<path class="st3" d="M13.9-377.5c0,0-3.2-0.1-3.1,1.5c0.1,1.6,2.1,4,3.3,2.6C15.4-374.8,15.7-377.7,13.9-377.5z"/>
		<path class="st4" d="M12.9-375.5c0,0-3.6-0.6-3.6,2.1c0,2.8,0.6,2.3,1.4,2.9c0.8,0.6,2.3-0.4,2.7-1.9
			C13.8-373.9,14.1-375.5,12.9-375.5z"/>
		<path class="st4" d="M33.3-355.2c0,0-3.6-0.6-3.6,2.1c0,2.8,0.6,2.3,1.4,2.9c0.8,0.6,2.3-0.4,2.7-1.9
			C34.2-353.5,34.5-355.1,33.3-355.2z"/>
		<path class="st4" d="M78.7-393.2c0,0-1.7-2.1-3-0.5c-1.3,1.5-0.8,1.6-0.7,2.3c0.1,0.7,1.5,0.9,2.4,0.2
			C78.4-391.9,79.3-392.6,78.7-393.2z"/>
		<path class="st4" d="M18.6-323.2c0,0-2.6-0.5-2.6,1.6c0,2,0.4,1.7,1,2.2c0.6,0.5,1.7-0.3,2-1.4C19.2-322,19.4-323.2,18.6-323.2z"
			/>
		<path class="st4" d="M4.4-357.7c0,0-4-0.7-4,2.4c0,3.1,0.6,2.6,1.5,3.3c0.9,0.7,2.6-0.5,3-2.2C5.3-355.9,5.7-357.7,4.4-357.7z"/>
	</g>
</g>
<rect x="112.3" y="-352.9" class="st6" width="227.8" height="19.1"/>
<text transform="matrix(1 0 0 1 112.3061 -341.6103)" class="st7 st8 st9 st10">Creative Arts &amp; Education</text>
<rect x="112.3" y="-388" class="st6" width="227.8" height="32.3"/>
<text transform="matrix(1 0 0 1 112.3061 -362.6396)" class="st7 st11 st12" style="letter-spacing:11;">ANYONCE</text>
<g>
	<g>
		<path class="st1" d="M77.8,52.3c0,0-1.2-1-1.7,0.9c-0.4,1.9-0.5,3.1-2.6,5c-2,1.9-2.7,2-2.9,2.1c-0.2,0.1-0.1,1.1-1.1,1.9
			c-1,0.8-2.6,1-2.8-0.4c-0.2-1.4,0.4-2.1,1.4-2.8c0.9-0.7,2.9-2.7,3.6-4.8c0.7-2.2,1.7-5.6,1.7-6.9c0-1.3-0.1-2.3-0.8-1.4
			c-0.7,0.9-0.8,1.6-1.8,2c-1,0.4-1.7,0.5-2.2,1c-0.6,0.5-1.4,1.2-1.5,1.2c-0.1,0-0.5,0.6-0.9,0.3c-0.4-0.3-0.1-0.6,0-1
			c0.2-0.4-0.6,0.6-0.9,0.8c-0.6,0.3-1.1-0.1-0.9-0.7c0.2-0.6,0.8-0.8,0.9-0.8c0.2-0.1-1.7,0.7-1.9,0c-0.2-0.6,0.6-1,1.2-1
			c0.6-0.1-1.4,0.2-1.4-0.6c0-0.8,1-0.7,1.6-0.5c0,0-0.8-0.5-0.3-0.9c0.3-0.3,1.1,0.4,1.8,0.3c0.7-0.1,2.9-0.3,3.4-2.6
			c0.5-2.3,3.1-3.3,3.7-3.5c0,0-1.4-4.4,0.6-5.3c1.9-0.9,2.4,0.3,2.6,1.7c0.2,1.4,0.1,3.3,1.8,2.8c1.6-0.6,2.6-1.1,3.1-1.4
			c0.5-0.3,0.7-1.2,0.3-1.5c0,0-0.5-0.3-0.6,0.4c-0.1,0.6-0.2,0.7-0.6,0.6c-0.3-0.1-0.4-0.7-0.3-0.8c0.1-0.2-0.8,1.4-1.4,0.9
			c-0.6-0.6,0.7-1.3,0.7-1.3c0,0-1.4,0.9-1.6,0.2c-0.3-0.6,1.2-0.9,1.3-0.9c0.1,0-1.7,0.4-1.6-0.1c0.1-0.6,1.3-0.7,1.4-0.7
			c0.1,0-1.5,0.2-1.4-0.4c0.1-0.7,2.5-0.9,3.2-0.8c0.7,0.1,2.2,1,2.7,1.8c0.5,0.7,1.5,2.5,0.9,3.9c0,0-0.3,0.9-1.9,2.1
			c-1.6,1.2-2.2,1.9-2.3,3.9c-0.1,2-0.1,2.3,0.2,3.8c0.3,1.5,1.2,1.9,1.6,2.3c0.4,0.4,1.8,1.8,1.4,3.7c-0.5,2-1.4,3.6-1.5,3.8
			c-0.1,0.2,2,0.5,2.5,1.1c0.6,0.7-0.2,1.5-1.5,1.5c-1.3,0-3.5,0-3.3-2.3C80.3,56.5,81,53.7,77.8,52.3z"/>
		<path class="st2" d="M40.7,44c0,0-2.3-0.5-2.9,1.8c-0.6,2.3-0.6,3.5-1.4,4.4c-0.8,0.9-1.9,2.7-1,5.5c0.9,2.7,0.3,3.2-0.4,5.5
			c-0.8,2.5-0.4,6.8,1,8.3c0,0-1.5,0.6-0.9,1.5c0.5,0.9,3.5-0.8,3.8-1c0.2-0.2,1.9-0.6-0.4-5.4c0,0-0.6-1.1-0.4-3.2
			c0.2-2.1,0.5-2.4,0.7-2.5c0.3-0.2,0.8-0.3,1.1,0.4c0.3,0.7,1.2,2.6,1.5,2.9c0.3,0.3,1,1.5,2.9,1c1.9-0.5,3.9-1.3,4.5-3.6
			c0,0,1.4,0.7,1.8,0c0.4-0.8-0.6-1.6-1-2c-0.5-0.3-2.4-2.5-4.3,0.9c-1.9,3.4-3.1,0.1-3.6-0.7c-0.4-0.7-2-4.2-0.6-4.1
			c1.3,0.1,2.8,1,7.3,0.5c0,0,2,0.5,2.3-0.1c0.3-0.6-0.5-0.8-0.7-0.9c-0.1,0,1.5,0.4,1.7-0.3c0.1-0.7-1.3-0.8-1.6-0.8
			c-0.2,0,1.8,0,1.8-0.8c0-0.8-1.5-0.5-1.7-0.4c-0.2,0.1,1.4-0.4,1.2-1c-0.2-0.6-1.9,0.2-2,0.3c-0.2,0.1,0.8-0.7,0.4-1.2
			c-0.4-0.5-1.4,0.6-1.6,1c-0.2,0.3-1.9,1-3.1,1.3c-1.1,0.2-2.1,0-2.9-0.3c-0.6-0.2-1.2-0.5-0.7-1.8c0.5-1.2,1.2-2.1,0.9-3.7
			C42.3,44.6,41.4,44.2,40.7,44z"/>
		<path class="st3" d="M64.9,7.5c0,0-0.2,0.8,0.2,0.7c0.4,0,0.5-0.5,0.7-1.2c0.2-0.7,0.5-1.6,1-1.4c0.5,0.2,0.5,1.2,0.1,1.7
			c-0.4,0.5,0.7-1.6,1.3-1.1c0.6,0.6-0.4,1.4-0.6,1.6c-0.2,0.2,1.2-1.6,1.7-0.7c0.5,0.9-1.1,1.4-1.3,1.5c-0.2,0.1,1.2-0.4,1.4,0.5
			c0.2,0.9-1.5,1.1-1.8,1.1c0,0,0.1,1.9-0.1,3.4c-0.2,1.5-0.5,3.1-1.9,3.9c-1.5,0.8-2.9,1.8-0.8,3.4c2,1.6,2.6,1.9,2.9,2.2
			c0.3,0.2,1.2,0.9,1,2.8c-0.2,1.8-0.7,2.2-0.2,2.7c0.5,0.6,0.6,1,0.3,1.5c-0.3,0.5-1.2,0.6-1.9,0.3c-0.7-0.3-1.4-1.2-1.5-1.4
			c-0.1-0.2-0.4-0.7,0-1.4c0.4-0.7,0.2-1.4-0.5-2.2c-0.7-0.9-3.3-2-2.4,0.4c0.8,2.4,1.2,6.3,1.3,7.7c0.1,1.5,0.1,1.2,0.2,1.8
			c0,0.6,0.9,1.7-0.2,2.2c-1.1,0.6-2.7,0.6-3.6,0.5c-0.8-0.1-1.3-0.2-1.6-0.6c-0.3-0.4-0.1-0.9,0.1-1.2c0.3-0.3,1-0.7,1.2-0.9
			c0.2-0.1-0.6-7.9-0.8-9.1c-0.1-1.1-0.4-3.1-0.7-3.7c-0.3-0.7-0.7-1.5-1.7-0.8c-1,0.7-1.1,1.5-1.5,2.4c-0.4,0.9-0.8,1.4-1.2,1.8
			c-0.4,0.4-2.2,1.2-2.4,1.2c-0.2,0-1.5,0.3-2.5-0.4c-1-0.7-1.5-1.9-1.3-2.2c0.2-0.4,1,0.5,1.3,0.8c0.3,0.3-1.1-1-0.5-1.6
			c0.6-0.6,1.2,0.8,1.3,0.9c0.1,0.1-0.6-1.4-0.2-1.6c0.4-0.2,1,0.7,1.1,1c0.1,0.3-0.6-1.3,0.1-1.5c0.7-0.1,0.7,1,0.7,1
			s-0.5-2.6,0.2-3.6c0.7-1,1.2-2.1,3.3-2.9c2.1-0.7,1.9-0.7,1.9-0.8c0-0.1-0.4-0.2-0.6-1.4c-0.2-1.1-0.2-2.2-0.1-2.7
			c0.2-0.6,1-1.2,1.8-1.1c0.8,0.1,1.1,0.4,1.3,0.8c0.3,0.5,0.6,1.1,0.8,2c0.2,0.9,0.7,1.6,1.8,1.4c1.1-0.3,2.7-0.9,2.6-2.4
			c-0.1-1.5-0.3-2.1-0.6-2.5C63.7,10,63.5,8.8,63.8,8c0.3-0.8,0.2-0.9,0.5-1.2C64.5,6.6,64.8,6.8,64.9,7.5z"/>
		<path class="st4" d="M17.8,20.9c0,0,0.2,1.6,0.7,2c0.5,0.5,0.3,0.5,0,0.7c-0.3,0.2-1.3,0.5-2.6,0c-1.3-0.5-4.7-2.4-5.3-3.1
			c0,0,0-1-0.2-1.6c-0.2-0.6-0.4-1.1-0.8-0.9c-0.4,0.1-0.2,0.8,0,1.3c0.2,0.5-1.9-2-2.3-1.3c-0.4,0.6,0.6,1.2,0.7,1.2
			c0.2,0-2.3-1.1-2.3-0.1c0,1,1.3,0.9,1.6,0.9c0.3,0-1.8,0-1.6,0.7C6,21.5,7,21.1,7.4,21.1c0.3,0-1.5,0.8-1,1.4
			c0.5,0.6,1.2,0,1.5-0.1c0.4-0.1,2.7,2.4,3.9,3.2c1.2,0.8,3.5,1.7,4.5,1.9c1,0.2,1.9,0.7,2.4,1.9c0.5,1.3,1.5,3-0.2,6.7
			c-1.7,3.7-1.5,3.9-1.9,4.6C16.2,41.5,15.5,42,15,42c-0.6,0-2.1,0.4-0.7,1.7c1.5,1.3,4.8,2.1,5.1,1c0.4-1.1,0.1-1.1-0.1-1.2
			c-0.2-0.2-0.1-0.4,0.3-0.8c0.4-0.4,3.6-9.2,3.9-10.2c0.3-1,0.6-1.6,1.5-1c0.9,0.6,8.6,4.2,10.4,4.5c0,0-0.3,1.1,0.5,1.4
			c0.7,0.3,1.7-0.5,2.2-1.7c0.5-1.3,0.7-1.8,0.8-2.3c0.1-0.5-0.1-1.3-1.4-0.5c-1.3,0.8-1.4,1-2.5,0.3c-1.1-0.7-4.4-2.4-4.8-2.7
			c-0.4-0.3-3.2-2.2-3.4-3.5c-0.2-1.3,0.1-1.6,0.8-2.5c0.7-0.8,1.8-2.4,2.4-3.3c0.5-0.9,1.1-3,1.2-3.4c0-0.3,1.5-0.1,1.7-0.9
			c0.2-0.7-0.6-0.7-1.1-0.6c-0.5,0.1,1.2-0.5,0.7-1.1c-0.5-0.6-1.5,0.6-1.6,0.7c-0.1,0.2,1.4-1.4,0.7-1.8c-0.6-0.4-1.2,0.8-1.4,1.2
			c-0.2,0.4,0.7-1.5-0.4-1.6c-1.1-0.1-0.7,1.2-0.7,1.7c0,0.5-0.4-1.3-1.1-0.9c-0.7,0.5,0,1.6,0.5,1.9c0.4,0.3-2.3,3.5-2.7,3.9
			c-0.4,0.4-1.2,1.7-2.1,2.1c-1,0.5-1.7,0-1.8-0.7c0-0.8-0.4-3.9-2.5-3.8C17.1,18.3,17.8,20.9,17.8,20.9z"/>
		<path class="st5" d="M104.5,38c0,0-1.5-0.1-1.4,0.4c0.1,0.5,1,0.4,1.1,0.4c0.1,0-1.4-0.2-1.4,0.5c0,0.6,1,0.4,1.3,0.3
			c0.3,0-1.4,0-1.3,0.5c0.1,0.5,1,0.3,1.4,0.2c0.4-0.1-1.4,0-1.3,0.5c0.1,0.5,1.2,0.4,1.5,0.4c0.3,0,1.1,0.7,0.3,0.9
			c-0.9,0.1-1.6,0-1.5,0.6c0.1,0.6,0.9,0.5,1.3,0.3c0.4-0.2,0.8,0.4,0.9,0.7c0.1,0.2,1.2,2.2-0.2,3.7c-1.3,1.5-2.6,1-2.9,0.2
			c-0.4-0.9,0-2.6,0.1-2.9c0-0.4,0.1-2.1-1.5-2.2c-1.6-0.1-2.4,1.4-2.5,2.7c-0.2,1.3-0.5,2.6-0.7,3c-0.3,0.4-0.8,1.2-1.7,0.7
			c-0.9-0.5-1.1-1.3-1-2c0.1-0.7,0.4-1.6,0.7-2.1c0.3-0.5,0.8-1.1,1-1.4c0.2-0.2,0.2-0.3,0.5-0.3c0.3-0.1,1.8-0.4,1.6-1.1
			c-0.2-0.7-0.9-0.2-1-0.2c-0.1,0-0.9,0.5-1,0c-0.1-0.6,0.2-0.9,1.1-0.8c0.9,0.1,1.6,0.2,1.6-0.5c0-0.6-1.2-0.3-1.4-0.3
			c-0.2,0,1.7-0.1,1.8-0.8c0.1-0.7-1.5-0.1-1.8,0c-0.2,0.1,1.8-0.6,1.7-1c-0.2-0.5-1.7-0.1-1.8,0.2c-0.1,0.3,1.9-0.8,1.6-1.2
			c-0.4-0.5-1.9,0.2-2.5,0.6c-0.5,0.4-2.4,2.4-2.8,3.5c-0.4,1.1-1.3,2-1.8,2.8c-0.5,0.8-1.6,2.8-1,4.5c0.6,1.7,1.3,2,2.6,3.1
			c1.3,1,1.9,2,2.2,4c0.2,2,0.5,5.2,0.6,6.2c0.1,1,0.3,2.2,0.2,2.8c-0.2,0.6-0.7,2.7-0.7,3.1c0,0.4-0.2,1.2,0.2,1.3
			c0.4,0.1,0.8-0.2,2.1-1.9c1.3-1.7,1-2.9,1-4c-0.1-1.1-0.1-6,0-7c0.1-1,0.8-1.6,1,0c0.2,1.6,0.4,4.7,0.5,5.7c0,0.9,0.2,2.9,0.5,3.3
			c0.3,0.5,0.8,1.1,1,1.4c0.3,0.3,0.8,0.8,1.2,0.9c0.3,0.1,0.8,0.1,0.6-1.3c-0.2-1.4-0.9-3.6-1-4.1c-0.1-0.6-0.3-4-0.3-5
			c0-1,0.1-2.2,0.2-2.5c0-0.3-0.2-0.8,1.4-2c1.5-1.1,3.2-2.8,3.8-4.2c0.7-1.4,1-3.3,0.7-5.4c-0.3-2-1.7-3.5-2.3-4.2
			C105.9,38.5,105.1,38,104.5,38z"/>
		<path class="st3" d="M39.8,17c0,0-3.4-0.1-3.3,1.6c0.1,1.8,2.2,4.3,3.6,2.8C41.4,19.9,41.8,16.8,39.8,17z"/>
		<path class="st3" d="M82.9,21.1c0,0-3.4-0.1-3.3,1.6c0.1,1.8,2.2,4.3,3.6,2.8C84.5,24,84.9,20.9,82.9,21.1z"/>
		<path class="st3" d="M54.1,42.3c0,0-3.4-0.1-3.3,1.6c0.1,1.8,2.2,4.3,3.6,2.8C55.7,45.2,56,42,54.1,42.3z"/>
		<path class="st3" d="M72.8,67.4c0,0-3.4-0.1-3.3,1.6c0.1,1.8,2.2,4.3,3.6,2.8C74.5,70.4,74.8,67.2,72.8,67.4z"/>
		<path class="st3" d="M32,43.6c0,0-3.4-0.1-3.3,1.6c0.1,1.8,2.2,4.3,3.6,2.8C33.7,46.5,34,43.4,32,43.6z"/>
		<path class="st4" d="M31,45.7c0,0-3.9-0.7-3.9,2.3c0,3,0.6,2.5,1.5,3.2c0.9,0.7,2.5-0.5,2.9-2.1C31.9,47.4,32.3,45.7,31,45.7z"/>
		<path class="st4" d="M82.1,20.4c0,0-3.9-0.7-3.9,2.3c0,3,0.6,2.5,1.5,3.2c0.9,0.7,2.5-0.5,2.9-2.1C83.1,22.1,83.4,20.4,82.1,20.4z
			"/>
		<path class="st4" d="M101.9,26.6c0,0-1.8-2.2-3.2-0.6c-1.4,1.6-0.9,1.7-0.7,2.5c0.2,0.8,1.6,0.9,2.6,0.2
			C101.5,28.1,102.5,27.3,101.9,26.6z"/>
		<path class="st4" d="M58.2,65.4c0,0-2.8-0.5-2.8,1.7c0,2.2,0.4,1.8,1.1,2.3c0.6,0.5,1.8-0.3,2.1-1.5
			C58.9,66.7,59.2,65.5,58.2,65.4z"/>
		<path class="st4" d="M21.8,64.9c0,0-4.3-0.7-4.3,2.6c0,3.3,0.7,2.8,1.7,3.5c1,0.8,2.8-0.5,3.2-2.3C22.9,66.8,23.3,64.9,21.8,64.9z
			"/>
	</g>
</g>
<rect x="118.3" y="52.3" class="st6" width="227.8" height="19.1"/>
<text transform="matrix(1 0 0 1 118.2514 63.5187)" class="st7 st8 st9 st10">Creative Arts &amp; Education</text>
<rect x="1136.9" y="-360.5" class="st6" width="227.8" height="19.1"/>
<text transform="matrix(1 0 0 1 1136.856 -349.2138)" class="st3 st8 st9 st10">Creative Arts &amp; Education</text>
<rect x="1136.9" y="-395.6" class="st6" width="227.8" height="32.3"/>
<text transform="matrix(1 0 0 1 1136.856 -370.2431)" class="st3 st11 st12" style="letter-spacing:11;">ANYONCE</text>
<rect x="2026.9" y="-337.5" class="st6" width="227.8" height="19.1"/>
<text transform="matrix(1 0 0 1 2026.856 -326.2665)" class="st4 st8 st9 st10">Creative Arts &amp; Education</text>
<rect x="2026.9" y="-372.6" class="st6" width="227.8" height="32.3"/>
<text transform="matrix(1 0 0 1 2026.856 -347.2958)" class="st4 st11 st12" style="letter-spacing:11;">ANYONCE</text>
<rect x="2873.9" y="-320" class="st6" width="227.8" height="19.1"/>
<text transform="matrix(1 0 0 1 2873.856 -308.7236)" class="st5 st8 st9 st10">Creative Arts &amp; Education</text>
<rect x="2873.9" y="-355.1" class="st6" width="227.8" height="32.3"/>
<text transform="matrix(1 0 0 1 2873.856 -329.7529)" class="st5 st11 st12" style="letter-spacing:11;">ANYONCE</text>
<rect x="3764.9" y="-365.6" class="st6" width="227.8" height="19.1"/>
<text transform="matrix(1 0 0 1 3764.856 -354.3525)" class="st2 st8 st9 st10">Creative Arts &amp; Education</text>
<rect x="3764.9" y="-400.7" class="st6" width="227.8" height="32.3"/>
<text transform="matrix(1 0 0 1 3764.856 -375.3818)" class="st2 st11 st12" style="letter-spacing:11;">ANYONCE</text>
<rect x="4634.9" y="-327.6" class="st6" width="227.8" height="19.1"/>
<text transform="matrix(1 0 0 1 4634.856 -316.291)" class="st1 st8 st9 st10">Creative Arts &amp; Education</text>
<rect x="4634.9" y="-362.6" class="st6" width="227.8" height="32.3"/>
<text transform="matrix(1 0 0 1 4634.856 -337.3203)" class="st1 st11 st12" style="letter-spacing:11;">ANYONCE</text>
<rect x="5831.8" y="-607" class="st6" width="182.8" height="15.4"/>
<text transform="matrix(1 0 0 1 5831.8247 -597.9858)" class="st7 st8" style="font-size:11.2285px; letter-spacing:1;">Creative Arts &amp; Education</text>
<rect x="5831.8" y="-635.2" class="st6" width="182.8" height="25.9"/>
<text transform="matrix(1 0 0 1 5831.8247 -614.8628)" class="st7 st11" style="font-size:25.25px; letter-spacing:9;">ANYONCE</text>
<rect x="119.5" y="18.4" class="st6" width="227.8" height="32.3"/>
<text transform="matrix(1 0 0 1 119.5307 43.7226)" class="st7 st11 st12">ANYOUNGNCE</text>
</svg>
